<svg version="1.1" xmlns="http://www.w3.org/2000/svg" xmlns:xlink="http://www.w3.org/1999/xlink" x="0px" y="0px"
	 viewBox="0 0 505 505" style="enable-background:new 0 0 505 505;" xml:space="preserve">
<style type="text/css">
	.st0{display:none;}
	.st1{display:inline;}
	.st2{fill:#FFFFFF;}
	.st3{display:inline;stroke:#000000;stroke-width:0.5;stroke-miterlimit:10;}
	.st4{stroke:#000000;stroke-miterlimit:10;}
	.st5{display:inline;opacity:0.3;}
	.st6{display:inline;opacity:0.38;fill:#4D4D4D;}
	.st7{display:inline;opacity:0.3;fill:#4D4D4D;}
</style>
<g id="Layer_1" class="st0">
	<g id="Home">
		<path class="st1" d="M385.2,214.4L385,214c-0.7-1.8-1.6-4-3.5-5.4c-32.1-24.2-64.3-48.3-96.5-72.4L259.5,117
			c-2.6-2-4.9-2.9-7.1-2.9c-2.3,0-4.5,1-7.2,3c-22.6,17-45.2,33.9-67.8,50.9c-17.7,13.3-35.5,26.6-53.2,39.8c-3.4,2.5-5,5.4-5,9.1
			c0,27.9,0,55.8,0,83.6l0,69.2c0,7,3.5,10.5,10.6,10.5h60l104.1-0.1l0.5,0l80,0c7.8,0,11.2-3.3,11.2-11.2l0-150.3l0-0.7
			C385.7,217,385.8,215.7,385.2,214.4z M283.8,362.3h-62.6v-92.5h62.6V362.3z M367.8,276.7v85.6h-66V261.8c0-6.4-3.8-10.2-10.1-10.2
			c-26.2,0-52.4,0-78.7,0c-5.9,0-9.8,3.9-9.8,9.9c0,18.3,0,54.8,0,81.1v19.6h-66v-27.7c0-37.5,0-75.1,0-112.6l-0.2-1.1l1.2-1
			c31.4-23.5,62.8-47,94.2-70.5l20.2-15.2l102.4,76.8c1.1,0.9,2.3,1.7,3.4,2.6c2.7,2.1,5.5,4.3,8.4,6.2l0.7,0.5l0.3,1
			c0,0.2,0.1,0.5,0.1,1.1C367.8,240.4,367.8,258.5,367.8,276.7z"/>
	</g>
	<g id="Esport">
		<path class="st1" d="M381,140.6c-1.5-1.6-3.8-2.4-6.9-2.4c-4.5,0-9,0-13.5,0h-11.1l0.1-1.1c0.1-1.1,0.1-2.2,0.2-3.2
			c0.1-2.2,0.2-4.4,0.5-6.5c0.4-2.8-0.3-5.3-1.9-7.2c-1.7-1.9-4.4-3-7.5-3h0c-58.6,0.2-117.9,0.2-176.5,0h0c-3,0-5.7,1.1-7.4,3
			c-1.6,1.8-2.3,4.3-2,7c0.3,2.2,0.4,4.3,0.5,6.6c0,1,0.1,2.1,0.2,3.2l0.1,1.1h-10.3c-4.9,0-9.8,0-14.6,0c-2.8,0-5.1,0.9-6.6,2.4
			c-1.5,1.5-2.2,3.8-2.1,6.5c0.1,1.6,0.2,3.2,0.3,4.8l0.2,2.4c1.5,22.9,5.9,42.9,13.6,61.3c6.2,14.8,13.9,26.2,23.6,35
			c11.7,10.6,24.4,16.1,38.9,17c1.5,0.1,3.1,1.1,4,2c6.2,6.6,12.3,11.7,18.6,15.6c2,1.2,2.3,2.8,2.3,4.3c0,6.2,0,12.5,0,18.7v8.5
			c0,0.6,0,1.1-0.1,1.8l-0.1,2h-4c-2.8,0-5.7,0-8.6,0c-6.3,0-12.9-0.1-19.3,0.2c-12,0.5-21.2,10.1-21.5,22.4
			c-0.1,3.5-0.1,7-0.1,10.5c0,1.8,0,3.6,0,5.4c0,0.6,0,1.1-0.1,1.7l-0.1,1.9h-1c-1.1,0-2.1,0-3.1,0c-1,0-2,0-3,0
			c-1.2,0-2.4,0-3.6,0.1c-2.4,0.1-4.6,1.4-6,3.4c-1.4,2.1-1.7,4.7-0.9,7c1.4,3.8,3.9,5.3,9,5.3H344c0.2,0,0.5,0,0.8,0
			c0.5,0,1,0.1,1.4-0.1c0.4-0.1,0.8-0.3,1.1-0.4c1.4-0.5,2.9-1,3.8-1.9c3.1-3,2.5-6.5,1.5-8.9c-1.3-3-3.6-4.4-7.1-4.5
			c-2.1-0.1-4.2,0-6.4,0l-4,0v-1c0-2.1,0-4.2,0-6.2c0-4.5,0.1-8.7-0.1-13c-0.2-9.3-6.8-17.9-15.6-20.4c-2.7-0.8-5.7-1.2-9.2-1.2
			c-6.5-0.1-13.2-0.1-19.6-0.1c-2.6,0-5.2,0-7.8,0h-0.7l-0.5-1c-0.1-0.2-0.2-0.5-0.2-0.8l0-4.3c0-8.6-0.1-17.3,0-25.9
			c0-1.1,0.9-2.3,1.8-2.9c7-4.5,13.3-9.8,18.8-15.8c1.1-1.2,3-2.1,4.7-2.2c11.9-0.8,23-5,32.9-12.4c12.5-9.3,22.1-22.6,29.5-40.6
			c8-19.5,12.5-41.5,13.6-67.1C383.2,144.5,382.5,142.2,381,140.6z M184.3,248.3c-0.7-0.4-1.5-0.8-2.2-1.2c-1.6-0.9-3.2-1.7-4.8-2.8
			c-8.9-6-16.2-14.6-22.3-26.4c-6.7-13-11.2-27.7-14.1-46.2c-0.6-3.6-1-7.2-1.5-11c-0.2-1.7-0.4-3.5-0.7-5.3l-0.2-1.1h18.7l0.1,0.9
			c4.8,35.3,14,65.4,28.2,91.9l1.6,3L184.3,248.3z M310.1,336.6c3.8,0,6,0.6,7.4,2c1.4,1.4,2,3.6,2,7.3c0,4.9,0,9.9,0,14.8
			c0,0.2-0.1,0.4-0.1,0.6l-0.3,1.1H186.1l-0.2-1.4c-0.1-0.4-0.1-0.9-0.1-1.3l0-3c0-4.2,0-8.4,0-12.6c0.1-4.7,2.7-7.4,7.5-7.6
			c0.4,0,0.9,0,1.3,0H310.1z M239.8,320.5v-27.4l1.2,0.3c7.7,1.7,15.6,1.7,23.3,0l1.2-0.3v27.4H239.8z M278.7,269.7
			c-8.3,6-17.2,9-26,9c-8.9,0-17.8-3-26.1-9c-11.2-8.1-20.2-19-28.4-34.4c-11.7-21.8-19.4-46.7-23.6-76.1c-0.8-5.5-1.5-11-2.1-16.8
			c-0.3-2.6-0.7-5.3-1-8l-0.1-1.1h162.8l-0.2,1.1c-0.6,4-1.1,7.9-1.6,11.9c-1.2,8.5-2.3,17.3-3.9,25.8
			c-4.1,23.1-11.3,44.4-21.4,63.2C298.9,250.6,289.8,261.5,278.7,269.7z M366.5,155.4c-0.2,1.8-0.5,3.6-0.7,5.3
			c-0.5,3.8-0.9,7.8-1.6,11.7c-2.3,14.7-5.8,27.1-10.5,38.2c-6.7,15.6-14.9,26.4-25.7,33.8c-1.3,0.9-2.7,1.6-4,2.4l-0.8,0.4
			c-0.5,0.3-1,0.5-1.7,0.8c-0.4,0.1-0.7,0.3-1.2,0.5l-2.7,1.1l1.4-2.5c14.6-26.4,24-56.5,28.8-91.9l0.1-0.9h18.7L366.5,155.4z"/>
	</g>
	<g id="Company">
		<g class="st1">
			<g>
				<path d="M381.7,221.6c0-6.5-3.3-9.8-9.8-9.8c-9,0-18.1,0-27.1,0l-21.6,0v-77.1c0-7.6-3.2-10.8-10.7-10.8
					c-57.1,0-114.2,0-171.4,0c-7.5,0-10.7,3.2-10.7,10.8v229.6c0,7.6,3.2,10.9,10.9,10.9l54.1,0c7.3,0,10.8-3.4,10.8-10.8v-47.5
					h41.3V338c0,9,0,17.9,0,26.9c0,6.7,3.6,10.3,10.1,10.3c38,0,76,0,114,0c6.6,0,10.1-3.4,10.1-9.9
					C381.7,317.3,381.7,269.5,381.7,221.6z M305.8,357.8h-41.1v-47.6c0-7.5-3.2-10.8-10.7-10.8c-18.1,0-36.2,0-54.4,0
					c-7.3,0-10.6,3.3-10.6,10.6c0,9.6,0,19.1,0,28.8v18.9h-41.1V141.3h158V357.8z M364.3,357.8h-40.9V228.9h40.9V357.8z"/>
			</g>
			<g>
				<path d="M212.1,190.5c0,7.9-6.4,14.3-14.3,14.3c-7.9,0-14.2-6.4-14.2-14.3c0-5.7,3.3-10.5,8.1-12.8c0.2-0.1,0.4-0.2,0.5-0.2
					c0.1-0.1,0.3-0.1,0.4-0.2c0.2-0.1,0.5-0.2,0.7-0.2c1.4-0.4,2.8-0.7,4.3-0.7c5.6,0,10.5,3.2,13,7.9c0.1,0.2,0.2,0.3,0.2,0.5
					c0.1,0.1,0.1,0.3,0.2,0.4C211.7,186.8,212.1,188.6,212.1,190.5z"/>
				<path class="st2" d="M211,185.1c-0.1-0.1-0.1-0.3-0.2-0.4c-0.1-0.1-0.1-0.3-0.2-0.5c-2.3-4.7-7.2-8-12.8-8
					c-1.6,0-3.1,0.3-4.5,0.7c-0.2,0.1-0.5,0.2-0.7,0.2c-0.2,0.1-0.3,0.1-0.4,0.2c-0.2,0.1-0.4,0.2-0.5,0.2
					c-4.8,2.3-8.1,7.2-8.1,12.8c0,7.9,6.4,14.3,14.2,14.3c7.9,0,14.3-6.4,14.3-14.3C212.1,188.6,211.7,186.8,211,185.1z M203.6,197
					c-0.8,0.8-1.8,1.5-2.8,1.9c-1,0.4-2.1,0.7-3.2,0.7c-2.2,0-4.4-0.9-6-2.6c-1.7-1.7-2.6-3.8-2.6-6c0-2.2,0.9-4.4,2.6-6
					c1.7-1.6,3.8-2.6,6-2.6c2.2,0,4.4,0.9,6,2.6c1.7,1.6,2.6,3.8,2.6,6C206.2,193.2,205.3,195.4,203.6,197z"/>
			</g>
			<g>
				<path d="M270.2,190.5c0,7.9-6.4,14.3-14.3,14.3c-7.9,0-14.3-6.4-14.3-14.3c0-2.4,0.6-4.7,1.6-6.6c0.1-0.1,0.1-0.3,0.2-0.4
					c2.6-4.2,7.3-7.1,12.5-7.1c1.7,0,3.4,0.3,5,0.9c0.2,0.1,0.5,0.2,0.7,0.3c0.2,0.1,0.4,0.2,0.5,0.2c0.2,0.1,0.3,0.2,0.4,0.2
					C267.2,180.4,270.2,185.1,270.2,190.5z"/>
				<path class="st2" d="M262.8,178c-0.1-0.1-0.3-0.2-0.4-0.2c-0.2-0.1-0.4-0.2-0.5-0.2c-0.2-0.1-0.5-0.2-0.7-0.3
					c-1.6-0.6-3.3-1-5.1-1c-5.3,0-9.9,2.9-12.4,7.2c-0.1,0.1-0.2,0.3-0.2,0.4c-1,2-1.6,4.2-1.6,6.6c0,7.9,6.4,14.3,14.3,14.3
					c7.9,0,14.3-6.4,14.3-14.3C270.2,185.1,267.2,180.4,262.8,178z M262.1,197c-1.6,1.6-3.8,2.6-6,2.6c0,0,0,0,0,0
					c-2.2,0-4.4-0.9-6-2.6c-1.7-1.7-2.6-3.8-2.6-6c0-4.6,3.9-8.6,8.6-8.6h0c2.2,0,4.4,0.9,6,2.6c1.7,1.7,2.6,3.8,2.6,6
					S263.8,195.4,262.1,197z"/>
			</g>
			<g>
				<path d="M212.1,249.4c0,7.9-6.4,14.3-14.3,14.3c-7.9,0-14.2-6.4-14.2-14.3c0-7.9,6.4-14.3,14.2-14.3
					C205.7,235.2,212.1,241.6,212.1,249.4z"/>
				<path class="st2" d="M197.8,235.2c-7.9,0-14.2,6.4-14.2,14.3c0,7.9,6.4,14.3,14.2,14.3c7.9,0,14.3-6.4,14.3-14.3
					C212.1,241.6,205.7,235.2,197.8,235.2z M203.7,255.5c-1.6,1.7-3.8,2.6-6,2.6c-2.2,0.2-4.4-0.9-6-2.5c-1.7-1.6-2.6-3.8-2.6-6
					c0-4.6,3.9-8.6,8.5-8.7h0.1c4.6,0,8.5,3.9,8.6,8.5C206.2,251.7,205.3,253.8,203.7,255.5z"/>
			</g>
			<g>
				<path d="M270.2,249.4c0,7.9-6.4,14.3-14.3,14.3c-7.9,0-14.3-6.4-14.3-14.3c0-7.9,6.4-14.3,14.3-14.3
					C263.8,235.2,270.2,241.6,270.2,249.4z"/>
				<path class="st2" d="M256,235.2c-7.9,0-14.3,6.4-14.3,14.3c0,7.9,6.4,14.3,14.3,14.3c7.9,0,14.3-6.4,14.3-14.3
					C270.2,241.6,263.8,235.2,256,235.2z M262,255.7c-1.7,1.6-3.9,2.5-6,2.4c-4.7-0.1-8.6-4.1-8.5-8.7c0.1-4.6,4-8.5,8.5-8.5h0.2
					c2.3,0.1,4.4,1,6,2.7c1.6,1.7,2.5,3.8,2.4,6C264.6,251.9,263.7,254.1,262,255.7z"/>
			</g>
		</g>
		<g class="st1">
			<path d="M212.1,190.5c0,7.9-6.4,14.3-14.3,14.3c-7.9,0-14.2-6.4-14.2-14.3c0-5.7,3.3-10.5,8.1-12.8c0.2-0.1,0.4-0.2,0.5-0.2
				c0.1-0.1,0.3-0.1,0.4-0.2c0.2-0.1,0.5-0.2,0.7-0.2c1.4-0.5,2.9-0.7,4.5-0.7c5.6,0,10.5,3.2,12.8,8c0.1,0.2,0.2,0.3,0.2,0.5
				c0.1,0.1,0.1,0.3,0.2,0.4C211.7,186.8,212.1,188.6,212.1,190.5z"/>
		</g>
		<g class="st1">
			<path d="M270.2,190.5c0,7.9-6.4,14.3-14.3,14.3c-7.9,0-14.3-6.4-14.3-14.3c0-2.4,0.6-4.7,1.6-6.6c0.1-0.1,0.1-0.3,0.2-0.4
				c2.5-4.3,7.1-7.2,12.4-7.2c1.8,0,3.5,0.3,5.1,1c0.2,0.1,0.5,0.2,0.7,0.3c0.2,0.1,0.4,0.2,0.5,0.2c0.2,0.1,0.3,0.2,0.4,0.2
				C267.2,180.4,270.2,185.1,270.2,190.5z"/>
		</g>
		<g class="st1">
			<path d="M212.1,249.4c0,7.9-6.4,14.3-14.3,14.3c-7.9,0-14.2-6.4-14.2-14.3c0-7.9,6.4-14.3,14.2-14.3
				C205.7,235.2,212.1,241.6,212.1,249.4z"/>
		</g>
		<g class="st1">
			<path d="M270.2,249.4c0,7.9-6.4,14.3-14.3,14.3c-7.9,0-14.3-6.4-14.3-14.3c0-7.9,6.4-14.3,14.3-14.3
				C263.8,235.2,270.2,241.6,270.2,249.4z"/>
		</g>
	</g>
	<g id="Content">
		<g class="st1">
			<path d="M377.4,339.8l-0.1-113.2c0-11.4,0-22.7,0-34.1c0-1.9,0-3.9-0.5-5.6c-2.6-9-9-13.7-18.5-13.7l-137.6,0
				c-8.4,0-16.8,0-25.2,0.1c-10.2,0.2-17.9,8-17.9,18.2c0,13.7,0,27.3,0,41l0,19.1l0,72.5c0,10.4,0,20.8,0,31.2
				c0.1,9.7,8.1,17.6,17.9,17.6c0,0,0,0,0,0h54.7l67.5,0c14,0,28,0,42,0c1.8,0,3.6-0.3,5.2-0.9c7.7-2.6,12.4-9.1,12.5-17.4
				C377.4,349.7,377.4,344.7,377.4,339.8z M360.7,351.9c0,3.5-0.9,4.4-4.4,4.4l-73.2,0.1h-84.7c-3.4,0-4.3-0.9-4.3-4.3l0-157.7
				c0-3.7,0.9-4.6,4.5-4.6l157.5,0c1.6,0,2.7,0,3.6,0.9c0.9,0.9,0.9,2,0.9,3.5L360.7,351.9z"/>
		</g>
		<g class="st1">
			<path d="M336.4,157.2c0,1.5,0,3,0,4.8c-5.5-0.1-10.9-0.1-16.6,0c0-1.5,0-3,0-4.5c0-1.7,0-3.4,0-5c0-0.5,0-1.8-0.9-2.8
				c-1-1-2.3-1-2.8-1c-9.5,0-18.9,0-28.3,0l-126.1,0l-1.7,0c-1,0-1.9,0-2.8,0c-0.4,0-1.8-0.1-2.8,0.9c-1,1-1,2.4-1,2.9
				c0,3.5,0,6.9,0,10.3l0,103c0,13,0,26,0,38.9c0,0.9,0.1,2.1,1.1,3.1c1,0.9,2.2,1,3.1,1c1.7-0.1,3.4-0.1,5.1,0c1.2,0,2.4,0,3.8,0
				c-0.1,5.5,0,11,0,16.6h-4.6c-3,0-6,0-9-0.1c-8.5-0.4-16.1-8.6-16.1-17.5c-0.1-10.6,0-21.3,0-31.9l0-10.5l0-102.3
				c0-4,0-8.1,0-12.1c0-9.3,5.3-16.1,14.2-18.3c1.6-0.4,3.5-0.4,5.4-0.4h0.1c18.1,0,36.1,0,54.2,0l105.6,0c3.7,0,7.3,0.2,10.7,2.1
				c6.2,3.5,9.3,8.6,9.6,15.7C336.5,152.3,336.5,154.7,336.4,157.2z"/>
		</g>
		<g class="st1">
			<path d="M338.9,324.7c0,0.5,0,0.8,0,0.8c-0.1,0-0.4,0.1-0.9,0.1c-7.4,0-14.8,0-22.2,0l-90.8,0h-0.2c-1.2,0-2.3,0-3.5,0
				c-1.5,0-3.1,0-4.6,0c-0.4,0-0.6,0-0.7,0c0-0.1,0-0.3,0-0.7l0-15.4c0-0.5,0-0.9,0-1.1c0.2,0,0.5,0,1,0h120.4c0.9,0,1.4,0,1.4,0
				c0,0.2,0.1,0.6,0.1,1.5L338.9,324.7z"/>
		</g>
		<g class="st1">
			<path d="M312,281.7c-0.1,0-0.4,0.1-1,0.1l-93.7,0c-0.7,0-1.1,0-1.3,0c0-0.2,0-0.7,0-1.3l0-15c0-0.4,0-0.6,0-0.8
				c0.2,0,0.4,0,0.7,0h93.7c0.7,0,1.2,0,1.5,0c0,0.3,0.1,0.8,0.1,1.5l0,4.7c0,3.3,0,6.6,0,10C312,281.3,312,281.6,312,281.7z"/>
		</g>
		<g class="st1">
			<path d="M258.3,236.6c0,0.6,0,0.9,0,1.1c-0.2,0-0.6,0.1-1.2,0.1c-5.5,0-10.9,0-16.4,0h-24c-0.3,0-0.5,0-0.7,0c0-0.1,0-0.3,0-0.6
				c0-5.3,0-10.6,0-15.8c0-0.2,0-0.4,0-0.5c0.1,0,0.3,0,0.5,0c13.7,0,27.4,0,41,0c0.3,0,0.5,0,0.7,0c0,0.2,0,0.4,0,0.8
				C258.3,226.6,258.3,231.6,258.3,236.6z"/>
		</g>
	</g>
	<path id="Partnership" d="M420,181.4c-8.4-10.8-16.8-21.5-25.2-32.2c-8.9-11.3-22.6-13.7-34.9-6l-8.2,5.1
		c-5.1,3.2-10.1,6.3-15.2,9.4c-7.2,4.4-14.8,4.8-22.6,1.1c-3.4-1.6-6.7-3.2-10.1-4.9c-4.2-2.1-8.4-4.1-12.7-6.1
		c-12.1-5.6-23.9-5-34.9,2c-2.3,1.5-3.5,1.5-5.4,0.3c-1.2-0.8-2.5-1.4-3.8-2l-1.1-0.5c-11.1-5.3-22.7-5.9-34.6-1.6
		c-3.8,1.4-7.6,3-11.2,4.6c-1.6,0.7-3.1,1.4-4.7,2c-9,3.8-17.6,3.8-26.5,0c-4.8-2-9.5-4.1-14.3-6.1c-12.6-5.3-26-2.3-35,7.7
		c-10.2,11.3-20.4,22.7-30.5,34.1c-4.6,5.2-6.8,11.2-6.4,17.3c0.4,6.1,3.5,11.8,8.8,16.4c5,4.3,10,8.5,15,12.8l8.2,7
		c1.3,1.1,2.5,2.2,3.8,3.3l0.3,0.2c-1.1,1.1-2.1,2.2-3.2,3.3c-3.4,3.5-6.6,6.8-9.8,10.3c-8.6,9.7-8.1,23.2,1.2,32.1
		c2.4,2.3,5,4.2,7.8,6.1c0.9,0.6,1.7,1.2,2.6,1.8c-3.3,9.2-1.4,17.9,5.8,25.3c7.4,7.7,16,10.3,25.5,7.7c2.6,6.7,7.3,11.9,14.2,15.5
		c6.6,3.5,13.7,3.5,21.1,0c0.1,0.1,0.1,0.2,0.2,0.3c0.8,1.5,1.6,3,2.6,4.3c1.7,2.3,3.7,4.2,5.1,5.5c10.2,9.2,24.1,8.6,33.7-1.4
		c2.6-2.7,5.4-5.2,8.2-7.6c0.9-0.8,1.8-1.6,2.8-2.5c0,0,0,0,0.1,0.1c1.6,1.5,3.2,3,4.8,4.5c3.3,3.1,6.6,6.2,10,9.2
		c4.6,4.1,10.1,6.1,15.6,6.1c6.2,0,12.4-2.6,17.1-7.6c2.1-2.3,3.9-4.8,5.6-7.3c0.3-0.4,0.6-0.8,0.9-1.2c7.1,7.9,15.8,11.2,24.7,9.2
		c9.6-2.1,17.8-10.2,20.8-20.4c19.7-1,28-9.1,29.1-28.6c10.3-3.1,17.1-9.9,19.9-19.8c3.3-12.1-3.7-20.4-10.1-25.8l14.1-15.6
		c9.8-10.8,19.5-21.6,29.3-32.4C428.2,206.2,428.7,192.6,420,181.4z M308.4,250.3l-10.5,11.1l49,45.5c4.5,4.2,4.6,8.2,0.4,12.8
		c-2.4,2.6-4.7,4-6.9,4.2c-2.1,0.2-4.3-0.8-6.6-2.9l-42.6-39.4c-0.4-0.3-0.8-0.7-1.2-1.1l-2.1-1.8l-10.4,11l40.8,37.8
		c4.5,4.1,4.4,8.1-0.3,13.3c-2.1,2.3-4.2,3.5-6.4,3.6c-2,0.1-4.1-0.8-6.1-2.7c-8.6-7.9-17.2-15.8-25.8-23.8l-15.2-14.1l-10.5,11.3
		l20.5,18.9c4.3,4,4.5,8,0.6,12.3c-2.6,2.9-5.1,4.4-7.3,4.5c-2,0-4-0.8-6.1-2.7c-5.9-5.3-10.7-9.8-15.1-14.1
		c-0.2-0.2-0.4-0.9-0.4-1.1c2.4-7.2,1.4-15.2-2.7-21.8c-4.2-6.7-10.9-11.1-18.5-12l-2.4-0.3c-2.5-8.8-7-18.9-19.4-23
		c1.8-8.1-0.1-15.2-5.5-21.2c-4.3-4.7-10.3-10-19.3-10c-0.1,0-0.2,0-0.3,0c-2.4-11.6-9.5-19.3-20.6-22.3
		c-12.6-3.4-20.9,4.2-27.5,12.1l-1.1-0.9c-1.8-1.5-3.5-2.9-5.2-4.4c-7.1-6-14.1-12.1-21.2-18.1c-2.5-2.1-3.8-4.2-3.9-6.2
		c-0.1-2,0.8-4.1,2.9-6.4c10-11.3,20.1-22.6,30.2-33.9c4.4-4.9,10.9-6.3,17-3.8c3.5,1.4,6.9,2.9,10.4,4.4l4.2,1.8
		c12.8,5.4,25.8,5.4,38.7-0.1c1.5-0.6,3-1.3,4.5-1.9c3.3-1.5,6.7-2.9,10.1-4.2c8-3.1,15.6-2.8,23.1,0.8c-0.1,0.1-0.3,0.2-0.4,0.3
		c-1.6,1.1-3.3,2.3-4.9,3.4c-3.3,2.3-6.7,4.7-10,7.1c-10,7.4-12.3,20.2-5.5,31.1c4.5,7.2,10.7,11.7,17.9,13.2
		c6.8,1.4,14.1-0.2,20.1-4.4c1.2-0.9,2.6-1.6,3.9-2.4c1-0.6,2-1.1,3-1.7c4.4-2.8,9.4-3.3,15.2-1.6c1.1,0.3,2.1,0.8,2.9,1.4
		c4.8,3.6,9.6,7.2,14.4,10.7c12.1,8.9,24.6,18.2,36.4,27.8c8.7,7.1,17.1,15.1,25.2,22.8c3.3,3.1,6.5,6.2,9.9,9.3
		c2.2,2.1,3.4,4.2,3.5,6.3c0.1,2-0.8,4.2-2.8,6.3c-5.2,5.6-8.9,6-13.7,1.6c-9.9-9.1-19.8-18.2-29.6-27.4l-12.5-11.6
		c-0.5-0.5-1-0.9-1.6-1.4L308.4,250.3z M198,337.2c0.6-1.4,1.2-2.8,2-3.7c5.3-5.9,10.9-11.6,16.1-16.8c3.2-3.2,7.3-3.3,10.8-0.4
		c1.2,1,2.2,2,3.1,3c2.8,3.1,2.9,7.4,0.1,10.3c-5.4,5.9-11,11.7-16.6,17.3c-2.9,2.9-6.9,3.1-10.3,0.3c-4.2-3.4-5.3-5.4-5.9-8.3
		C197.6,338.3,197.8,337.8,198,337.2z M115.7,273c0.7-1.5,1.4-2.9,2.3-3.9c8.7-9.4,17.9-19,27.9-29.3c2-2,4.2-3,6.6-2.8
		c2.8,0.2,5.4,2,7.5,5c3.3,4.6,3.1,7.3-0.8,11.4c-8.7,9.2-18.5,19.6-28.3,29.4c-1.1,1.1-3.4,2-5.3,2.1c-4.3,0.1-9.9-5.2-10.8-10.2
		C115.2,274.1,115.4,273.6,115.7,273z M131.9,305.8c0.8-1.6,1.6-3.1,2.6-4.2c9.6-10.1,19.2-20.2,28.9-30.3l8.3-8.6
		c3.3-3.4,7.6-3.7,11.3-0.7c0.9,0.7,1.7,1.5,2.4,2.3c3.7,3.8,3.7,7.9,0.1,11.7c-12.4,13-24.8,25.9-37.2,38.8c-2.9,3-6,3.9-9.2,2.6
		c-3.7-1.5-7.2-5.9-8.1-9.9C131.3,307,131.6,306.4,131.9,305.8z M166.2,318.5l8.8-9.2c5.1-5.4,10.3-10.7,15.4-16.1c2-2,3.9-3,5.9-3
		c2.1,0,4.4,1.2,6.9,3.5c2.4,2.3,3.7,4.5,3.8,6.8c0.1,1.9-0.8,3.9-2.6,5.8c-9.8,10.4-17.9,18.8-25.4,26.3c-0.9,1-2.4,1.6-3.7,2.1
		c-0.4,0.2-0.7,0.3-1,0.5c-4.8-0.6-8-2.9-10.6-7.6C162.8,325.8,162,322.9,166.2,318.5z M407.2,206.5c-8.1,9-16.2,18-24.3,26.9
		l-18.3,20.2c-0.2,0.2-0.4,0.4-0.6,0.7c-2.6-2.4-5.2-4.8-7.7-7.1c-6.9-6.4-13.5-12.5-20.6-18.2c-15.1-11.9-30.6-23.4-46-33.9
		c-5.1-3.5-10.7-5.3-16.6-5.3c-5.3,0-10.9,1.5-16.5,4.5c-2.1,1.1-4.1,2.4-6.1,3.6c-1.3,0.8-2.6,1.6-3.9,2.4
		c-3.2,1.8-7.2,1.7-10.8-0.3c-3.5-2-5.6-5.4-5.7-9.1c0-2.6,1.1-4.7,3.5-6.3c2.9-2.1,5.8-4.1,8.8-6.2c7.3-5.2,14.9-10.6,22.5-15.7
		c5.7-3.8,12.1-4.2,18.6-1.3c4.7,2.1,9.3,4.4,13.9,6.6c3.3,1.6,6.6,3.3,10,4.8c12.7,6,25.2,5.3,37.1-1.8c4.8-2.9,9.6-5.9,14.4-8.9
		c3.1-1.9,6.2-3.9,9.3-5.8c5.6-3.5,10.5-2.6,14.5,2.6c8.3,10.6,16.6,21.3,25,31.9C411.8,196,411.6,201.6,407.2,206.5z"/>
	<g id="Gear">
		<path class="st1" d="M340.4,252.9c0-5.3-0.1-10.6-0.1-15.8v-0.5h0.1v-14.4c0-12,0-24,0-36.1c0-7.2-1.2-13.9-3.6-20.3
			c-7.7-20.2-28-34.3-49.4-34.4l-12.6,0c-8.5,0-17.1,0-25.8,0c-10.7,0-21.4,0-32,0c-9.6,0-18.5,2.6-26.5,7.7
			c-17.1,10.8-25.8,26.6-25.9,46.8c-0.1,19.4,0,39,0,58.1c0,13.6,0,27.1,0,40.7c0,13.5,2.7,26.1,8,37.5
			c9.9,21.1,25.8,36.2,47.2,44.9c19.9,8.1,40.6,8.6,61.5,1.6c13.6-4.6,25.6-12.4,35.5-23.1c15.1-16.4,23-35.5,23.5-57
			C340.5,276.6,340.5,264.6,340.4,252.9z M252.3,190.2L252.3,190.2c6.5,0,11.5,5.2,11.5,11.9l0,3.9c0,5.6,0,11.4,0,17.2
			c-0.1,5.3-3.7,9.9-8.8,11c-0.9,0.2-1.7,0.3-2.5,0.3c-4.5,0-8.4-2.5-10.2-6.6c-0.6-1.4-1-3.1-1-5.2c-0.1-2.4-0.1-4.8-0.1-7.2
			c0-1,0-2,0-3v-3.3c0-2.4,0-4.7,0-7.1C241.3,195.4,246.2,190.2,252.3,190.2z M325.8,286.1c-0.5,29.2-13.8,50.8-39.5,64.4
			c-11,5.8-22.3,8.8-33.7,8.8c-11.6,0-23.4-3.1-35.1-9.2c-13.5-7-23.9-17.8-31-32.2c-5-10.1-7.5-21.2-7.5-33v-99.2
			c0-22,16.5-39.1,38.3-39.8c6.2-0.2,12.5-0.1,18.6-0.1c2.8,0,5.7,0,8.6,0h0.4l0,0.4c0,0.2,0.1,0.5,0.1,0.7c0.1,0.5,0.1,0.9,0.1,1.4
			c0,2.9,0,5.9,0,8.8c0,5.7,0,11.5,0,17.2c0,1.4-0.3,2.4-2,3.1c-10.4,4.3-15.9,12.1-16.4,23c-0.4,7.2-0.3,15.2,0.1,24.4
			c0.5,11,8,20.1,19,23.1c10.2,2.8,21.7-1.4,27.8-10.3c2.9-4.1,4.4-8.7,4.5-13.6c0.2-8.2,0.3-15.7,0-23.1
			c-0.5-11.8-6.3-19.5-18-24.2l-0.3-0.1v-30.2l0.2-0.1c0.1,0,0.1-0.1,0.2-0.1c0.2-0.1,0.3-0.2,0.6-0.2c3,0,6,0,9.1-0.1
			c6.7-0.1,13.6-0.2,20.3,0.3c20.2,1.5,35.6,18.2,35.7,38.9c0,6,0.1,12,0.1,18C326.2,230.3,326.3,258.4,325.8,286.1z"/>
	</g>
	<g id="Settings" class="st1">
		<g>
			<path d="M374.9,259.9c-1.9-1.3-3.9-2.5-5.8-3.7c-1.1-0.7-2.3-1.4-3.4-2.2c-2.9-1.9-4.6-4.2-4.9-6.7c-0.3-2.5,0.9-5.2,3.3-7.8
				l2.3-2.3c2.6-2.6,5.2-5.3,7.7-8.1c5.8-6.3,7.2-13.4,4.4-21.2c-2.8-7.8-8.3-12.3-16.3-13.4c-3.8-0.5-7.7-0.7-11.5-0.8
				c-1.5-0.1-3-0.1-4.6-0.2c-2.6-0.1-4.9-1.3-6.4-3.3c-1.5-2-2-4.5-1.5-7c0.5-2.5,1.1-5,1.7-7.5c0.4-1.9,0.9-3.8,1.3-5.8
				c2.1-9.4-0.6-16.7-8.3-22.4c-7.3-5.4-14.9-5.8-23.3-1c-1.9,1.1-3.8,2.2-5.7,3.3c-1.8,1-3.5,2.1-5.3,3.1c-2.4,1.4-5,1.7-7.3,0.9
				c-2.3-0.8-4.1-2.7-5.2-5.2l-0.2-0.5c-1.4-3.4-2.8-6.8-4-10.3c-3.5-10.2-10.3-15.5-20.8-16.3c-9.7-0.7-18,4.1-21.5,12.5
				c-0.8,1.8-1.5,3.7-2.2,5.6c-0.6,1.6-1.3,3.2-1.9,4.9c-1.2,2.8-2.9,4.6-5.2,5.3c-2.2,0.7-4.7,0.1-7.2-1.6
				c-2.7-1.9-5.4-3.8-8.1-5.7l-4-2.8c-7.8-5.5-16.1-5.4-24.5,0.1c-7.1,4.7-10.2,11.6-9,20.5c0.4,3,0.9,6.1,1.4,9.1l0.4,2.6
				c0.5,2.8-0.1,5.1-1.6,6.6c-1.5,1.5-3.8,2.1-6.7,1.6c-2.5-0.4-5-0.9-7.5-1.4l-2.7-0.5c-8.9-1.7-17.2,1.7-22,9.2
				c-5.8,8.8-5.8,17-0.2,25c1.8,2.5,3.6,5.1,5.4,7.6c1.1,1.5,2.1,2.9,3.2,4.4c1.6,2.2,2.1,4.7,1.6,7c-0.5,2.3-2.2,4.3-4.6,5.6
				c-1.8,1-3.6,2-5.5,2.9c-2.3,1.2-4.7,2.5-7,3.8c-7.9,4.4-11.7,10.7-11.3,18.8c0.4,8.4,4.9,14.4,13.3,18.1c2.6,1.2,5.3,2.2,8,3.3
				c1.6,0.7,3.2,1.3,4.8,2c3.1,1.3,5.2,3.3,6.2,5.8c1,2.5,0.6,5.5-0.9,8.7c-0.8,1.7-1.7,3.3-2.5,5c-1.3,2.6-2.6,5.3-3.9,7.9
				c-2.9,6-3.1,12.8-0.4,18.8c2.6,5.8,7.7,10.2,13.9,12c3,0.8,6.7,0.9,10.6,0.2c3-0.5,5.9-1.7,8.8-2.8c1.3-0.5,2.6-1,3.9-1.4
				c2.6-0.9,5.1-0.8,7,0.5c1.9,1.2,3,3.3,3.4,6c0.3,2.3,0.4,4.6,0.6,6.9c0.2,3,0.5,6.1,0.9,9.1c1.2,8.2,6,13.9,14.4,16.8
				c8.3,2.9,15.5,1.4,21.4-4.4c2.1-2.1,4-4.3,5.9-6.5c1-1.1,1.9-2.2,2.9-3.3c2.2-2.5,4.5-3.7,6.8-3.7c0.2,0,0.3,0,0.5,0
				c2.4,0.2,4.7,1.8,6.5,4.7l0.7,1.1c1.8,2.8,3.6,5.5,5.4,8.3c5.3,7.8,12.7,11,22,9.4c11.6-2,18.3-8.7,19.4-19.5
				c0.3-2.9,0.7-5.8,1.1-8.7l0.3-2c0.4-3,1.7-5.3,3.8-6.6c2-1.3,4.6-1.4,7.4-0.5c1.7,0.6,3.5,1.2,5.2,1.8c2.4,0.9,4.9,1.7,7.3,2.5
				c1.9,0.6,3.9,1,5.8,1.4c0.9,0.2,1.8,0.4,2.6,0.6c7.7-0.3,12.9-4.7,17-9c6.7-7,7.9-16.4,3.2-24.5c-0.9-1.7-2-3.3-3-4.9
				c-0.5-0.8-1-1.7-1.5-2.5c-1.7-2.8-2.2-5.2-1.3-7.1c0.8-1.9,2.9-3.2,6.2-3.9l4.8-1c2.7-0.5,5.5-1.1,8.2-1.6
				c9.6-2,14.7-7.7,16.8-18.5C385.7,272.8,382.2,264.7,374.9,259.9z M370.8,277.2l0,0.3c-0.6,3.1-1.3,6.7-5.9,7.6l-1.1,0.2
				c-4.8,0.9-9.8,1.9-14.7,3.2c-6.2,1.7-11.2,5.9-13.8,11.6c-2.5,5.7-2.3,12.3,0.6,18c1,2,2.3,4,3.5,5.9c0.7,1.1,1.4,2.3,2.1,3.4
				c2.1,3.6,1.3,5.8-1,8.7c-3.6,4.5-7.7,5.4-12.8,3c-2.8-1.3-5.7-2.2-8.6-3.2c-1.1-0.4-2.2-0.7-3.2-1.1c-6-2-12.6-1.3-18.1,2.1
				c-5.5,3.4-9.2,9-10.1,15.3c-0.5,3.9-1.1,7.8-1.6,11.7c-0.6,4.3-2,5.8-6.8,7c-1.3,0.3-2.5,0.5-3.5,0.5c-2.5,0-4.2-1.1-5.9-3.5
				l-0.2-0.3c-2.3-3.4-4.7-6.8-6.8-10.4c-3.2-5.5-8.6-8.8-15.2-9.4c-7.1-0.7-14.3,2.2-18.8,7.3l-1.1,1.3c-2.2,2.5-4.4,5.1-6.6,7.7
				c-2.2,2.7-5,3.4-8.3,2.2c-3.4-1.2-5.1-3.3-5.3-6.7c-0.3-5.3-0.7-10.9-1.5-16.3c-0.9-6.1-4.3-11.5-9.5-14.7
				c-5.3-3.2-11.8-3.9-17.9-1.9c-1.8,0.6-3.6,1.3-5.3,1.9c-1.7,0.6-3.5,1.3-5.2,1.9c-3.7,1.3-5.9,0.6-8.9-2.7
				c-2.8-3.1-3.3-6-1.5-9.2c1-1.8,1.9-3.7,2.9-5.5c1.4-2.7,2.8-5.4,4.3-8c2.9-4.9,3.2-11.7,0.8-18.2c-2.3-6.3-6.8-11.1-12-12.9
				c-3.4-1.2-6.8-2.6-10-4c-1.7-0.7-3.3-1.4-5-2.1c-1.9-0.8-4.4-2.2-4.5-5.7c-0.1-2.7,1.2-4.8,3.8-6.2c1.2-0.6,2.3-1.3,3.5-1.9
				c3.1-1.7,6.3-3.5,9.5-5.1c5.4-2.7,9.6-8.5,11.2-15.3c1.5-6.6,0.1-13.1-3.7-17.8c-2.2-2.8-4.3-5.7-6.3-8.6c-0.7-1-1.4-2-2.1-2.9
				c-2.7-3.9-2.3-5.9,0.2-10c2.3-3.8,5.8-3.6,8.3-3.1l2.2,0.5c3.2,0.7,6.6,1.4,9.9,1.8c5.6,0.7,11.1-1,15.4-4.8
				c4.6-4,7.3-10,7.4-16.4c-0.2-1.2-0.3-2.4-0.5-3.7c-0.5-3.4-1-7.3-1.8-11.2c-0.9-4.3,1.8-6.4,4-8.1c2-1.5,4.5-1.3,7.3,0.7
				c2.4,1.7,4.8,3.3,7.2,5l5.6,3.9c5.4,3.8,12,4.9,18.2,3.1c6.1-1.8,11.1-6.2,13.6-12.3c1.5-3.6,3-7.2,4.3-10.7
				c1.2-3.3,3.5-4.8,6.6-4.7l0.9,0c3.3,0.1,7,0.2,8.6,4.8c1.2,3.2,2.4,6.4,3.7,9.6l1.4,3.6c2.6,6.8,7.4,11.7,13.5,13.8
				c6.1,2.1,12.9,1.3,19.2-2.2c3.7-2.1,7.3-4.2,11-6.4c2.9-1.7,5.5-1.7,8,0.1c2.9,2,4,4.7,3.3,8c-0.2,1.1-0.4,2.1-0.7,3.2
				c-0.6,3.1-1.3,6.2-2.2,9.3c-2,6.7-0.7,13.7,3.5,19.3c4.3,5.8,11.2,9.2,18.5,9.2h0.1c2.4,0,4.9,0.1,7.3,0.3
				c1.8,0.1,3.6,0.2,5.3,0.3c3.1,0.1,5.5,2,6.3,5.2c0.5,1.9-0.2,4.6-1.6,6.3c-2.9,3.5-6.3,7-10.1,10.5c-5,4.6-7.5,11.9-6.7,19.1
				c0.8,6.9,4.5,12.5,10.4,15.8c2,1.1,4,2.4,5.9,3.7c1.2,0.8,2.4,1.6,3.7,2.3C370.3,271.8,371.4,274.1,370.8,277.2z"/>
		</g>
		<g>
			<path d="M253.9,206.6h-0.2c-12.5,0-24.2,4.9-33.2,13.9c-9.1,9.1-14.2,21.2-14.1,34c0.1,26,21.4,47.2,47.4,47.5c0.1,0,0.3,0,0.4,0
				c12.3,0,24-4.9,32.9-13.7c9.1-9.1,14.2-21.1,14.2-33.9C301.3,228.2,280,206.8,253.9,206.6z M277.7,278.5
				c-6.4,6.4-14.9,9.9-23.8,9.9h-0.2c-18.6-0.1-33.8-15.4-33.8-34.1c0-18.7,15.2-33.8,33.9-33.8c0,0,0,0,0,0
				c18.7,0,33.9,15.2,33.9,33.8C287.8,263.5,284.2,272.1,277.7,278.5z"/>
		</g>
	</g>
</g>
<g id="Layer_2" class="st0">
	<g id="Teams_home">
		<g class="st1">
			<g>
				<path d="M384.2,215.1l-0.2-0.5c-0.6-1.6-1.5-3.8-3.2-5.1c-27.2-20.4-54.3-40.8-81.5-61.2l-40.1-30.1c-5-3.7-8.4-3.7-13.4,0.1
					l-24.1,18.1c-14.5,10.9-28.9,21.7-43.4,32.6l-0.4,0.3c-17.5,13.2-35.1,26.3-52.6,39.4c-3.2,2.4-4.7,5.1-4.7,8.6
					c0,27.3,0,54.7,0,82l0,70.4c0,6.6,3.1,9.7,9.8,9.7h79.7c0.2,0,0.4,0,0.6,0l83.2,0l0.4,0c0.2,0,0.3,0,0.5,0h79.5
					c7.5,0,10.4-2.9,10.4-10.5l0-150.6C384.6,217.3,384.6,216.2,384.2,215.1z M368.1,262.9v100l-231.2,0v-17.3c0-41,0-82.1,0-123.2
					v-1.5l1.1-1c20.5-15.3,40.7-30.5,61-45.7l53.6-40.2L355,210.8c1.2,0.9,2.4,1.8,3.6,2.8c2.8,2.1,5.2,3.9,7.7,5.6l1.8,1.3v1.3
					c0,0.2,0,0.4,0,0.8C368.1,236.1,368.1,249.5,368.1,262.9z"/>
			</g>
		</g>
		<g class="st1">
			<path d="M317.7,308.7c-0.4-1-0.8-2.1-1.3-3.1c0-0.1-0.1-0.2-0.1-0.3l-0.3-0.9c-0.1-0.1-1.1-1.9-2.8-4.3c-1.2-1.7-2.7-3.7-4.5-5.7
				c-0.2-0.2-0.5-0.5-0.7-0.8c-0.5-0.6-1-1.1-1.5-1.6l-0.1-0.1l-0.2-0.2c-0.6-0.5-1.2-1-1.8-1.5c-1.8-1.5-3.6-2.7-5.5-3.9
				c-1.3-0.8-2.6-1.5-4-2.1c-0.4-0.2-0.8-0.3-1.1-0.5c-0.9-0.4-1.9-0.8-2.9-1.1c-0.4-0.1-0.9-0.3-1.3-0.4c-0.3-0.1-0.6-0.2-0.9-0.2
				c-1.5-0.4-3-0.8-4.5-1c0,0,0,0,0,0c-2.7-0.5-5.6-0.7-8.6-0.7h-0.6c-17,0.1-31,0.1-44,0c-0.2,0-0.3,0-0.5,0c-1.1,0-2.2,0-3.2,0.1
				c-3.5,0.2-6.8,0.8-10,1.7c-0.6,0.1-1.1,0.3-1.7,0.5c-0.1,0-0.2,0-0.2,0.1c0,0,0,0,0,0c-1,0.3-2,0.7-3,1.1
				c-0.6,0.2-1.1,0.5-1.6,0.7l0,0c-0.7,0.3-1.4,0.7-2.1,1.1c-0.9,0.5-1.8,1-2.6,1.6c-1,0.6-2,1.3-3,2.1c-0.5,0.3-0.9,0.7-1.3,1
				s-0.8,0.7-1.2,1c-0.2,0.2-0.5,0.5-0.7,0.7c-0.5,0.5-1.1,1.1-1.6,1.7c-2.8,3.1-6.3,7.5-8.6,12.2c-0.3,0.6-0.5,1.2-0.7,1.7
				c-2.3,5.4-3.4,11.2-3.3,17.6c0,5.9,0,11.8,0,17.7h1.7h1.7h6.2h1.7h1.7c0-6,0-12,0-17.9c0-5.2,1.3-10.1,3.9-15
				c0.7-1.4,1.5-2.7,2.4-3.9c1.4-1.9,2.9-3.7,4.5-5.2c1.4-1.2,2.8-2.3,4.4-3.2c3.2-1.9,6.9-3.2,11.1-3.8c0.8-0.1,1.6-0.2,2.3-0.2
				h19.9c0.8,0,1.6,0,2.4,0c0.8,0,1.5,0,2.3,0h8.7c1.5,0,2.9,0,4.4,0c2.8,0,5.6,0,8.4,0c1.5,0,2.9,0,4.3,0c2.6,0,5.3,0.5,7.8,1.3
				c1.3,0.4,2.6,0.9,3.9,1.6c1.4,0.6,2.7,1.4,4,2.3c6.7,4.6,11.6,11.9,12.7,20.1c0,0.1,0,0.1,0,0.2c0.3,2.1,0.4,4,0.5,5.9v17.9h1.7
				h1.7h6.9h1.7h1.7c0-6,0-12,0-18.1C320.4,318.9,319.5,313.6,317.7,308.7z"/>
			<path d="M218.1,245.1c0.3,0.8,0.6,1.5,1,2.3c0.2,0.6,0.5,1.1,0.8,1.6c0.3,0.5,0.6,1,0.9,1.6l0.7,1.1c1,1.6,2.2,3,3.4,4.4
				c0.1,0.1,0.2,0.2,0.3,0.3c0.2,0.2,0.4,0.5,0.6,0.7c0.1,0.1,0.2,0.2,0.3,0.3c0.4,0.4,0.8,0.8,1.3,1.2c3.1,2.9,6.7,5.2,10.7,6.9
				c1.4,0.6,2.9,1.1,4.4,1.6h0c1.6,0.5,3.2,0.8,4.9,1c0.5,0.1,1,0.1,1.5,0.2c0,0,0,0,0,0c1.1,0.1,2.3,0.2,3.4,0.2h0.3c0,0,0,0,0.1,0
				c1,0,2.1,0,3.1-0.1c2.3-0.2,4.5-0.6,6.6-1.1c4.9-1.3,9.6-3.7,13.7-6.9c0.5-0.3,0.9-0.7,1.4-1.1c0.5-0.4,0.9-0.8,1.3-1.2
				c0.2-0.2,0.5-0.4,0.7-0.7c1.4-1.4,2.7-3,3.9-4.6c0.3-0.5,0.7-0.9,1-1.4c0.3-0.5,0.6-1,0.9-1.5c0.5-0.8,0.9-1.7,1.3-2.5
				c0.1,0,0.1-0.1,0.1-0.2c2.3-4.8,3.5-10.1,3.5-15.5c0-6-1.3-11.6-3.6-16.6c0,0,0,0,0,0c-0.6-1.2-1.2-2.3-1.8-3.4
				c-0.3-0.5-0.6-1-0.9-1.5c-0.3-0.5-0.7-0.9-1-1.4c-1.2-1.7-2.6-3.2-4.1-4.7c-0.4-0.4-0.8-0.8-1.3-1.1c-0.5-0.4-0.9-0.8-1.4-1.2
				c-2.6-2.1-5.6-3.8-8.7-5.1c-2.1-0.9-4.3-1.6-6.6-2.1c-2.3-0.5-4.7-0.8-7.2-0.8h-0.6c-1.3,0-2.6,0.1-3.9,0.2
				c-1.8,0.2-3.6,0.5-5.3,0.9c-1.7,0.4-3.4,0.9-5,1.6c-4.3,1.7-8.1,4.1-11.3,7.1c-0.5,0.4-0.9,0.8-1.3,1.3c-0.4,0.4-0.8,0.8-1.2,1.2
				c-0.2,0.2-0.3,0.4-0.5,0.6c-1.2,1.4-2.3,2.9-3.2,4.4c-0.1,0.1-0.1,0.1-0.1,0.2c-0.3,0.4-0.5,0.9-0.8,1.3
				c-0.3,0.6-0.6,1.1-0.9,1.7c-0.6,1.2-1.2,2.5-1.6,3.8c-1.4,3.8-2.2,7.7-2.3,11.7C215.3,234.9,216.2,240.2,218.1,245.1
				C218.1,245.1,218.1,245.1,218.1,245.1z M234.2,215.4c0.4-0.5,0.8-1,1.3-1.4c3-3.1,6.9-5.4,11.2-6.6c0.1,0,0.2-0.1,0.3-0.1
				c1.1-0.3,2.2-0.5,3.4-0.6c0.5-0.1,0.9-0.1,1.5-0.1c0.3-0.1,0.7-0.1,1.1-0.1c0,0,0.1,0,0.1,0c0.3,0,0.7,0,1,0
				c0.9,0,1.8,0.1,2.7,0.3c4,0.6,7.6,2.2,10.7,4.6c0.5,0.3,0.9,0.7,1.4,1.1c0.1,0.1,0.3,0.2,0.4,0.3c0.2,0.2,0.5,0.4,0.7,0.6
				c0.1,0.1,0.1,0.2,0.2,0.2c1.7,1.7,3.1,3.7,4.1,5.7c0.1,0.1,0.1,0.2,0.2,0.3c0.3,0.6,0.6,1.3,0.9,1.9c0.3,1,0.7,1.9,0.9,3
				c0.5,1.9,0.7,3.9,0.7,5.9c0,1.8-0.2,3.6-0.7,5.3c0,0.1,0,0.3-0.1,0.4c-0.2,0.9-0.5,1.7-0.8,2.6c-0.3,0.8-0.6,1.6-1,2.3
				c-0.6,1.2-1.3,2.4-2.1,3.4c-0.7,1-1.5,1.9-2.4,2.7c-0.4,0.5-0.9,0.9-1.4,1.2c-0.5,0.4-0.9,0.8-1.4,1.1c-3.2,2.4-6.9,4-11,4.5
				c-0.8,0.1-1.7,0.2-2.6,0.2c-0.2,0-0.4,0-0.6,0h-0.5c-1.2,0-2.3-0.1-3.4-0.3c-0.1,0-0.2,0-0.2,0c-1.6-0.3-3.2-0.7-4.7-1.3
				c-3-1.1-5.7-3-8.1-5.3c-0.1-0.1-0.1-0.1-0.2-0.2c-0.4-0.5-0.9-0.9-1.2-1.4c-0.5-0.5-0.9-1-1.3-1.6c-2.1-2.9-3.4-6.3-4-9.8
				c-0.3-1.5-0.4-3-0.4-4.5c0-1.4,0.1-2.7,0.4-4c0.6-3.3,1.9-6.4,3.8-9.1C233.4,216.4,233.7,215.9,234.2,215.4z"/>
		</g>
	</g>
	<g id="Team_home_2">
		<g id="Teams_home_1_" class="st1">
			<g>
				<g>
					<path d="M384.9,214.1l-0.2-0.5c-0.6-1.6-1.5-3.8-3.2-5.1c-27.2-20.4-54.3-40.8-81.5-61.2l-40.1-30.1c-5-3.7-8.4-3.7-13.4,0.1
						l-24.1,18.1c-14.5,10.9-28.9,21.7-43.4,32.6l-0.4,0.3c-17.5,13.2-35.1,26.3-52.6,39.4c-3.2,2.4-4.7,5.1-4.7,8.6
						c0,27.3,0,54.7,0,82l0,70.4c0,6.6,3.1,9.7,9.8,9.7h79.7c0.2,0,0.4,0,0.6,0l83.2,0l0.4,0c0.2,0,0.3,0,0.5,0h79.5
						c7.5,0,10.4-2.9,10.4-10.5l0-150.6C385.3,216.4,385.3,215.2,384.9,214.1z M368.8,261.9v100l-231.2,0v-17.3c0-41,0-82.1,0-123.2
						v-1.5l1.1-1c20.5-15.3,40.7-30.5,61-45.7l53.6-40.2l102.5,76.9c1.2,0.9,2.4,1.8,3.6,2.8c2.8,2.1,5.2,3.9,7.7,5.6l1.8,1.3v1.3
						c0,0.2,0,0.4,0,0.8C368.8,235.1,368.8,248.5,368.8,261.9z"/>
				</g>
			</g>
		</g>
		<g class="st1">
			<path d="M355.9,304.1c-0.1-0.1-0.1-0.2-0.1-0.3l-0.3-0.8c-0.1-0.1-1-1.7-2.6-4c-1.5-2.2-3.7-5-6.2-7.6l-0.3-0.3
				c-7.8-7.1-17.3-10.6-28.2-10.6H318c-2.7,0-5.3,0-7.8,0c0.7,0.5,1.5,1,2.2,1.6c0.6,0.5,1.3,1,1.9,1.6c0.1,0.1,0.3,0.2,0.4,0.4
				l0.3,0.3c1.7,1.7,3.3,3.6,4.6,5.4c0.5,0.6,0.9,1.1,1.2,1.6c0.3,0.3,0.5,0.6,0.7,0.9c0.2,0.3,0.4,0.5,0.5,0.8
				c12,1.1,22.7,11.2,24.3,23.4c0.3,2,0.4,3.7,0.5,5.5v16.6h1.6h1.6h6.4h1.6h1.6c0-5.6,0-11.2,0-16.7
				C359.6,315.2,358.4,309.4,355.9,304.1z"/>
			<path d="M284.1,206.2c1.7,1.3,3.4,2.7,4.8,4.2c0.4,0.4,0.8,0.8,1.2,1.3c0.4,0.5,0.8,0.9,1.1,1.4c1.8-0.5,3.7-0.7,5.7-0.7h0.1
				c6,0,11.5,2.3,15.7,6.5c4.2,4.2,6.5,9.9,6.4,15.9c-0.1,12.1-10,22-22.2,22c0,0,0,0-0.1,0c-1.4,0-2.8-0.1-4.2-0.4
				c-0.3,0.5-0.7,1-1,1.4c-0.4,0.5-0.7,0.9-1.1,1.4c-0.6,0.7-1.2,1.3-1.8,1.9c-1.1,1.1-2.3,2.2-3.5,3.1c-0.5,0.4-1,0.8-1.5,1.1
				c-0.5,0.4-1,0.7-1.6,1c0.4,0.2,0.8,0.4,1.2,0.5c4.3,1.8,8.9,2.8,13.6,2.8h0c9.2,0,18.2-3.7,24.8-10.3c6.4-6.4,10-14.9,10-23.8
				c0-19.8-15.2-35.2-34.6-35.2c-6.1,0-11.4,1.4-16.1,3.7c0.6,0.3,1.2,0.7,1.7,1C283.2,205.5,283.6,205.9,284.1,206.2z"/>
			<path d="M192.8,284c0.1-0.1,0.3-0.3,0.4-0.4c0.6-0.6,1.3-1.1,1.9-1.6c0.7-0.6,1.4-1.1,2.2-1.6c-2.5,0-5.1,0-7.8,0h-0.2
				c-11,0-20.5,3.6-28.2,10.6l-0.3,0.3c-2.4,2.5-4.6,5.4-6.2,7.6c-1.6,2.2-2.5,3.8-2.6,4l-0.3,0.8c0,0.1-0.1,0.2-0.1,0.3
				c-2.5,5.4-3.7,11.2-3.7,17.7c0,5.6,0,11.2,0,16.7h1.6h1.6h6.4h1.6h1.6V322c0-1.7,0.2-3.5,0.5-5.5c1.6-12.2,12.3-22.3,24.3-23.4
				c0.2-0.3,0.4-0.5,0.5-0.8c0.2-0.3,0.4-0.6,0.7-0.9c0.4-0.5,0.7-1.1,1.2-1.6c1.3-1.7,2.9-3.6,4.6-5.4L192.8,284z"/>
			<path d="M210.6,269.7L210.6,269.7c4.7,0,9.3-1,13.6-2.8c0.4-0.2,0.8-0.4,1.2-0.5c-0.5-0.3-1.1-0.7-1.6-1c-0.5-0.4-1-0.7-1.5-1.1
				c-1.2-0.9-2.4-2-3.5-3.1c-0.6-0.6-1.2-1.3-1.8-1.9c-0.4-0.5-0.8-0.9-1.1-1.4c-0.4-0.5-0.7-0.9-1-1.4c-1.4,0.3-2.7,0.4-4.2,0.4
				c0,0-0.1,0-0.1,0c-12.2,0-22.2-9.9-22.2-22c0-6.1,2.3-11.7,6.4-15.9c4.1-4.2,9.7-6.5,15.7-6.5h0.1c2,0,3.9,0.3,5.7,0.7
				c0.4-0.5,0.7-0.9,1.1-1.4c0.4-0.5,0.8-0.9,1.2-1.3c1.5-1.5,3.1-3,4.8-4.2c0.5-0.4,1-0.7,1.5-1c0.5-0.4,1.1-0.7,1.7-1
				c-4.6-2.4-10-3.7-16.1-3.7c-19.4,0-34.6,15.4-34.6,35.2c0,8.9,3.5,17.3,10,23.8C192.4,266,201.5,269.7,210.6,269.7z"/>
			<path d="M312.6,304.1c0-0.1-0.1-0.2-0.1-0.3l-0.3-0.8c-0.1-0.1-1-1.7-2.6-4c-1.1-1.6-2.5-3.4-4.2-5.3c-0.2-0.2-0.4-0.5-0.6-0.7
				c-0.5-0.5-0.9-1-1.4-1.5l-0.1-0.1l-0.2-0.2c-0.5-0.5-1.1-1-1.6-1.4c-1.6-1.4-3.3-2.5-5.1-3.6c-1.2-0.7-2.4-1.4-3.7-1.9
				c-0.4-0.2-0.7-0.3-1-0.4c-0.9-0.4-1.8-0.7-2.7-1c-0.4-0.1-0.8-0.3-1.2-0.4c-0.3-0.1-0.5-0.2-0.8-0.2c-1.4-0.4-2.7-0.7-4.1-1
				c0,0,0,0,0,0c-2.5-0.5-5.2-0.7-7.9-0.7h-0.6c-15.7,0.1-28.7,0.1-40.8,0c-0.2,0-0.3,0-0.5,0c-1,0-2,0-3,0.1
				c-3.2,0.2-6.3,0.7-9.3,1.6c-0.5,0.1-1.1,0.3-1.6,0.5c-0.1,0-0.2,0-0.2,0.1c0,0,0,0,0,0c-0.9,0.3-1.9,0.6-2.8,1
				c-0.5,0.2-1,0.5-1.5,0.6l0,0c-0.6,0.3-1.3,0.6-1.9,1c-0.8,0.4-1.6,0.9-2.4,1.5c-0.9,0.6-1.9,1.2-2.8,1.9
				c-0.4,0.3-0.8,0.6-1.2,0.9c-0.4,0.3-0.8,0.6-1.1,0.9c-0.2,0.2-0.4,0.5-0.6,0.7c-0.5,0.5-1,1-1.5,1.6c-2.6,2.8-5.9,6.9-7.9,11.3
				c-0.3,0.5-0.5,1.1-0.6,1.6c-2.1,5-3.1,10.4-3.1,16.3c0,5.5,0,11,0,16.4h1.6h1.6h5.7h1.6h1.6c0-5.5,0-11.1,0-16.6
				c0-4.8,1.2-9.4,3.6-13.9c0.7-1.3,1.4-2.5,2.2-3.6c1.3-1.8,2.6-3.4,4.2-4.8c1.3-1.1,2.6-2.2,4.1-3c3-1.8,6.4-3,10.2-3.5
				c0.7-0.1,1.5-0.2,2.2-0.2h18.5c0.7,0,1.5,0,2.2,0c0.7,0,1.4,0,2.1,0h8.1c1.4,0,2.7,0,4.1,0c2.6,0,5.2,0,7.8,0c1.4,0,2.7,0,4,0
				c2.4,0,4.9,0.4,7.2,1.2c1.2,0.4,2.4,0.9,3.6,1.5c1.3,0.6,2.5,1.3,3.7,2.1c6.2,4.3,10.7,11,11.8,18.6c0,0.1,0,0.1,0,0.2
				c0.3,2,0.4,3.7,0.4,5.5v16.6h1.6h1.6h6.4h1.6h1.6c0-5.6,0-11.2,0-16.7c0-5.4-0.8-10.3-2.5-14.9C313.5,306,313.1,305,312.6,304.1z
				"/>
			<path d="M224.3,216.5c-0.3,0.4-0.5,0.8-0.7,1.2c-0.3,0.5-0.6,1-0.8,1.5c-0.6,1.1-1.1,2.3-1.5,3.5c-1.3,3.5-2.1,7.2-2.2,10.8
				c-0.2,5.1,0.7,10,2.4,14.5c0,0,0,0,0,0.1c0.3,0.7,0.6,1.4,0.9,2.1c0.2,0.5,0.5,1,0.8,1.5c0.3,0.5,0.5,1,0.8,1.5l0.7,1.1
				c0.9,1.5,2,2.8,3.2,4.1c0.1,0.1,0.2,0.2,0.3,0.3c0.2,0.2,0.4,0.4,0.5,0.6c0.1,0.1,0.2,0.2,0.3,0.3c0.4,0.4,0.8,0.8,1.2,1.1
				c2.9,2.6,6.3,4.8,9.9,6.3c1.3,0.6,2.7,1,4.1,1.5h0c1.5,0.4,3,0.7,4.5,1c0.5,0.1,0.9,0.1,1.4,0.2c0,0,0,0,0,0
				c1.1,0.1,2.1,0.2,3.2,0.2h0.3c0,0,0,0,0.1,0c0.9,0,1.9,0,2.8-0.1c2.1-0.2,4.1-0.5,6.1-1.1c4.6-1.2,8.9-3.4,12.7-6.4
				c0.4-0.3,0.8-0.7,1.3-1c0.4-0.4,0.8-0.7,1.2-1.1c0.2-0.2,0.5-0.4,0.6-0.6c1.3-1.3,2.5-2.8,3.6-4.3c0.3-0.4,0.6-0.9,0.9-1.3
				c0.3-0.5,0.6-0.9,0.9-1.4c0.5-0.8,0.9-1.5,1.2-2.4c0.1,0,0.1-0.1,0.1-0.2c2.2-4.4,3.3-9.3,3.3-14.3c0-5.5-1.2-10.8-3.4-15.4
				c0,0,0,0,0,0c-0.5-1.1-1.1-2.2-1.7-3.2c-0.3-0.5-0.6-0.9-0.9-1.4c-0.3-0.5-0.6-0.9-0.9-1.3c-1.1-1.5-2.4-3-3.8-4.3
				c-0.4-0.4-0.8-0.7-1.2-1.1c-0.4-0.4-0.9-0.7-1.3-1.1c-2.4-1.9-5.2-3.5-8.1-4.7c-1.9-0.8-4-1.5-6.1-1.9c-2.2-0.5-4.4-0.7-6.7-0.7
				h-0.6c-1.2,0-2.4,0.1-3.6,0.2c-1.7,0.2-3.3,0.5-4.9,0.8c-1.6,0.4-3.2,0.9-4.6,1.5c-4,1.6-7.5,3.8-10.4,6.6
				c-0.4,0.4-0.8,0.7-1.2,1.2c-0.4,0.4-0.7,0.7-1.1,1.1c-0.2,0.2-0.3,0.4-0.5,0.5c-1.1,1.3-2.1,2.7-3,4.1
				C224.4,216.4,224.3,216.4,224.3,216.5z M236.4,220.5c0.4-0.5,0.7-0.9,1.2-1.3c2.8-2.9,6.3-5,10.3-6.1c0.1,0,0.2-0.1,0.3-0.1
				c1-0.3,2.1-0.5,3.2-0.5c0.4-0.1,0.9-0.1,1.4-0.1c0.3-0.1,0.7-0.1,1-0.1c0,0,0.1,0,0.1,0c0.3,0,0.6,0,1,0c0.9,0,1.7,0.1,2.5,0.3
				c3.7,0.5,7.1,2,10,4.3c0.4,0.3,0.9,0.6,1.3,1.1c0.1,0.1,0.3,0.2,0.4,0.3c0.2,0.2,0.4,0.4,0.6,0.6c0.1,0.1,0.1,0.2,0.2,0.2
				c1.5,1.6,2.8,3.4,3.8,5.3c0.1,0.1,0.1,0.2,0.2,0.3c0.3,0.6,0.6,1.2,0.8,1.8c0.3,0.9,0.6,1.8,0.8,2.8c0.5,1.8,0.6,3.6,0.6,5.5
				c0,1.7-0.2,3.3-0.6,4.9c0,0.1,0,0.3-0.1,0.4c-0.2,0.8-0.4,1.6-0.7,2.4c-0.3,0.7-0.5,1.5-0.9,2.1c-0.5,1.1-1.2,2.2-1.9,3.2
				c-0.7,0.9-1.4,1.8-2.2,2.5c-0.4,0.4-0.8,0.8-1.3,1.1c-0.4,0.4-0.8,0.7-1.3,1c-2.9,2.2-6.4,3.7-10.2,4.2c-0.8,0.1-1.6,0.2-2.4,0.2
				c-0.2,0-0.4,0-0.6,0h-0.4c-1.1,0-2.2-0.1-3.2-0.3c-0.1,0-0.2,0-0.2,0c-1.5-0.3-3-0.6-4.4-1.2c-2.8-1.1-5.3-2.7-7.5-4.9
				c-0.1-0.1-0.1-0.1-0.2-0.2c-0.4-0.4-0.8-0.8-1.1-1.3c-0.4-0.5-0.8-1-1.2-1.5c-1.9-2.7-3.2-5.8-3.7-9.1c-0.3-1.4-0.4-2.7-0.4-4.2
				c0-1.3,0.1-2.5,0.4-3.7c0.5-3.1,1.7-6,3.5-8.4C235.7,221.5,236,221,236.4,220.5z"/>
		</g>
	</g>
	<g id="Team_Image">
		<path class="st1" d="M250.7,378.9c-70.4,0-127.6-57.2-127.6-127.6s57.2-127.6,127.6-127.6S378.3,181,378.3,251.3
			S321.1,378.9,250.7,378.9z M250.7,137.9c-62.5,0-113.4,50.9-113.4,113.4s50.9,113.4,113.4,113.4s113.4-50.9,113.4-113.4
			S313.3,137.9,250.7,137.9z"/>
		<g id="Teams_home_2_" class="st1">
			<g>
				<path d="M316.5,286.4c-0.4-1-0.8-2.1-1.3-3.1c0-0.1-0.1-0.2-0.1-0.3l-0.3-0.9c-0.1-0.1-1.1-1.9-2.8-4.3
					c-1.2-1.7-2.7-3.7-4.5-5.7c-0.2-0.2-0.5-0.5-0.7-0.8c-0.5-0.6-1-1.1-1.5-1.6l-0.1-0.1l-0.2-0.2c-0.6-0.5-1.2-1-1.8-1.5
					c-1.8-1.5-3.6-2.7-5.5-3.9c-1.3-0.8-2.6-1.5-4-2.1c-0.4-0.2-0.8-0.3-1.1-0.5c-0.9-0.4-1.9-0.8-2.9-1.1c-0.4-0.1-0.9-0.3-1.3-0.4
					c-0.3-0.1-0.6-0.2-0.9-0.2c-1.5-0.4-3-0.8-4.5-1c0,0,0,0,0,0c-2.7-0.5-5.6-0.7-8.6-0.7h-0.6c-17,0.1-31,0.1-44,0
					c-0.2,0-0.3,0-0.5,0c-1.1,0-2.2,0-3.2,0.1c-3.5,0.2-6.8,0.8-10,1.7c-0.6,0.1-1.1,0.3-1.7,0.5c-0.1,0-0.2,0-0.2,0.1c0,0,0,0,0,0
					c-1,0.3-2,0.7-3,1.1c-0.6,0.2-1.1,0.5-1.6,0.7l0,0c-0.7,0.3-1.4,0.7-2.1,1.1c-0.9,0.5-1.8,1-2.6,1.6c-1,0.6-2,1.3-3,2.1
					c-0.5,0.3-0.9,0.7-1.3,1s-0.8,0.7-1.2,1c-0.2,0.2-0.5,0.5-0.7,0.7c-0.5,0.5-1.1,1.1-1.6,1.7c-2.8,3.1-6.3,7.5-8.6,12.2
					c-0.3,0.6-0.5,1.2-0.7,1.7c-2.3,5.4-3.4,11.2-3.3,17.6c0,5.9,0,11.8,0,17.7h1.7h1.7h6.2h1.7h1.7c0-6,0-12,0-17.9
					c0-5.2,1.3-10.1,3.9-15c0.7-1.4,1.5-2.7,2.4-3.9c1.4-1.9,2.9-3.7,4.5-5.2c1.4-1.2,2.8-2.3,4.4-3.2c3.2-1.9,6.9-3.2,11.1-3.8
					c0.8-0.1,1.6-0.2,2.3-0.2H246c0.8,0,1.6,0,2.4,0c0.8,0,1.5,0,2.3,0h8.7c1.5,0,2.9,0,4.4,0c2.8,0,5.6,0,8.4,0c1.5,0,2.9,0,4.3,0
					c2.6,0,5.3,0.5,7.8,1.3c1.3,0.4,2.6,0.9,3.9,1.6c1.4,0.6,2.7,1.4,4,2.3c6.7,4.6,11.6,11.9,12.7,20.1c0,0.1,0,0.1,0,0.2
					c0.3,2.1,0.4,4,0.5,5.9v17.9h1.7h1.7h6.9h1.7h1.7c0-6,0-12,0-18.1C319.2,296.6,318.3,291.3,316.5,286.4z"/>
				<path d="M216.9,222.9c0.3,0.8,0.6,1.5,1,2.3c0.2,0.6,0.5,1.1,0.8,1.6c0.3,0.5,0.6,1,0.9,1.6l0.7,1.1c1,1.6,2.2,3,3.4,4.4
					c0.1,0.1,0.2,0.2,0.3,0.3c0.2,0.2,0.4,0.5,0.6,0.7c0.1,0.1,0.2,0.2,0.3,0.3c0.4,0.4,0.8,0.8,1.3,1.2c3.1,2.9,6.7,5.2,10.7,6.9
					c1.4,0.6,2.9,1.1,4.4,1.6h0c1.6,0.5,3.2,0.8,4.9,1c0.5,0.1,1,0.1,1.5,0.2c0,0,0,0,0,0c1.1,0.1,2.3,0.2,3.4,0.2h0.3
					c0,0,0,0,0.1,0c1,0,2.1,0,3.1-0.1c2.3-0.2,4.5-0.6,6.6-1.1c4.9-1.3,9.6-3.7,13.7-6.9c0.5-0.3,0.9-0.7,1.4-1.1
					c0.5-0.4,0.9-0.8,1.3-1.2c0.2-0.2,0.5-0.4,0.7-0.7c1.4-1.4,2.7-3,3.9-4.6c0.3-0.5,0.7-0.9,1-1.4c0.3-0.5,0.6-1,0.9-1.5
					c0.5-0.8,0.9-1.7,1.3-2.5c0.1,0,0.1-0.1,0.1-0.2c2.3-4.8,3.5-10.1,3.5-15.5c0-6-1.3-11.6-3.6-16.6c0,0,0,0,0,0
					c-0.6-1.2-1.2-2.3-1.8-3.4c-0.3-0.5-0.6-1-0.9-1.5c-0.3-0.5-0.7-0.9-1-1.4c-1.2-1.7-2.6-3.2-4.1-4.7c-0.4-0.4-0.8-0.8-1.3-1.1
					c-0.5-0.4-0.9-0.8-1.4-1.2c-2.6-2.1-5.6-3.8-8.7-5.1c-2.1-0.9-4.3-1.6-6.6-2.1c-2.3-0.5-4.7-0.8-7.2-0.8h-0.6
					c-1.3,0-2.6,0.1-3.9,0.2c-1.8,0.2-3.6,0.5-5.3,0.9c-1.7,0.4-3.4,0.9-5,1.6c-4.3,1.7-8.1,4.1-11.3,7.1c-0.5,0.4-0.9,0.8-1.3,1.3
					c-0.4,0.4-0.8,0.8-1.2,1.2c-0.2,0.2-0.3,0.4-0.5,0.6c-1.2,1.4-2.3,2.9-3.2,4.4c-0.1,0.1-0.1,0.1-0.1,0.2
					c-0.3,0.4-0.5,0.9-0.8,1.3c-0.3,0.6-0.6,1.1-0.9,1.7c-0.6,1.2-1.2,2.5-1.6,3.8c-1.4,3.8-2.2,7.7-2.3,11.7
					C214,212.7,215,217.9,216.9,222.9C216.9,222.8,216.9,222.8,216.9,222.9z M232.9,193.1c0.4-0.5,0.8-1,1.3-1.4
					c3-3.1,6.9-5.4,11.2-6.6c0.1,0,0.2-0.1,0.3-0.1c1.1-0.3,2.2-0.5,3.4-0.6c0.5-0.1,0.9-0.1,1.5-0.1c0.3-0.1,0.7-0.1,1.1-0.1
					c0,0,0.1,0,0.1,0c0.3,0,0.7,0,1,0c0.9,0,1.8,0.1,2.7,0.3c4,0.6,7.6,2.2,10.7,4.6c0.5,0.3,0.9,0.7,1.4,1.1
					c0.1,0.1,0.3,0.2,0.4,0.3c0.2,0.2,0.5,0.4,0.7,0.6c0.1,0.1,0.1,0.2,0.2,0.2c1.7,1.7,3.1,3.7,4.1,5.7c0.1,0.1,0.1,0.2,0.2,0.3
					c0.3,0.6,0.6,1.3,0.9,1.9c0.3,1,0.7,1.9,0.9,3c0.5,1.9,0.7,3.9,0.7,5.9c0,1.8-0.2,3.6-0.7,5.3c0,0.1,0,0.3-0.1,0.4
					c-0.2,0.9-0.5,1.7-0.8,2.6c-0.3,0.8-0.6,1.6-1,2.3c-0.6,1.2-1.3,2.4-2.1,3.4c-0.7,1-1.5,1.9-2.4,2.7c-0.4,0.5-0.9,0.9-1.4,1.2
					c-0.5,0.4-0.9,0.8-1.4,1.1c-3.2,2.4-6.9,4-11,4.5c-0.8,0.1-1.7,0.2-2.6,0.2c-0.2,0-0.4,0-0.6,0h-0.5c-1.2,0-2.3-0.1-3.4-0.3
					c-0.1,0-0.2,0-0.2,0c-1.6-0.3-3.2-0.7-4.7-1.3c-3-1.1-5.7-3-8.1-5.3c-0.1-0.1-0.1-0.1-0.2-0.2c-0.4-0.5-0.9-0.9-1.2-1.4
					c-0.5-0.5-0.9-1-1.3-1.6c-2.1-2.9-3.4-6.3-4-9.8c-0.3-1.5-0.4-3-0.4-4.5c0-1.4,0.1-2.7,0.4-4c0.6-3.3,1.9-6.4,3.8-9.1
					C232.1,194.2,232.5,193.6,232.9,193.1z"/>
			</g>
		</g>
	</g>
	<g id="Team_Image_1_">
		<path class="st1" d="M250.7,378.9c-70.4,0-127.6-57.2-127.6-127.6s57.2-127.6,127.6-127.6S378.3,181,378.3,251.3
			S321.1,378.9,250.7,378.9z M250.7,137.9c-62.5,0-113.4,50.9-113.4,113.4s50.9,113.4,113.4,113.4s113.4-50.9,113.4-113.4
			S313.3,137.9,250.7,137.9z"/>
		<g class="st1">
			<path d="M353.2,285.6c-0.1-0.1-0.1-0.2-0.1-0.3l-0.3-0.8c-0.1-0.1-1-1.7-2.6-4c-1.5-2.2-3.7-5-6.2-7.6l-0.3-0.3
				c-7.8-7.1-17.3-10.6-28.2-10.6h-0.2c-2.7,0-5.3,0-7.8,0c0.7,0.5,1.5,1,2.2,1.6c0.6,0.5,1.3,1,1.9,1.6c0.1,0.1,0.3,0.2,0.4,0.4
				l0.3,0.3c1.7,1.7,3.3,3.6,4.6,5.4c0.5,0.6,0.9,1.1,1.2,1.6c0.3,0.3,0.5,0.6,0.7,0.9c0.2,0.3,0.4,0.5,0.5,0.8
				c12,1.1,22.7,11.2,24.3,23.4c0.3,2,0.4,3.7,0.5,5.5v16.6h1.6h1.6h6.4h1.6h1.6c0-5.6,0-11.2,0-16.7
				C356.9,296.8,355.7,291,353.2,285.6z"/>
			<path d="M281.5,187.8c1.7,1.3,3.4,2.7,4.8,4.2c0.4,0.4,0.8,0.8,1.2,1.3c0.4,0.5,0.8,0.9,1.1,1.4c1.8-0.5,3.7-0.7,5.7-0.7h0.1
				c6,0,11.5,2.3,15.7,6.5c4.2,4.2,6.5,9.9,6.4,15.9c-0.1,12.1-10,22-22.2,22c0,0,0,0-0.1,0c-1.4,0-2.8-0.1-4.2-0.4
				c-0.3,0.5-0.7,1-1,1.4c-0.4,0.5-0.7,0.9-1.1,1.4c-0.6,0.7-1.2,1.3-1.8,1.9c-1.1,1.1-2.3,2.2-3.5,3.1c-0.5,0.4-1,0.8-1.5,1.1
				c-0.5,0.4-1,0.7-1.6,1c0.4,0.2,0.8,0.4,1.2,0.5c4.3,1.8,8.9,2.8,13.6,2.8h0c9.2,0,18.2-3.7,24.8-10.3c6.4-6.4,10-14.9,10-23.8
				c0-19.8-15.2-35.2-34.6-35.2c-6.1,0-11.4,1.4-16.1,3.7c0.6,0.3,1.2,0.7,1.7,1C280.5,187.1,281,187.4,281.5,187.8z"/>
			<path d="M190.2,265.6c0.1-0.1,0.3-0.3,0.4-0.4c0.6-0.6,1.3-1.1,1.9-1.6c0.7-0.6,1.4-1.1,2.2-1.6c-2.5,0-5.1,0-7.8,0h-0.2
				c-11,0-20.5,3.6-28.2,10.6l-0.3,0.3c-2.4,2.5-4.6,5.4-6.2,7.6c-1.6,2.2-2.5,3.8-2.6,4l-0.3,0.8c0,0.1-0.1,0.2-0.1,0.3
				c-2.5,5.4-3.7,11.2-3.7,17.7c0,5.6,0,11.2,0,16.7h1.6h1.6h6.4h1.6h1.6v-16.6c0-1.7,0.2-3.5,0.5-5.5c1.6-12.2,12.3-22.3,24.3-23.4
				c0.2-0.3,0.4-0.5,0.5-0.8c0.2-0.3,0.4-0.6,0.7-0.9c0.4-0.5,0.7-1.1,1.2-1.6c1.3-1.7,2.9-3.6,4.6-5.4L190.2,265.6z"/>
			<path d="M208,251.3L208,251.3c4.7,0,9.3-1,13.6-2.8c0.4-0.2,0.8-0.4,1.2-0.5c-0.5-0.3-1.1-0.7-1.6-1c-0.5-0.4-1-0.7-1.5-1.1
				c-1.2-0.9-2.4-2-3.5-3.1c-0.6-0.6-1.2-1.3-1.8-1.9c-0.4-0.5-0.8-0.9-1.1-1.4c-0.4-0.5-0.7-0.9-1-1.4c-1.4,0.3-2.7,0.4-4.2,0.4
				c0,0-0.1,0-0.1,0c-12.2,0-22.2-9.9-22.2-22c0-6.1,2.3-11.7,6.4-15.9c4.1-4.2,9.7-6.5,15.7-6.5h0.1c2,0,3.9,0.3,5.7,0.7
				c0.4-0.5,0.7-0.9,1.1-1.4c0.4-0.5,0.8-0.9,1.2-1.3c1.5-1.5,3.1-3,4.8-4.2c0.5-0.4,1-0.7,1.5-1c0.5-0.4,1.1-0.7,1.7-1
				c-4.6-2.4-10-3.7-16.1-3.7c-19.4,0-34.6,15.4-34.6,35.2c0,8.9,3.5,17.3,10,23.8C189.8,247.5,198.8,251.3,208,251.3z"/>
			<path d="M309.9,285.6c0-0.1-0.1-0.2-0.1-0.3l-0.3-0.8c-0.1-0.1-1-1.7-2.6-4c-1.1-1.6-2.5-3.4-4.2-5.3c-0.2-0.2-0.4-0.5-0.6-0.7
				c-0.5-0.5-0.9-1-1.4-1.5l-0.1-0.1l-0.2-0.2c-0.5-0.5-1.1-1-1.6-1.4c-1.6-1.4-3.3-2.5-5.1-3.6c-1.2-0.7-2.4-1.4-3.7-1.9
				c-0.4-0.2-0.7-0.3-1-0.4c-0.9-0.4-1.8-0.7-2.7-1c-0.4-0.1-0.8-0.3-1.2-0.4c-0.3-0.1-0.5-0.2-0.8-0.2c-1.4-0.4-2.7-0.7-4.1-1
				c0,0,0,0,0,0c-2.5-0.5-5.2-0.7-7.9-0.7h-0.6c-15.7,0.1-28.7,0.1-40.8,0c-0.2,0-0.3,0-0.5,0c-1,0-2,0-3,0.1
				c-3.2,0.2-6.3,0.7-9.3,1.6c-0.5,0.1-1.1,0.3-1.6,0.5c-0.1,0-0.2,0-0.2,0.1c0,0,0,0,0,0c-0.9,0.3-1.9,0.6-2.8,1
				c-0.5,0.2-1,0.5-1.5,0.6l0,0c-0.6,0.3-1.3,0.6-1.9,1c-0.8,0.4-1.6,0.9-2.4,1.5c-0.9,0.6-1.9,1.2-2.8,1.9
				c-0.4,0.3-0.8,0.6-1.2,0.9c-0.4,0.3-0.8,0.6-1.1,0.9c-0.2,0.2-0.4,0.5-0.6,0.7c-0.5,0.5-1,1-1.5,1.6c-2.6,2.8-5.9,6.9-7.9,11.3
				c-0.3,0.5-0.5,1.1-0.6,1.6c-2.1,5-3.1,10.4-3.1,16.3c0,5.5,0,11,0,16.4h1.6h1.6h5.7h1.6h1.6c0-5.5,0-11.1,0-16.6
				c0-4.8,1.2-9.4,3.6-13.9c0.7-1.3,1.4-2.5,2.2-3.6c1.3-1.8,2.6-3.4,4.2-4.8c1.3-1.1,2.6-2.2,4.1-3c3-1.8,6.4-3,10.2-3.5
				c0.7-0.1,1.5-0.2,2.2-0.2h18.5c0.7,0,1.5,0,2.2,0c0.7,0,1.4,0,2.1,0h8.1c1.4,0,2.7,0,4.1,0c2.6,0,5.2,0,7.8,0c1.4,0,2.7,0,4,0
				c2.4,0,4.9,0.4,7.2,1.2c1.2,0.4,2.4,0.9,3.6,1.5c1.3,0.6,2.5,1.3,3.7,2.1c6.2,4.3,10.7,11,11.8,18.6c0,0.1,0,0.1,0,0.2
				c0.3,2,0.4,3.7,0.4,5.5v16.6h1.6h1.6h6.4h1.6h1.6c0-5.6,0-11.2,0-16.7c0-5.4-0.8-10.3-2.5-14.9
				C310.8,287.5,310.4,286.6,309.9,285.6z"/>
			<path d="M221.6,198.1c-0.3,0.4-0.5,0.8-0.7,1.2c-0.3,0.5-0.6,1-0.8,1.5c-0.6,1.1-1.1,2.3-1.5,3.5c-1.3,3.5-2.1,7.2-2.2,10.8
				c-0.2,5.1,0.7,10,2.4,14.5c0,0,0,0,0,0.1c0.3,0.7,0.6,1.4,0.9,2.1c0.2,0.5,0.5,1,0.8,1.5c0.3,0.5,0.5,1,0.8,1.5l0.7,1.1
				c0.9,1.5,2,2.8,3.2,4.1c0.1,0.1,0.2,0.2,0.3,0.3c0.2,0.2,0.4,0.4,0.5,0.6c0.1,0.1,0.2,0.2,0.3,0.3c0.4,0.4,0.8,0.8,1.2,1.1
				c2.9,2.6,6.3,4.8,9.9,6.3c1.3,0.6,2.7,1,4.1,1.5h0c1.5,0.4,3,0.7,4.5,1c0.5,0.1,0.9,0.1,1.4,0.2c0,0,0,0,0,0
				c1.1,0.1,2.1,0.2,3.2,0.2h0.3c0,0,0,0,0.1,0c0.9,0,1.9,0,2.8-0.1c2.1-0.2,4.1-0.5,6.1-1.1c4.6-1.2,8.9-3.4,12.7-6.4
				c0.4-0.3,0.8-0.7,1.3-1c0.4-0.4,0.8-0.7,1.2-1.1c0.2-0.2,0.5-0.4,0.6-0.6c1.3-1.3,2.5-2.8,3.6-4.3c0.3-0.4,0.6-0.9,0.9-1.3
				c0.3-0.5,0.6-0.9,0.9-1.4c0.5-0.8,0.9-1.5,1.2-2.4c0.1,0,0.1-0.1,0.1-0.2c2.2-4.4,3.3-9.3,3.3-14.3c0-5.5-1.2-10.8-3.4-15.4
				c0,0,0,0,0,0c-0.5-1.1-1.1-2.2-1.7-3.2c-0.3-0.5-0.6-0.9-0.9-1.4c-0.3-0.5-0.6-0.9-0.9-1.3c-1.1-1.5-2.4-3-3.8-4.3
				c-0.4-0.4-0.8-0.7-1.2-1.1c-0.4-0.4-0.9-0.7-1.3-1.1c-2.4-1.9-5.2-3.5-8.1-4.7c-1.9-0.8-4-1.5-6.1-1.9c-2.2-0.5-4.4-0.7-6.7-0.7
				h-0.6c-1.2,0-2.4,0.1-3.6,0.2c-1.7,0.2-3.3,0.5-4.9,0.8c-1.6,0.4-3.2,0.9-4.6,1.5c-4,1.6-7.5,3.8-10.4,6.6
				c-0.4,0.4-0.8,0.7-1.2,1.2c-0.4,0.4-0.7,0.7-1.1,1.1c-0.2,0.2-0.3,0.4-0.5,0.5c-1.1,1.3-2.1,2.7-3,4.1
				C221.7,197.9,221.7,198,221.6,198.1z M233.8,202.1c0.4-0.5,0.7-0.9,1.2-1.3c2.8-2.9,6.3-5,10.3-6.1c0.1,0,0.2-0.1,0.3-0.1
				c1-0.3,2.1-0.5,3.2-0.5c0.4-0.1,0.9-0.1,1.4-0.1c0.3-0.1,0.7-0.1,1-0.1c0,0,0.1,0,0.1,0c0.3,0,0.6,0,1,0c0.9,0,1.7,0.1,2.5,0.3
				c3.7,0.5,7.1,2,10,4.3c0.4,0.3,0.9,0.6,1.3,1.1c0.1,0.1,0.3,0.2,0.4,0.3c0.2,0.2,0.4,0.4,0.6,0.6c0.1,0.1,0.1,0.2,0.2,0.2
				c1.5,1.6,2.8,3.4,3.8,5.3c0.1,0.1,0.1,0.2,0.2,0.3c0.3,0.6,0.6,1.2,0.8,1.8c0.3,0.9,0.6,1.8,0.8,2.8c0.5,1.8,0.6,3.6,0.6,5.5
				c0,1.7-0.2,3.3-0.6,4.9c0,0.1,0,0.3-0.1,0.4c-0.2,0.8-0.4,1.6-0.7,2.4c-0.3,0.7-0.5,1.5-0.9,2.1c-0.5,1.1-1.2,2.2-1.9,3.2
				c-0.7,0.9-1.4,1.8-2.2,2.5c-0.4,0.4-0.8,0.8-1.3,1.1c-0.4,0.4-0.8,0.7-1.3,1c-2.9,2.2-6.4,3.7-10.2,4.2c-0.8,0.1-1.6,0.2-2.4,0.2
				c-0.2,0-0.4,0-0.6,0h-0.4c-1.1,0-2.2-0.1-3.2-0.3c-0.1,0-0.2,0-0.2,0c-1.5-0.3-3-0.6-4.4-1.2c-2.8-1.1-5.3-2.7-7.5-4.9
				c-0.1-0.1-0.1-0.1-0.2-0.2c-0.4-0.4-0.8-0.8-1.1-1.3c-0.4-0.5-0.8-1-1.2-1.5c-1.9-2.7-3.2-5.8-3.7-9.1c-0.3-1.4-0.4-2.7-0.4-4.2
				c0-1.3,0.1-2.5,0.4-3.7c0.5-3.1,1.7-6,3.5-8.4C233,203,233.4,202.5,233.8,202.1z"/>
		</g>
	</g>
	<g id="Teams">
		<g class="st1">
			<path d="M354.6,274.8c-0.1-0.1-0.1-0.2-0.1-0.3l-0.3-0.8c-0.1-0.1-1-1.7-2.6-4c-1.5-2.2-3.7-5-6.2-7.6l-0.3-0.3
				c-7.8-7.1-17.3-10.6-28.2-10.6h-0.2c-2.7,0-5.3,0-7.8,0c0.7,0.5,1.5,1,2.2,1.6c0.6,0.5,1.3,1,1.9,1.6c0.1,0.1,0.3,0.2,0.4,0.4
				l0.3,0.3c1.7,1.7,3.3,3.6,4.6,5.4c0.5,0.6,0.9,1.1,1.2,1.6c0.3,0.3,0.5,0.6,0.7,0.9c0.2,0.3,0.4,0.5,0.5,0.8
				c12,1.1,22.7,11.2,24.3,23.4c0.3,2,0.4,3.7,0.5,5.5v16.6h1.6h1.6h6.4h1.6h1.6c0-5.6,0-11.2,0-16.7
				C358.3,286,357.1,280.2,354.6,274.8z"/>
			<path d="M282.9,177c1.7,1.3,3.4,2.7,4.8,4.2c0.4,0.4,0.8,0.8,1.2,1.3c0.4,0.5,0.8,0.9,1.1,1.4c1.8-0.5,3.7-0.7,5.7-0.7h0.1
				c6,0,11.5,2.3,15.7,6.5c4.2,4.2,6.5,9.9,6.4,15.9c-0.1,12.1-10,22-22.2,22c0,0,0,0-0.1,0c-1.4,0-2.8-0.1-4.2-0.4
				c-0.3,0.5-0.7,1-1,1.4c-0.4,0.5-0.7,0.9-1.1,1.4c-0.6,0.7-1.2,1.3-1.8,1.9c-1.1,1.1-2.3,2.2-3.5,3.1c-0.5,0.4-1,0.8-1.5,1.1
				c-0.5,0.4-1,0.7-1.6,1c0.4,0.2,0.8,0.4,1.2,0.5c4.3,1.8,8.9,2.8,13.6,2.8h0c9.2,0,18.2-3.7,24.8-10.3c6.4-6.4,10-14.9,10-23.8
				c0-19.8-15.2-35.2-34.6-35.2c-6.1,0-11.4,1.4-16.1,3.7c0.6,0.3,1.2,0.7,1.7,1C281.9,176.3,282.4,176.6,282.9,177z"/>
			<path d="M191.6,254.8c0.1-0.1,0.3-0.3,0.4-0.4c0.6-0.6,1.3-1.1,1.9-1.6c0.7-0.6,1.4-1.1,2.2-1.6c-2.5,0-5.1,0-7.8,0h-0.2
				c-11,0-20.5,3.6-28.2,10.6l-0.3,0.3c-2.4,2.5-4.6,5.4-6.2,7.6c-1.6,2.2-2.5,3.8-2.6,4l-0.3,0.8c0,0.1-0.1,0.2-0.1,0.3
				c-2.5,5.4-3.7,11.2-3.7,17.7c0,5.6,0,11.2,0,16.7h1.6h1.6h6.4h1.6h1.6v-16.6c0-1.7,0.2-3.5,0.5-5.5c1.6-12.2,12.3-22.3,24.3-23.4
				c0.2-0.3,0.4-0.5,0.5-0.8c0.2-0.3,0.4-0.6,0.7-0.9c0.4-0.5,0.7-1.1,1.2-1.6c1.3-1.7,2.9-3.6,4.6-5.4L191.6,254.8z"/>
			<path d="M209.4,240.5L209.4,240.5c4.7,0,9.3-1,13.6-2.8c0.4-0.2,0.8-0.4,1.2-0.5c-0.5-0.3-1.1-0.7-1.6-1c-0.5-0.4-1-0.7-1.5-1.1
				c-1.2-0.9-2.4-2-3.5-3.1c-0.6-0.6-1.2-1.3-1.8-1.9c-0.4-0.5-0.8-0.9-1.1-1.4c-0.4-0.5-0.7-0.9-1-1.4c-1.4,0.3-2.7,0.4-4.2,0.4
				c0,0-0.1,0-0.1,0c-12.2,0-22.2-9.9-22.2-22c0-6.1,2.3-11.7,6.4-15.9c4.1-4.2,9.7-6.5,15.7-6.5h0.1c2,0,3.9,0.3,5.7,0.7
				c0.4-0.5,0.7-0.9,1.1-1.4c0.4-0.5,0.8-0.9,1.2-1.3c1.5-1.5,3.1-3,4.8-4.2c0.5-0.4,1-0.7,1.5-1c0.5-0.4,1.1-0.7,1.7-1
				c-4.6-2.4-10-3.7-16.1-3.7c-19.4,0-34.6,15.4-34.6,35.2c0,8.9,3.5,17.3,10,23.8C191.2,236.7,200.2,240.5,209.4,240.5z"/>
			<path d="M311.4,274.8c0-0.1-0.1-0.2-0.1-0.3l-0.3-0.8c-0.1-0.1-1-1.7-2.6-4c-1.1-1.6-2.5-3.4-4.2-5.3c-0.2-0.2-0.4-0.5-0.6-0.7
				c-0.5-0.5-0.9-1-1.4-1.5l-0.1-0.1l-0.2-0.2c-0.5-0.5-1.1-1-1.6-1.4c-1.6-1.4-3.3-2.5-5.1-3.6c-1.2-0.7-2.4-1.4-3.7-1.9
				c-0.4-0.2-0.7-0.3-1-0.4c-0.9-0.4-1.8-0.7-2.7-1c-0.4-0.1-0.8-0.3-1.2-0.4c-0.3-0.1-0.5-0.2-0.8-0.2c-1.4-0.4-2.7-0.7-4.1-1
				c0,0,0,0,0,0c-2.5-0.5-5.2-0.7-7.9-0.7h-0.6c-15.7,0.1-28.7,0.1-40.8,0c-0.2,0-0.3,0-0.5,0c-1,0-2,0-3,0.1
				c-3.2,0.2-6.3,0.7-9.3,1.6c-0.5,0.1-1.1,0.3-1.6,0.5c-0.1,0-0.2,0-0.2,0.1c0,0,0,0,0,0c-0.9,0.3-1.9,0.6-2.8,1
				c-0.5,0.2-1,0.5-1.5,0.6l0,0c-0.6,0.3-1.3,0.6-1.9,1c-0.8,0.4-1.6,0.9-2.4,1.5c-0.9,0.6-1.9,1.2-2.8,1.9
				c-0.4,0.3-0.8,0.6-1.2,0.9c-0.4,0.3-0.8,0.6-1.1,0.9c-0.2,0.2-0.4,0.5-0.6,0.7c-0.5,0.5-1,1-1.5,1.6c-2.6,2.8-5.9,6.9-7.9,11.3
				c-0.3,0.5-0.5,1.1-0.6,1.6c-2.1,5-3.1,10.4-3.1,16.3c0,5.5,0,11,0,16.4h1.6h1.6h5.7h1.6h1.6c0-5.5,0-11.1,0-16.6
				c0-4.8,1.2-9.4,3.6-13.9c0.7-1.3,1.4-2.5,2.2-3.6c1.3-1.8,2.6-3.4,4.2-4.8c1.3-1.1,2.6-2.2,4.1-3c3-1.8,6.4-3,10.2-3.5
				c0.7-0.1,1.5-0.2,2.2-0.2h18.5c0.7,0,1.5,0,2.2,0c0.7,0,1.4,0,2.1,0h8.1c1.4,0,2.7,0,4.1,0c2.6,0,5.2,0,7.8,0c1.4,0,2.7,0,4,0
				c2.4,0,4.9,0.4,7.2,1.2c1.2,0.4,2.4,0.9,3.6,1.5c1.3,0.6,2.5,1.3,3.7,2.1c6.2,4.3,10.7,11,11.8,18.6c0,0.1,0,0.1,0,0.2
				c0.3,2,0.4,3.7,0.4,5.5v16.6h1.6h1.6h6.4h1.6h1.6c0-5.6,0-11.2,0-16.7c0-5.4-0.8-10.3-2.5-14.9
				C312.2,276.7,311.8,275.8,311.4,274.8z"/>
			<path d="M223,187.3c-0.3,0.4-0.5,0.8-0.7,1.2c-0.3,0.5-0.6,1-0.8,1.5c-0.6,1.1-1.1,2.3-1.5,3.5c-1.3,3.5-2.1,7.2-2.2,10.8
				c-0.2,5.1,0.7,10,2.4,14.5c0,0,0,0,0,0.1c0.3,0.7,0.6,1.4,0.9,2.1c0.2,0.5,0.5,1,0.8,1.5c0.3,0.5,0.5,1,0.8,1.5l0.7,1.1
				c0.9,1.5,2,2.8,3.2,4.1c0.1,0.1,0.2,0.2,0.3,0.3c0.2,0.2,0.4,0.4,0.5,0.6c0.1,0.1,0.2,0.2,0.3,0.3c0.4,0.4,0.8,0.8,1.2,1.1
				c2.9,2.6,6.3,4.8,9.9,6.3c1.3,0.6,2.7,1,4.1,1.5h0c1.5,0.4,3,0.7,4.5,1c0.5,0.1,0.9,0.1,1.4,0.2c0,0,0,0,0,0
				c1.1,0.1,2.1,0.2,3.2,0.2h0.3c0,0,0,0,0.1,0c0.9,0,1.9,0,2.8-0.1c2.1-0.2,4.1-0.5,6.1-1.1c4.6-1.2,8.9-3.4,12.7-6.4
				c0.4-0.3,0.8-0.7,1.3-1c0.4-0.4,0.8-0.7,1.2-1.1c0.2-0.2,0.5-0.4,0.6-0.6c1.3-1.3,2.5-2.8,3.6-4.3c0.3-0.4,0.6-0.9,0.9-1.3
				c0.3-0.5,0.6-0.9,0.9-1.4c0.5-0.8,0.9-1.5,1.2-2.4c0.1,0,0.1-0.1,0.1-0.2c2.2-4.4,3.3-9.3,3.3-14.3c0-5.5-1.2-10.8-3.4-15.4
				c0,0,0,0,0,0c-0.5-1.1-1.1-2.2-1.7-3.2c-0.3-0.5-0.6-0.9-0.9-1.4c-0.3-0.5-0.6-0.9-0.9-1.3c-1.1-1.5-2.4-3-3.8-4.3
				c-0.4-0.4-0.8-0.7-1.2-1.1c-0.4-0.4-0.9-0.7-1.3-1.1c-2.4-1.9-5.2-3.5-8.1-4.7c-1.9-0.8-4-1.5-6.1-1.9c-2.2-0.5-4.4-0.7-6.7-0.7
				h-0.6c-1.2,0-2.4,0.1-3.6,0.2c-1.7,0.2-3.3,0.5-4.9,0.8c-1.6,0.4-3.2,0.9-4.6,1.5c-4,1.6-7.5,3.8-10.4,6.6
				c-0.4,0.4-0.8,0.7-1.2,1.2c-0.4,0.4-0.7,0.7-1.1,1.1c-0.2,0.2-0.3,0.4-0.5,0.5c-1.1,1.3-2.1,2.7-3,4.1
				C223.1,187.1,223.1,187.2,223,187.3z M235.2,191.3c0.4-0.5,0.7-0.9,1.2-1.3c2.8-2.9,6.3-5,10.3-6.1c0.1,0,0.2-0.1,0.3-0.1
				c1-0.3,2.1-0.5,3.2-0.5c0.4-0.1,0.9-0.1,1.4-0.1c0.3-0.1,0.7-0.1,1-0.1c0,0,0.1,0,0.1,0c0.3,0,0.6,0,1,0c0.9,0,1.7,0.1,2.5,0.3
				c3.7,0.5,7.1,2,10,4.3c0.4,0.3,0.9,0.6,1.3,1.1c0.1,0.1,0.3,0.2,0.4,0.3c0.2,0.2,0.4,0.4,0.6,0.6c0.1,0.1,0.1,0.2,0.2,0.2
				c1.5,1.6,2.8,3.4,3.8,5.3c0.1,0.1,0.1,0.2,0.2,0.3c0.3,0.6,0.6,1.2,0.8,1.8c0.3,0.9,0.6,1.8,0.8,2.8c0.5,1.8,0.6,3.6,0.6,5.5
				c0,1.7-0.2,3.3-0.6,4.9c0,0.1,0,0.3-0.1,0.4c-0.2,0.8-0.4,1.6-0.7,2.4c-0.3,0.7-0.5,1.5-0.9,2.1c-0.5,1.1-1.2,2.2-1.9,3.2
				c-0.7,0.9-1.4,1.8-2.2,2.5c-0.4,0.4-0.8,0.8-1.3,1.1c-0.4,0.4-0.8,0.7-1.3,1c-2.9,2.2-6.4,3.7-10.2,4.2c-0.8,0.1-1.6,0.2-2.4,0.2
				c-0.2,0-0.4,0-0.6,0H252c-1.1,0-2.2-0.1-3.2-0.3c-0.1,0-0.2,0-0.2,0c-1.5-0.3-3-0.6-4.4-1.2c-2.8-1.1-5.3-2.7-7.5-4.9
				c-0.1-0.1-0.1-0.1-0.2-0.2c-0.4-0.4-0.8-0.8-1.1-1.3c-0.4-0.5-0.8-1-1.2-1.5c-1.9-2.7-3.2-5.8-3.7-9.1c-0.3-1.4-0.4-2.7-0.4-4.2
				c0-1.3,0.1-2.5,0.4-3.7c0.5-3.1,1.7-6,3.5-8.4C234.4,192.2,234.8,191.8,235.2,191.3z"/>
		</g>
	</g>
	<g id="Talent">
		<g class="st1">
			<path d="M311.2,275.1c0-0.1-0.1-0.2-0.1-0.3l-0.3-0.8c-0.1-0.1-1-1.7-2.6-4c-1.1-1.6-2.5-3.4-4.2-5.3c-0.2-0.2-0.4-0.5-0.6-0.7
				c-0.5-0.5-0.9-1-1.4-1.5l-0.1-0.1l-0.2-0.2c-0.5-0.5-1.1-1-1.6-1.4c-1.6-1.4-3.3-2.5-5.1-3.6c-1.2-0.7-2.4-1.4-3.7-1.9
				c-0.4-0.2-0.7-0.3-1-0.4c-0.9-0.4-1.8-0.7-2.7-1c-0.4-0.1-0.8-0.3-1.2-0.4c-0.3-0.1-0.5-0.2-0.8-0.2c-1.4-0.4-2.7-0.7-4.1-1
				c0,0,0,0,0,0c-2.5-0.5-5.2-0.7-7.9-0.7H273c-15.7,0.1-28.7,0.1-40.8,0c-0.2,0-0.3,0-0.5,0c-1,0-2,0-3,0.1
				c-3.2,0.2-6.3,0.7-9.3,1.6c-0.5,0.1-1.1,0.3-1.6,0.5c-0.1,0-0.2,0-0.2,0.1c0,0,0,0,0,0c-0.9,0.3-1.9,0.6-2.8,1
				c-0.5,0.2-1,0.5-1.5,0.6l0,0c-0.6,0.3-1.3,0.6-1.9,1c-0.8,0.4-1.6,0.9-2.4,1.5c-0.9,0.6-1.9,1.2-2.8,1.9
				c-0.4,0.3-0.8,0.6-1.2,0.9c-0.4,0.3-0.8,0.6-1.1,0.9c-0.2,0.2-0.4,0.5-0.6,0.7c-0.5,0.5-1,1-1.5,1.6c-2.6,2.8-5.9,6.9-7.9,11.3
				c-0.3,0.5-0.5,1.1-0.6,1.6c-2.1,5-3.1,10.4-3.1,16.3c0,5.5,0,11,0,16.4h1.6h1.6h5.7h1.6h1.6c0-5.5,0-11.1,0-16.6
				c0-4.8,1.2-9.4,3.6-13.9c0.7-1.3,1.4-2.5,2.2-3.6c1.3-1.8,2.6-3.4,4.2-4.8c1.3-1.1,2.6-2.2,4.1-3c3-1.8,6.4-3,10.2-3.5
				c0.7-0.1,1.5-0.2,2.2-0.2h18.5c0.7,0,1.5,0,2.2,0c0.7,0,1.4,0,2.1,0h8.1c1.4,0,2.7,0,4.1,0c2.6,0,5.2,0,7.8,0c1.4,0,2.7,0,4,0
				c2.4,0,4.9,0.4,7.2,1.2c1.2,0.4,2.4,0.9,3.6,1.5c1.3,0.6,2.5,1.3,3.7,2.1c6.2,4.3,10.7,11,11.8,18.6c0,0.1,0,0.1,0,0.2
				c0.3,2,0.4,3.7,0.4,5.5v16.6h1.6h1.6h6.4h1.6h1.6c0-5.6,0-11.2,0-16.7c0-5.4-0.8-10.3-2.5-14.9C312,277,311.7,276,311.2,275.1z"
				/>
			<path d="M222.9,187.5c-0.3,0.4-0.5,0.8-0.7,1.2c-0.3,0.5-0.6,1-0.8,1.5c-0.6,1.1-1.1,2.3-1.5,3.5c-1.3,3.5-2.1,7.2-2.2,10.8
				c-0.2,5.1,0.7,10,2.4,14.5c0,0,0,0,0,0.1c0.3,0.7,0.6,1.4,0.9,2.1c0.2,0.5,0.5,1,0.8,1.5c0.3,0.5,0.5,1,0.8,1.5l0.7,1.1
				c0.9,1.5,2,2.8,3.2,4.1c0.1,0.1,0.2,0.2,0.3,0.3c0.2,0.2,0.4,0.4,0.5,0.6c0.1,0.1,0.2,0.2,0.3,0.3c0.4,0.4,0.8,0.8,1.2,1.1
				c2.9,2.6,6.3,4.8,9.9,6.3c1.3,0.6,2.7,1,4.1,1.5h0c1.5,0.4,3,0.7,4.5,1c0.5,0.1,0.9,0.1,1.4,0.2c0,0,0,0,0,0
				c1.1,0.1,2.1,0.2,3.2,0.2h0.3c0,0,0,0,0.1,0c0.9,0,1.9,0,2.8-0.1c2.1-0.2,4.1-0.5,6.1-1.1c4.6-1.2,8.9-3.4,12.7-6.4
				c0.4-0.3,0.8-0.7,1.3-1c0.4-0.4,0.8-0.7,1.2-1.1c0.2-0.2,0.5-0.4,0.6-0.6c1.3-1.3,2.5-2.8,3.6-4.3c0.3-0.4,0.6-0.9,0.9-1.3
				c0.3-0.5,0.6-0.9,0.9-1.4c0.5-0.8,0.9-1.5,1.2-2.4c0.1,0,0.1-0.1,0.1-0.2c2.2-4.4,3.3-9.3,3.3-14.3c0-5.5-1.2-10.8-3.4-15.4
				c0,0,0,0,0,0c-0.5-1.1-1.1-2.2-1.7-3.2c-0.3-0.5-0.6-0.9-0.9-1.4c-0.3-0.5-0.6-0.9-0.9-1.3c-1.1-1.5-2.4-3-3.8-4.3
				c-0.4-0.4-0.8-0.7-1.2-1.1c-0.4-0.4-0.9-0.7-1.3-1.1c-2.4-1.9-5.2-3.5-8.1-4.7c-1.9-0.8-4-1.5-6.1-1.9c-2.2-0.5-4.4-0.7-6.7-0.7
				h-0.6c-1.2,0-2.4,0.1-3.6,0.2c-1.7,0.2-3.3,0.5-4.9,0.8c-1.6,0.4-3.2,0.9-4.6,1.5c-4,1.6-7.5,3.8-10.4,6.6
				c-0.4,0.4-0.8,0.7-1.2,1.2c-0.4,0.4-0.7,0.7-1.1,1.1c-0.2,0.2-0.3,0.4-0.5,0.5c-1.1,1.3-2.1,2.7-3,4.1
				C223,187.4,222.9,187.4,222.9,187.5z M235,191.5c0.4-0.5,0.7-0.9,1.2-1.3c2.8-2.9,6.3-5,10.3-6.1c0.1,0,0.2-0.1,0.3-0.1
				c1-0.3,2.1-0.5,3.2-0.5c0.4-0.1,0.9-0.1,1.4-0.1c0.3-0.1,0.7-0.1,1-0.1c0,0,0.1,0,0.1,0c0.3,0,0.6,0,1,0c0.9,0,1.7,0.1,2.5,0.3
				c3.7,0.5,7.1,2,10,4.3c0.4,0.3,0.9,0.6,1.3,1.1c0.1,0.1,0.3,0.2,0.4,0.3c0.2,0.2,0.4,0.4,0.6,0.6c0.1,0.1,0.1,0.2,0.2,0.2
				c1.5,1.6,2.8,3.4,3.8,5.3c0.1,0.1,0.1,0.2,0.2,0.3c0.3,0.6,0.6,1.2,0.8,1.8c0.3,0.9,0.6,1.8,0.8,2.8c0.5,1.8,0.6,3.6,0.6,5.5
				c0,1.7-0.2,3.3-0.6,4.9c0,0.1,0,0.3-0.1,0.4c-0.2,0.8-0.4,1.6-0.7,2.4c-0.3,0.7-0.5,1.5-0.9,2.1c-0.5,1.1-1.2,2.2-1.9,3.2
				c-0.7,0.9-1.4,1.8-2.2,2.5c-0.4,0.4-0.8,0.8-1.3,1.1c-0.4,0.4-0.8,0.7-1.3,1c-2.9,2.2-6.4,3.7-10.2,4.2c-0.8,0.1-1.6,0.2-2.4,0.2
				c-0.2,0-0.4,0-0.6,0h-0.4c-1.1,0-2.2-0.1-3.2-0.3c-0.1,0-0.2,0-0.2,0c-1.5-0.3-3-0.6-4.4-1.2c-2.8-1.1-5.3-2.7-7.5-4.9
				c-0.1-0.1-0.1-0.1-0.2-0.2c-0.4-0.4-0.8-0.8-1.1-1.3c-0.4-0.5-0.8-1-1.2-1.5c-1.9-2.7-3.2-5.8-3.7-9.1c-0.3-1.4-0.4-2.7-0.4-4.2
				c0-1.3,0.1-2.5,0.4-3.7c0.5-3.1,1.7-6,3.5-8.4C234.3,192.5,234.6,192,235,191.5z"/>
		</g>
	</g>
	<g id="Games">
		<g class="st1">
			<path d="M310.7,250.5c0-0.1-0.1-0.2-0.1-0.3l-0.3-0.8c-0.1-0.1-1-1.7-2.6-4c-1.1-1.6-2.5-3.4-4.2-5.3c-0.2-0.2-0.4-0.5-0.6-0.7
				c-0.5-0.5-0.9-1-1.4-1.5l-0.1-0.1l-0.2-0.2c-0.5-0.5-1.1-1-1.6-1.4c-1.6-1.4-3.3-2.5-5.1-3.6c-1.2-0.7-2.4-1.4-3.7-1.9
				c-0.4-0.2-0.7-0.3-1-0.4c-0.9-0.4-1.8-0.7-2.7-1c-0.4-0.1-0.8-0.3-1.2-0.4c-0.3-0.1-0.5-0.2-0.8-0.2c-1.4-0.4-2.7-0.7-4.1-1
				c0,0,0,0,0,0c-2.5-0.5-5.2-0.7-7.9-0.7h-0.6c-15.7,0.1-28.7,0.1-40.8,0c-0.2,0-0.3,0-0.5,0c-1,0-2,0-3,0.1
				c-3.2,0.2-6.3,0.7-9.3,1.6c-0.5,0.1-1.1,0.3-1.6,0.5c-0.1,0-0.2,0-0.2,0.1c0,0,0,0,0,0c-0.9,0.3-1.9,0.6-2.8,1
				c-0.5,0.2-1,0.5-1.5,0.6l0,0c-0.6,0.3-1.3,0.6-1.9,1c-0.8,0.4-1.6,0.9-2.4,1.5c-0.9,0.6-1.9,1.2-2.8,1.9
				c-0.4,0.3-0.8,0.6-1.2,0.9c-0.4,0.3-0.8,0.6-1.1,0.9c-0.2,0.2-0.4,0.5-0.6,0.7c-0.5,0.5-1,1-1.5,1.6c-2.6,2.8-5.9,6.9-7.9,11.3
				c-0.3,0.5-0.5,1.1-0.6,1.6c-2.1,5-3.1,10.4-3.1,16.3c0,5.5,0,11,0,16.4h1.6h1.6h5.7h1.6h1.6c0-5.5,0-11.1,0-16.6
				c0-4.8,1.2-9.4,3.6-13.9c0.7-1.3,1.4-2.5,2.2-3.6c1.3-1.8,2.6-3.4,4.2-4.8c1.3-1.1,2.6-2.2,4.1-3c3-1.8,6.4-3,10.2-3.5
				c0.7-0.1,1.5-0.2,2.2-0.2h18.5c0.7,0,1.5,0,2.2,0c0.7,0,1.4,0,2.1,0h8.1c1.4,0,2.7,0,4.1,0c2.6,0,5.2,0,7.8,0c1.4,0,2.7,0,4,0
				c2.4,0,4.9,0.4,7.2,1.2c1.2,0.4,2.4,0.9,3.6,1.5c1.3,0.6,2.5,1.3,3.7,2.1c6.2,4.3,10.7,11,11.8,18.6c0,0.1,0,0.1,0,0.2
				c0.3,2,0.4,3.7,0.4,5.5v16.6h1.6h1.6h6.4h1.6h1.6c0-5.6,0-11.2,0-16.7c0-5.4-0.8-10.3-2.5-14.9
				C311.5,252.4,311.1,251.4,310.7,250.5z"/>
			<path d="M222.3,162.9c-0.3,0.4-0.5,0.8-0.7,1.2c-0.3,0.5-0.6,1-0.8,1.5c-0.6,1.1-1.1,2.3-1.5,3.5c-1.3,3.5-2.1,7.2-2.2,10.8
				c-0.2,5.1,0.7,10,2.4,14.5c0,0,0,0,0,0.1c0.3,0.7,0.6,1.4,0.9,2.1c0.2,0.5,0.5,1,0.8,1.5c0.3,0.5,0.5,1,0.8,1.5l0.7,1.1
				c0.9,1.5,2,2.8,3.2,4.1c0.1,0.1,0.2,0.2,0.3,0.3c0.2,0.2,0.4,0.4,0.5,0.6c0.1,0.1,0.2,0.2,0.3,0.3c0.4,0.4,0.8,0.8,1.2,1.1
				c2.9,2.6,6.3,4.8,9.9,6.3c1.3,0.6,2.7,1,4.1,1.5h0c1.5,0.4,3,0.7,4.5,1c0.5,0.1,0.9,0.1,1.4,0.2c0,0,0,0,0,0
				c1.1,0.1,2.1,0.2,3.2,0.2h0.3c0,0,0,0,0.1,0c0.9,0,1.9,0,2.8-0.1c2.1-0.2,4.1-0.5,6.1-1.1c4.6-1.2,8.9-3.4,12.7-6.4
				c0.4-0.3,0.8-0.7,1.3-1c0.4-0.4,0.8-0.7,1.2-1.1c0.2-0.2,0.5-0.4,0.6-0.6c1.3-1.3,2.5-2.8,3.6-4.3c0.3-0.4,0.6-0.9,0.9-1.3
				c0.3-0.5,0.6-0.9,0.9-1.4c0.5-0.8,0.9-1.5,1.2-2.4c0.1,0,0.1-0.1,0.1-0.2c2.2-4.4,3.3-9.3,3.3-14.3c0-5.5-1.2-10.8-3.4-15.4
				c0,0,0,0,0,0c-0.5-1.1-1.1-2.2-1.7-3.2c-0.3-0.5-0.6-0.9-0.9-1.4c-0.3-0.5-0.6-0.9-0.9-1.3c-1.1-1.5-2.4-3-3.8-4.3
				c-0.4-0.4-0.8-0.7-1.2-1.1c-0.4-0.4-0.9-0.7-1.3-1.1c-2.4-1.9-5.2-3.5-8.1-4.7c-1.9-0.8-4-1.5-6.1-1.9c-2.2-0.5-4.4-0.7-6.7-0.7
				h-0.6c-1.2,0-2.4,0.1-3.6,0.2c-1.7,0.2-3.3,0.5-4.9,0.8c-1.6,0.4-3.2,0.9-4.6,1.5c-4,1.6-7.5,3.8-10.4,6.6
				c-0.4,0.4-0.8,0.7-1.2,1.2c-0.4,0.4-0.7,0.7-1.1,1.1c-0.2,0.2-0.3,0.4-0.5,0.5c-1.1,1.3-2.1,2.7-3,4.1
				C222.4,162.8,222.4,162.8,222.3,162.9z M234.5,166.9c0.4-0.5,0.7-0.9,1.2-1.3c2.8-2.9,6.3-5,10.3-6.1c0.1,0,0.2-0.1,0.3-0.1
				c1-0.3,2.1-0.5,3.2-0.5c0.4-0.1,0.9-0.1,1.4-0.1c0.3-0.1,0.7-0.1,1-0.1c0,0,0.1,0,0.1,0c0.3,0,0.6,0,1,0c0.9,0,1.7,0.1,2.5,0.3
				c3.7,0.5,7.1,2,10,4.3c0.4,0.3,0.9,0.6,1.3,1.1c0.1,0.1,0.3,0.2,0.4,0.3c0.2,0.2,0.4,0.4,0.6,0.6c0.1,0.1,0.1,0.2,0.2,0.2
				c1.5,1.6,2.8,3.4,3.8,5.3c0.1,0.1,0.1,0.2,0.2,0.3c0.3,0.6,0.6,1.2,0.8,1.8c0.3,0.9,0.6,1.8,0.8,2.8c0.5,1.8,0.6,3.6,0.6,5.5
				c0,1.7-0.2,3.3-0.6,4.9c0,0.1,0,0.3-0.1,0.4c-0.2,0.8-0.4,1.6-0.7,2.4c-0.3,0.7-0.5,1.5-0.9,2.1c-0.5,1.1-1.2,2.2-1.9,3.2
				c-0.7,0.9-1.4,1.8-2.2,2.5c-0.4,0.4-0.8,0.8-1.3,1.1c-0.4,0.4-0.8,0.7-1.3,1c-2.9,2.2-6.4,3.7-10.2,4.2c-0.8,0.1-1.6,0.2-2.4,0.2
				c-0.2,0-0.4,0-0.6,0h-0.4c-1.1,0-2.2-0.1-3.2-0.3c-0.1,0-0.2,0-0.2,0c-1.5-0.3-3-0.6-4.4-1.2c-2.8-1.1-5.3-2.7-7.5-4.9
				c-0.1-0.1-0.1-0.1-0.2-0.2c-0.4-0.4-0.8-0.8-1.1-1.3c-0.4-0.5-0.8-1-1.2-1.5c-1.9-2.7-3.2-5.8-3.7-9.1c-0.3-1.4-0.4-2.7-0.4-4.2
				c0-1.3,0.1-2.5,0.4-3.7c0.5-3.1,1.7-6,3.5-8.4C233.7,167.9,234.1,167.4,234.5,166.9z"/>
		</g>
		<g class="st1">
			<path d="M348.6,347.3h-13v-45.6c0-8.5-6.9-15.3-15.3-15.3H180.7c-8.5,0-15.3,6.9-15.3,15.3v45.6h-13v-45.6
				c0-15.6,12.7-28.3,28.3-28.3h139.6c15.6,0,28.3,12.7,28.3,28.3V347.3z"/>
		</g>
	</g>
	<g id="GAme" class="st1">
		<path d="M247.8,184.5c0-5,0-9.7,0-14.4c0-6.1-0.1-12.3,0-18.4c0.1-5.7,5.2-8.9,10.2-6.4c2.8,1.4,3.8,4,3.8,7c0,9.8,0,19.5,0,29.3
			c0,0.9,0,1.7,0,2.9c1.1,0,2,0,2.9,0c11.2,0.1,22.5-0.2,33.7,0.5c16.3,0.9,30.7,7.1,43.2,17.4c17.3,14.2,26.9,32.7,29.6,54.8
			c0.4,3.1,0.4,6.3,0.4,9.4c0,19,0,37.9,0,56.9c0,10.7-4.5,18.9-14.1,23.8c-10.8,5.5-23.5,2-31-8.1c-6.2-8.4-12.4-16.8-18.6-25.3
			c-6-8.1-14-12.2-24-12.3c-19.4-0.1-38.9-0.1-58.3,0c-10,0-18,4.1-24,12.3c-6.7,9.1-13.2,18.2-20.2,27c-6.1,7.8-17.1,10.8-26.4,7.7
			c-9.5-3.1-16.5-12-16.9-22c-0.3-9.2-0.2-18.4-0.2-27.6c0-12.2-0.1-24.4,0.2-36.6c0.4-18,6.6-34,17.8-48
			c11.9-14.9,27.4-24.4,46.1-28.2c5.6-1.1,11.4-1.5,17.1-1.6C228.6,184.3,238,184.5,247.8,184.5z M357.7,292.3
			C357.7,292.3,357.7,292.3,357.7,292.3c-0.1-8.5-0.1-17-0.1-25.5c0-11.9-2.4-23.2-8.3-33.5c-13-22.7-32.7-34.5-58.9-34.7
			c-23.8-0.2-47.7-0.1-71.5,0c-3.7,0-7.4,0.3-11,0.9c-31.5,4.9-55.3,31.7-55.9,63.6c-0.4,20.4-0.1,40.9-0.1,61.4
			c0,0.5,0,1.1,0.1,1.6c0.5,4.5,3.7,8.3,8.1,9.4c4.9,1.2,8.6-0.6,11.5-4.5c6.4-8.7,12.7-17.4,19.2-26c8.4-11,19.5-17.2,33.5-17.3
			c20.8-0.1,41.7-0.2,62.5,0.1c11.8,0.2,21.6,5.3,29.3,14.1c4.4,5.1,8.2,10.7,12.3,16.1c3.7,4.9,7.3,10.1,11.3,14.8
			c3,3.5,7.1,3.7,11.3,2.2c3.9-1.5,6.8-5.7,6.8-9.7C357.7,314.4,357.7,303.4,357.7,292.3z"/>
		<path d="M291.6,246.6c0-11.3,9.2-20.6,20.4-20.7c11.5,0,20.6,9.3,20.7,21c0,11.1-9.5,20.6-20.7,20.6
			C300.6,267.4,291.6,258.3,291.6,246.6z M318.6,246.8c-0.1-3.9-2.9-6.8-6.6-6.7c-3.6,0.1-6.4,3.2-6.4,6.8c0.1,3.8,2.8,6.5,6.6,6.5
			C315.8,253.3,318.6,250.5,318.6,246.8z"/>
		<path d="M177.1,253.4c0-4.6,0-9,0-13.6c4.4,0,8.8,0,13.4,0c0-4.6,0-9,0-13.5c4.7,0,9.1,0,13.8,0c0,4.4,0,8.8,0,13.4
			c4.6,0,9,0,13.5,0c0,4.6,0,9,0,13.6c-4.4,0-8.7,0-13.3,0c0,4.6,0,9,0,13.5c-4.7,0-9.1,0-13.8,0c0-4.3,0-8.8,0-13.4
			C186,253.4,181.6,253.4,177.1,253.4z"/>
		<path d="M255,260.3c2.2,0,4.4,0,6.6,0c3.9,0.1,7,3.3,7,7.1c0,3.7-2.8,6.6-6.8,6.8c-4.6,0.1-9.3,0.1-13.9,0
			c-3.7-0.1-6.6-3.2-6.7-6.9c0-3.6,2.9-6.8,6.7-6.9C250.3,260.2,252.6,260.3,255,260.3C255,260.3,255,260.3,255,260.3z"/>
	</g>
</g>
<g id="Layer_3" class="st0">
	<g id="Branding">
		<g class="st1">
			<path d="M224.6,368c-5.5,0.1-10.5-2.1-14.7-6.3c-22.6-22.5-45.1-45.1-67.6-67.6c-4.8-4.8-7-10.5-6.5-17.3
				c0.4-5.1,2.6-9.4,6.2-12.9c17.6-17.6,35.1-35.2,52.7-52.7c19.3-19.3,38.6-38.5,57.8-57.8c4.6-4.6,10-6.9,16.4-7.5
				c8.4-0.9,16.8-2,25.3-3c6.3-0.7,12.5-1.5,18.8-2.2c6.4-0.7,12.7-1.5,19.1-2.2c4.2-0.5,8.4-1.3,12.6-1.5
				c8.5-0.4,15.1,3.1,19.6,11.7c2.2,4.3,2.8,8.8,2.2,13.6c-1.1,8.2-1.9,16.4-2.8,24.6c-1,8.4-2,16.7-3,25.1
				c-1,8.1-1.9,16.2-2.8,24.3c-0.6,5.3-2.4,10-6.3,13.8c-5.6,5.6-11.1,11.2-16.7,16.8c-11.8,11.8-23.6,23.6-35.4,35.4
				c-19.7,19.7-39.3,39.3-59,59C236.2,365.5,231.2,368,224.6,368z M353.4,158.8c0.6-5-4.3-8.5-8.4-8c-7.3,0.8-14.6,1.6-21.9,2.5
				c-8.4,1-16.8,2.1-25.3,3c-10,1.2-20,2.2-30,3.5c-1.5,0.2-3.1,1.1-4.2,2.1c-5.1,4.9-10.1,10-15.1,15.1
				c-22.9,22.9-45.8,45.8-68.6,68.6c-9.2,9.1-18.3,18.3-27.4,27.5c-3.6,3.6-3.6,7.9,0,11.5c1.2,1.2,2.4,2.4,3.6,3.6
				c8.8,8.8,17.6,17.7,26.3,26.5c12.2,12.3,24.5,24.6,36.7,36.8c3.5,3.5,8.4,3.4,11.9-0.1c1.8-1.8,3.5-3.5,5.3-5.3
				c21.2-21.2,42.5-42.4,63.7-63.6c13.5-13.4,26.9-26.9,40.5-40.3c2.9-2.8,3.9-6,4.3-9.7c0.7-6.8,1.5-13.6,2.3-20.4
				c0.8-6.5,1.5-13.1,2.3-19.6c0.8-6.5,1.5-13,2.3-19.4C352.3,168.5,352.9,163.7,353.4,158.8z"/>
		</g>
		<g class="st1">
			<path d="M197.3,248.5c0.2-2.4,1.4-4.6,3.9-5.7c2.7-1.2,5.4-0.8,7.6,1.3c2.5,2.3,4.9,4.8,7.3,7.2c15.1,15,30.1,30,45.2,45
				c1.2,1.2,2.4,2.4,3.1,3.9c1.4,3.1,0.3,6.4-2.3,8.2c-2.7,1.8-6.5,1.6-8.9-0.6c-2.7-2.6-5.3-5.3-8-7.9
				c-8.5-8.5-16.9-16.9-25.4-25.4c-6.8-6.8-13.5-13.5-20.3-20.3C198.1,252.7,197.3,251,197.3,248.5z"/>
		</g>
		<g class="st1">
			<path d="M238.3,329.7c-0.2,2.6-1.4,4.9-4.1,6c-2.7,1.1-5.5,0.9-7.8-1.2c-2.5-2.4-5-4.9-7.4-7.3c-13.1-13.1-26.3-26.3-39.4-39.4
				c-2.4-2.4-4.8-4.7-7.1-7.2c-3.2-3.5-2.4-8.7,1.6-10.8c2.8-1.5,6-0.8,8.6,1.8c5.2,5.2,10.4,10.4,15.6,15.5
				c12.4,12.3,24.8,24.7,37.2,37C237.1,325.5,238.2,327.2,238.3,329.7z"/>
		</g>
		<g class="st1">
			<path d="M314.3,175.3c8.1,0,14.2,6.4,14.2,14.7c0,7.6-6.6,14-14.3,14c-7.7,0-14.4-6.6-14.4-14.2
				C299.9,181.7,306.2,175.3,314.3,175.3z"/>
		</g>
	</g>
	<g>
		<g class="st1">
			<path d="M252.8,138.5h-0.4c-30.2,0-58.6,11.7-80.1,33.1c-21.7,21.5-33.6,50.3-33.7,80.9c-0.1,30.4,11.8,59.1,33.3,80.6
				c21.5,21.6,50.2,33.4,80.7,33.5h0.1c30.4,0,59-11.8,80.5-33.3c21.6-21.5,33.4-50.2,33.4-80.7
				C366.7,189.8,315.6,138.6,252.8,138.5z M320.1,320.2c-18,17.9-41.8,27.7-67.2,27.7h-0.4c-52.9-0.2-94.8-42.2-95.3-95.5v-0.1
				c0.7-53.5,42.6-95.2,95.5-95.2h0.3c53.4,0.2,95.2,42.1,95.2,95.5C348.1,278.2,338.1,302.3,320.1,320.2z"/>
		</g>
		<g class="st1">
			<path d="M262,273.2v9.1c0,7.2,0,14.4,0,21.7c0,3.4-1.1,7.9-6.4,9.7c-2.4,0.9-5.2,0.6-7.5-0.8c-2.3-1.3-3.9-3.5-4.4-6.1
				c-0.2-1-0.3-2-0.3-3c0-20.4,0-40.8,0-61.1c0-6.2,3.6-10.3,9.1-10.4c0.1,0,0.1,0,0.2,0c2.5,0,4.7,0.8,6.3,2.4
				c1.9,1.8,2.9,4.5,2.9,7.7c0,7.2,0,14.4,0,21.7L262,273.2z"/>
		</g>
		<g class="st1">
			<path d="M259.5,206.5c-1.7,1.8-4,2.9-6.6,2.9h-0.1c-2.5,0-4.8-1-6.4-2.8c-1.6-1.7-2.6-4.2-2.7-6.9c0-2.3,0.8-4.4,2.4-6.1
				c1.6-1.6,3.9-2.5,6.3-2.5c0.1,0,0.1,0,0.2,0c5.4,0.1,8.9,3.2,9.3,8.1C262.1,202,261.3,204.6,259.5,206.5z"/>
		</g>
	</g>
	<g>
		<g class="st1">
			<path d="M355.6,205.2c-0.5,20.9-2,41.7-6.6,62.1c-4.1,18-10.5,35-20.9,50.4c-10.6,15.8-24.4,28.1-41.3,36.9
				c-9.9,5.2-20.4,9.1-31.3,11.6c-1.8,0.4-3.9,0.6-5.6,0.2c-18.8-4.5-36.1-12.2-51.2-24.5c-14.1-11.5-24.6-25.8-32.1-42.3
				c-8.1-17.8-12.4-36.6-14.8-56c-2.4-19.7-2.5-39.4-2.5-59.2c0-5.3,2-8.2,7.2-9.7c10.4-3.1,19.5-8.5,27.3-16
				c3.1-3.1,5.8-6.6,8.5-10.1c1.4-1.8,3.2-2.9,5.4-3.5c17.8-4.8,35.8-6.9,54.2-6.6c11.6,0.2,23.2,0.2,34.7,2.2
				c7.1,1.3,14.2,2.9,21.3,4.6c1.7,0.4,3.5,1.8,4.5,3.2c7.9,10.8,17.7,19.2,30.2,24.2c2,0.8,4.2,1.4,6.2,2.2
				c4.7,1.6,6.7,4.5,6.7,9.4C355.6,191.2,355.6,198.2,355.6,205.2z M339.2,208c0-5.7-0.1-11.5,0-17.2c0-1.4-0.5-2-1.7-2.5
				c-14.5-5.6-26.3-14.7-35.9-26.8c-0.6-0.7-1.6-1.4-2.5-1.6c-7.1-1.3-14.3-2.9-21.5-3.6c-24-2.4-48-1.8-71.6,3.5
				c-1,0.2-2.2,0.9-2.8,1.8c-9.5,12.1-21.3,21.1-35.7,26.7c-1.4,0.5-1.9,1.2-1.8,2.7c0.3,11,0.3,22,0.9,33c1,19.2,3.7,38.1,10,56.4
				c5.8,16.8,14.5,31.8,27.4,44.1c13.5,12.9,29.7,20.8,47.7,25.4c0.7,0.2,1.5,0.1,2.1-0.2c6.6-2.3,13.4-4.3,19.9-7.1
				c15.4-6.7,28.1-17,38.2-30.4c12.2-16.4,18.8-35.1,22.6-54.9C337.6,241,338.7,224.5,339.2,208z"/>
		</g>
		<g class="st1">
			<path d="M243.7,261.2c5.8-7.7,11.3-15.2,16.9-22.6c5-6.6,9.9-13.3,14.9-19.9c3.8-5,10.5-4.9,13.8,0c1.9,2.9,1.7,6.6-0.6,9.6
				c-6.5,8.7-13,17.4-19.5,26.1c-6,8-12,16-17.9,24c-4.4,5.9-10.1,6-14.7,0.2c-6.8-8.5-13.6-17-20.3-25.5
				c-4.3-5.5-1.5-12.4,5.3-13.4c3.3-0.5,5.8,1.2,7.8,3.7c4.2,5.3,8.4,10.6,12.6,15.8C242.4,259.7,243,260.3,243.7,261.2z"/>
		</g>
	</g>
	<g>
		<path class="st1" d="M219.5,145.8h-48.8c-14.8,0-26.8,12-26.8,26.8v48.8c0,14.8,12,26.8,26.8,26.8h48.8c14.8,0,26.8-12,26.8-26.8
			v-48.8C246.4,157.8,234.3,145.8,219.5,145.8z M231.3,221.5c0,6.5-5.3,11.7-11.7,11.7h-48.8c-6.5,0-11.7-5.3-11.7-11.7v-48.8
			c0-6.5,5.3-11.7,11.7-11.7h48.8c6.5,0,11.7,5.3,11.7,11.7V221.5z"/>
		<path class="st1" d="M332.1,145.8h-48.9c-14.8,0-26.8,12-26.8,26.8v48.8c0,14.8,12,26.8,26.8,26.8h48.9c14.8,0,26.8-12,26.8-26.8
			v-48.8C359,157.8,346.9,145.8,332.1,145.8z M343.9,221.5c0,6.5-5.3,11.7-11.7,11.7h-48.9c-6.5,0-11.7-5.3-11.7-11.7v-48.8
			c0-6.5,5.3-11.7,11.7-11.7h48.9c6.5,0,11.7,5.3,11.7,11.7V221.5z"/>
		<path class="st1" d="M219.5,256.7h-48.8c-14.8,0-26.8,12-26.8,26.8v48.8c0,14.8,12,26.8,26.8,26.8h48.8c14.8,0,26.8-12,26.8-26.8
			v-48.8C246.4,268.7,234.3,256.7,219.5,256.7z M231.3,332.3c0,6.5-5.3,11.7-11.7,11.7h-48.8c-6.5,0-11.7-5.3-11.7-11.7v-48.8
			c0-6.5,5.3-11.7,11.7-11.7h48.8c6.5,0,11.7,5.3,11.7,11.7V332.3z"/>
		<path class="st1" d="M332.1,256.7h-48.9c-14.8,0-26.8,12-26.8,26.8v48.8c0,14.8,12,26.8,26.8,26.8h48.9c14.8,0,26.8-12,26.8-26.8
			v-48.8C359,268.7,346.9,256.7,332.1,256.7z M343.9,332.3c0,6.5-5.3,11.7-11.7,11.7h-48.9c-6.5,0-11.7-5.3-11.7-11.7v-48.8
			c0-6.5,5.3-11.7,11.7-11.7h48.9c6.5,0,11.7,5.3,11.7,11.7V332.3z"/>
	</g>
	<g>
		<g class="st1">
			<path d="M314.3,234.8c-1.1-3.4-4-5.8-7.6-6.4l-30.5-4.4l-13.6-27.7c-1.6-3.2-4.8-5.2-8.4-5.2c-3.6,0-6.8,2-8.4,5.2L232.2,224
				l-30.5,4.4c-3.6,0.5-6.5,3-7.6,6.4c-1.1,3.4-0.2,7.1,2.4,9.6l22.1,21.5l-5.2,30.4c-0.6,3.5,0.8,7.1,3.7,9.2
				c1.6,1.2,3.6,1.8,5.5,1.8c1.5,0,3-0.4,4.4-1.1l27.3-14.4l27.3,14.4c3.2,1.7,6.9,1.4,9.9-0.7c2.9-2.1,4.3-5.6,3.7-9.2l-5.2-30.4
				l22.1-21.5C314.5,241.9,315.5,238.2,314.3,234.8z M277.1,257.2c-2.2,2.2-3.2,5.2-2.7,8.3l3.7,21.8L258.6,277
				c-2.7-1.4-6-1.4-8.7,0l-19.6,10.3l3.7-21.8c0.5-3-0.5-6.1-2.7-8.3l-15.8-15.4l21.8-3.2c3.1-0.4,5.7-2.4,7.1-5.1l9.8-19.8
				l9.8,19.9c1.4,2.7,4,4.7,7,5.1l21.9,3.2L277.1,257.2z"/>
		</g>
		<g class="st1">
			<g>
				<path d="M250.7,138.4h-0.3c-30.2,0-58.6,11.7-80,33c-21.6,21.5-33.6,50.2-33.6,80.8c-0.1,30.4,11.7,59,33.3,80.5
					c21.5,21.5,50.1,33.4,80.6,33.4h0.1c30.4,0,58.9-11.8,80.4-33.3c21.5-21.5,33.4-50.2,33.4-80.7
					C364.5,189.7,313.5,138.6,250.7,138.4z M318,320c-18,17.8-41.8,27.6-67.2,27.6h-0.4c-52.9-0.2-94.7-42.1-95.2-95.4v-0.1
					c0.7-53.4,42.6-95.1,95.3-95.1h0.3c53.3,0.2,95.1,42,95.1,95.3C345.9,278,336,302,318,320z"/>
			</g>
		</g>
	</g>
	<path d="M364.3,219.1c0-1.7,0-3.3-0.2-5c-1.2-17.6-14.7-30.9-32.2-31.5c-7.5-0.2-15.1-0.2-22.5-0.2c-3.3,0-6.7,0-10,0h-1l0-2.1
		c0-2.9,0-5.7,0-8.6c0-12.5-8.8-21.2-21.2-21.2h-54.9c-12.9,0-21.6,8.7-21.6,21.6v10.2l-10.1,0c-7,0-14.1,0-21.1,0
		c-12,0.1-21.6,4.9-28.5,14.3c-4.2,5.7-6.2,12.7-6.2,21.2c0,20.7,0,41.4,0,62.1l0,37.3c0,1.7,0,3.3,0.2,5
		c1.2,17.9,15.4,31.5,32.9,31.5c26,0,52.1,0.1,78.1,0.1c28.2,0,56.5,0,84.7,0c13.9,0,25.8-8.1,31.1-21.2c1.7-4.1,2.4-8.6,2.4-14.6
		C364.3,285.1,364.3,252.1,364.3,219.1z M266.2,264.3c-0.2,3-0.3,5.8-1,8.4c-1.8,6.8-9.2,11.7-16.7,11.1c-7.6-0.6-14-6.6-14.9-13.8
		c-0.2-2.1-0.2-4.2-0.1-6.4c0-0.2,0-0.5,0-0.7c10.9,3.8,21.6,3.7,32.8-0.2C266.2,263.2,266.2,263.8,266.2,264.3z M350,217.4
		c-0.1,0.1-0.3,0.3-0.3,0.4c-15.9,5.8-31.9,11.5-47.8,17.3l-8.1,2.9c-11.2,4-22.5,8.1-33.7,12c-6.9,2.4-14.1,2.3-21.4-0.2
		c-19.3-6.8-38.5-13.6-57.8-20.5l-31.7-11.3c-0.2-7.6,2.4-13.2,7.8-17.4c3-2.3,6.5-3.6,10.3-3.8c1-0.1,2-0.1,3-0.1h44.5
		c38.1,0,76.2,0,114.3,0c0,0,0,0,0,0c8.1,0,13.9,2.9,17.8,8.8C349.3,209.2,350.4,213.2,350,217.4z M219,258.7c0,1.3,0,2.7,0,4
		c0,4,0,8.2,0.8,12.2c2.2,10.4,9.7,18.7,20,22.1c10.5,3.4,21.6,1.2,29.7-6c7.3-6.5,10.8-14.8,10.4-24.7c-0.1-1.3,0-2.6,0-3.8
		c0-1.4,0-2.8,0-4.2c0-0.3,0-0.5,0-0.5c0,0,0.1-0.1,0.6-0.3c10.5-3.7,21-7.4,31.5-11.1l37.8-13.5l0,86.9c0,11.6-8.4,20-19.9,20
		H169.2c-11.4,0-19.7-8-20.1-19.4c-0.1-2.4-0.1-4.8-0.1-7.2l0-80.3l26.1,9.3c14.3,5.1,28.6,10.2,42.9,15.2
		C218.9,257.7,219,257.7,219,258.7z M215,170.5c0.1-3.2,2.8-5.7,6.1-5.7c19-0.1,37.9-0.1,56.9,0c3.7,0,6.3,2.6,6.3,6.4c0,3,0,6,0,9
		v2.1h-69.4c0-0.8,0-1.7,0-2.5C214.9,176.7,214.8,173.6,215,170.5z"/>
	<g class="st1">
		<path d="M320.1,293.1c0-0.1-0.1-0.2-0.1-0.4l-0.3-0.9c-0.1-0.1-1.2-2-2.9-4.5c-1.3-1.8-2.9-3.9-4.7-6c-0.2-0.3-0.5-0.5-0.7-0.8
			c-0.5-0.6-1-1.2-1.6-1.7l-0.1-0.1l-0.2-0.2c-0.6-0.5-1.2-1.1-1.9-1.6c-1.9-1.5-3.7-2.8-5.7-4c-1.3-0.8-2.8-1.5-4.2-2.2
			c-0.4-0.2-0.8-0.3-1.2-0.5c-1-0.4-2-0.8-3-1.2c-0.4-0.1-0.9-0.3-1.3-0.4c-0.3-0.1-0.6-0.2-0.9-0.3c-1.5-0.4-3.1-0.8-4.7-1.1
			c0,0,0,0,0,0c-2.9-0.5-5.9-0.8-8.9-0.8H277c-17.7,0.1-32.3,0.1-46,0c-0.2,0-0.3,0-0.5,0c-1.1,0-2.3,0-3.4,0.1
			c-3.6,0.2-7.1,0.8-10.5,1.8c-0.6,0.1-1.2,0.3-1.8,0.5c-0.1,0-0.2,0-0.3,0.1c0,0,0,0,0,0c-1.1,0.3-2.1,0.7-3.1,1.2
			c-0.6,0.3-1.1,0.5-1.7,0.7l0,0c-0.7,0.4-1.5,0.7-2.1,1.1c-0.9,0.5-1.9,1-2.8,1.6c-1.1,0.7-2.1,1.4-3.1,2.1
			c-0.5,0.3-0.9,0.7-1.4,1.1c-0.4,0.4-0.9,0.7-1.3,1.1c-0.2,0.2-0.5,0.5-0.7,0.8c-0.5,0.5-1.1,1.1-1.7,1.8
			c-2.9,3.2-6.6,7.8-8.9,12.8c-0.3,0.6-0.5,1.2-0.7,1.8c-2.4,5.7-3.5,11.7-3.5,18.4c0,6.2,0,12.4,0,18.5h1.8h1.8h6.4h1.8h1.8
			c0-6.3,0-12.5,0-18.7c0-5.4,1.3-10.6,4-15.7c0.8-1.5,1.6-2.8,2.5-4c1.4-2,3-3.9,4.7-5.5c1.4-1.3,2.9-2.4,4.6-3.4
			c3.4-2,7.2-3.3,11.6-4c0.8-0.1,1.6-0.2,2.4-0.2h20.8c0.8,0,1.7,0,2.5,0c0.8,0,1.6,0,2.4,0h9.1c1.5,0,3.1,0,4.6,0
			c2.9,0,5.9,0,8.8,0c1.5,0,3,0,4.5,0c2.8,0,5.5,0.5,8.1,1.3c1.4,0.4,2.8,1,4.1,1.7c1.5,0.7,2.8,1.5,4.1,2.4
			c7,4.8,12.1,12.4,13.3,21c0,0.1,0,0.1,0,0.2c0.3,2.2,0.4,4.2,0.5,6.2V332h1.8h1.8h7.2h1.8h1.8c0-6.3,0-12.6,0-18.9
			c0-6.1-0.9-11.6-2.9-16.8C321,295.3,320.6,294.2,320.1,293.1z"/>
		<path d="M217.4,230c0.3,0.8,0.7,1.6,1.1,2.4c0.3,0.6,0.5,1.2,0.9,1.7c0.3,0.5,0.6,1.1,0.9,1.6l0.8,1.2c1.1,1.6,2.3,3.2,3.6,4.6
			c0.1,0.1,0.2,0.2,0.3,0.3c0.2,0.2,0.4,0.5,0.6,0.7c0.1,0.1,0.2,0.2,0.3,0.3c0.4,0.4,0.9,0.9,1.3,1.3c3.3,3,7,5.4,11.2,7.2
			c1.5,0.7,3,1.2,4.6,1.6h0c1.7,0.5,3.4,0.8,5.1,1.1c0.5,0.1,1,0.1,1.5,0.2c0,0,0,0,0,0c1.2,0.1,2.4,0.2,3.6,0.2h0.4c0,0,0,0,0.1,0
			c1.1,0,2.1,0,3.2-0.1c2.4-0.2,4.7-0.6,6.9-1.2c5.2-1.4,10.1-3.8,14.3-7.2c0.5-0.4,0.9-0.8,1.4-1.2c0.5-0.4,0.9-0.8,1.3-1.2
			c0.3-0.2,0.5-0.4,0.7-0.7c1.5-1.5,2.9-3.1,4.1-4.8c0.4-0.5,0.7-1,1-1.5c0.3-0.5,0.7-1.1,1-1.6c0.5-0.9,1-1.7,1.4-2.7
			c0.1,0,0.1-0.1,0.1-0.2c2.4-5,3.7-10.5,3.7-16.2c0-6.2-1.3-12.1-3.8-17.3c0,0,0,0,0,0c-0.6-1.2-1.2-2.4-1.9-3.6
			c-0.3-0.5-0.7-1.1-1-1.6c-0.4-0.5-0.7-1-1.1-1.5c-1.3-1.7-2.7-3.3-4.3-4.9c-0.4-0.4-0.9-0.8-1.3-1.2c-0.5-0.4-1-0.8-1.5-1.2
			c-2.8-2.2-5.8-4-9.1-5.3c-2.2-0.9-4.5-1.7-6.9-2.2c-2.4-0.5-4.9-0.8-7.5-0.8h-0.7c-1.4,0-2.8,0.1-4.1,0.2
			c-1.9,0.2-3.7,0.5-5.5,0.9c-1.8,0.4-3.6,1-5.2,1.6c-4.5,1.8-8.4,4.3-11.8,7.4c-0.5,0.4-0.9,0.8-1.3,1.3c-0.4,0.4-0.8,0.8-1.2,1.3
			c-0.2,0.2-0.3,0.4-0.5,0.6c-1.2,1.5-2.4,3-3.4,4.6c-0.1,0.1-0.1,0.1-0.1,0.2c-0.3,0.4-0.5,0.9-0.8,1.3c-0.3,0.6-0.7,1.2-0.9,1.7
			c-0.7,1.3-1.2,2.6-1.7,3.9c-1.5,4-2.3,8.1-2.4,12.2C214.5,219.3,215.4,224.9,217.4,230C217.4,230,217.4,230,217.4,230z M234.2,199
			c0.4-0.5,0.8-1,1.3-1.5c3.1-3.3,7.2-5.7,11.7-6.9c0.1,0,0.2-0.1,0.3-0.1c1.2-0.3,2.3-0.5,3.6-0.6c0.5-0.1,1-0.1,1.5-0.1
			c0.4-0.1,0.8-0.1,1.2-0.1c0,0,0.1,0,0.1,0c0.4,0,0.7,0,1.1,0c1,0,1.9,0.1,2.9,0.3c4.1,0.6,8,2.3,11.2,4.8c0.5,0.4,1,0.7,1.4,1.2
			c0.1,0.1,0.3,0.2,0.4,0.3c0.3,0.2,0.5,0.4,0.7,0.7c0.1,0.1,0.1,0.2,0.2,0.3c1.7,1.8,3.2,3.8,4.3,6c0.1,0.1,0.1,0.3,0.2,0.4
			c0.4,0.7,0.7,1.3,0.9,2c0.4,1,0.7,2,0.9,3.1c0.5,2,0.7,4.1,0.7,6.2c0,1.9-0.2,3.7-0.7,5.5c0,0.1,0,0.3-0.1,0.4
			c-0.2,0.9-0.5,1.8-0.8,2.7c-0.3,0.8-0.6,1.6-1.1,2.4c-0.6,1.3-1.3,2.5-2.2,3.6c-0.8,1-1.6,2-2.5,2.9c-0.4,0.5-0.9,0.9-1.4,1.3
			c-0.5,0.4-0.9,0.8-1.4,1.1c-3.3,2.5-7.2,4.1-11.5,4.7c-0.9,0.1-1.8,0.2-2.7,0.2c-0.2,0-0.4,0-0.7,0h-0.5c-1.2,0-2.4-0.1-3.6-0.3
			c-0.1,0-0.2,0-0.3,0c-1.7-0.3-3.4-0.7-4.9-1.4c-3.1-1.2-6-3.1-8.4-5.5c-0.1-0.1-0.1-0.1-0.2-0.2c-0.4-0.5-0.9-0.9-1.3-1.5
			c-0.5-0.5-0.9-1.1-1.3-1.7c-2.1-3.1-3.6-6.5-4.2-10.3c-0.3-1.5-0.4-3.1-0.4-4.7c0-1.4,0.1-2.8,0.4-4.2c0.6-3.5,2-6.7,4-9.5
			C233.4,200,233.8,199.5,234.2,199z"/>
		<path d="M315.6,121.7H185.3c-23,0-41.7,18.7-41.7,41.7v174.2c0,23,18.7,41.7,41.7,41.7h130.3c23,0,41.7-18.7,41.7-41.7V163.4
			C357.3,140.4,338.6,121.7,315.6,121.7z M339.1,337.6c0,13-10.5,23.5-23.5,23.5H185.3c-13,0-23.5-10.5-23.5-23.5V163.4
			c0-13,10.5-23.5,23.5-23.5h130.3c13,0,23.5,10.5,23.5,23.5V337.6z"/>
	</g>
</g>
<g id="Layer_4">
	<g class="st0">
		<g class="st1">
			<path d="M204.4,246.4h-38.8c-14,0-25.4-11.4-25.4-25.4v-38.8c0-14,11.4-25.4,25.4-25.4h38.8c14,0,25.4,11.4,25.4,25.4V221
				C229.8,235,218.4,246.4,204.4,246.4z M165.6,171c-6.1,0-11.1,5-11.1,11.1V221c0,6.1,5,11.1,11.1,11.1h38.8
				c6.1,0,11.1-5,11.1-11.1v-38.8c0-6.1-5-11.1-11.1-11.1H165.6z"/>
		</g>
		<g class="st1">
			<path d="M357.7,175.3h-103c-4,0-7.2-3.2-7.2-7.2s3.2-7.2,7.2-7.2h103c4,0,7.2,3.2,7.2,7.2S361.7,175.3,357.7,175.3z"/>
		</g>
		<g class="st1">
			<path d="M345.8,208.8h-91.1c-4,0-7.2-3.2-7.2-7.2s3.2-7.2,7.2-7.2h91.1c4,0,7.2,3.2,7.2,7.2S349.7,208.8,345.8,208.8z"/>
		</g>
		<g class="st1">
			<path d="M315.4,242.6h-60.7c-4,0-7.2-3.2-7.2-7.2s3.2-7.2,7.2-7.2h60.7c4,0,7.2,3.2,7.2,7.2S319.4,242.6,315.4,242.6z"/>
		</g>
		<g class="st1">
			<path d="M204.4,348.9h-38.8c-14,0-25.4-11.4-25.4-25.4v-38.8c0-14,11.4-25.4,25.4-25.4h38.8c14,0,25.4,11.4,25.4,25.4v38.8
				C229.8,337.5,218.4,348.9,204.4,348.9z M165.6,273.5c-6.1,0-11.1,5-11.1,11.1v38.8c0,6.1,5,11.1,11.1,11.1h38.8
				c6.1,0,11.1-5,11.1-11.1v-38.8c0-6.1-5-11.1-11.1-11.1H165.6z"/>
		</g>
		<g class="st1">
			<path d="M357.7,274.6h-103c-4,0-7.2-3.2-7.2-7.2c0-4,3.2-7.2,7.2-7.2h103c4,0,7.2,3.2,7.2,7.2
				C364.9,271.4,361.7,274.6,357.7,274.6z"/>
		</g>
		<g class="st1">
			<path d="M320.8,308.1h-66.2c-4,0-7.2-3.2-7.2-7.2c0-4,3.2-7.2,7.2-7.2h66.2c4,0,7.2,3.2,7.2,7.2
				C328,304.9,324.8,308.1,320.8,308.1z"/>
		</g>
		<g class="st1">
			<path d="M347.7,341.8h-93c-4,0-7.2-3.2-7.2-7.2s3.2-7.2,7.2-7.2h93c4,0,7.2,3.2,7.2,7.2S351.6,341.8,347.7,341.8z"/>
		</g>
	</g>
	<g class="st0">
		<g class="st1">
			<path d="M251.7,357.8c-31.3,0-62.7,0-94,0c-10.5,0-18.6-6.1-20.9-15.8c-0.4-1.6-0.5-3.4-0.5-5c0-57.3,0-114.6,0-172
				c0-11.6,8.4-20.3,19.9-20.8c0.6,0,1.1,0,1.7,0c62.5,0,125,0,187.5,0c9.9,0,17.2,4.8,20.4,13.5c0.7,2,1.2,4.2,1.2,6.4
				c0.1,58,0.1,115.9,0,173.9c0,10.8-9.1,19.6-20.4,19.8c-5.2,0.1-10.4,0-15.5,0C304.7,357.8,278.2,357.8,251.7,357.8z M153.6,280.4
				c1.2-1.1,2-1.8,2.7-2.5c15.9-14.5,31.8-29.1,47.7-43.6c5.3-4.9,9.8-4.7,14.8,0.3c16.9,16.9,33.9,33.9,50.8,50.9
				c0.7,0.7,1,1.7,1.6,2.6c11.7-12.5,22.6-24.2,33.5-35.9c5.1-5.5,9.6-5.6,14.9-0.3c9.3,9.3,18.7,18.6,28,28c0.6,0.6,1.2,1.1,2.1,2
				c0-1.3,0-2,0-2.8c0-37.6,0-75.1,0-112.7c0-4.3-0.5-4.9-4.9-4.9c-62.1,0-124.2,0-186.3,0c-4.5,0-5,0.5-5,5c0,36.9,0,73.8,0,110.8
				C153.6,278.1,153.6,278.9,153.6,280.4z M312.5,269.2c-0.8,0.8-1.4,1.5-2,2.1c-10.6,11.4-21.1,22.8-31.8,34.1
				c-1.2,1.3-2.9,2.4-4.6,2.9c-3.7,1.1-6.7-0.6-9.3-3.2c-17.2-17.3-34.5-34.5-51.7-51.7c-0.6-0.6-1-1.4-1.5-2.1
				c-0.7,0.5-1,0.7-1.3,0.9c-18.5,16.9-37,33.7-55.4,50.6c-0.7,0.7-1.2,1.9-1.2,2.9c-0.1,10.2-0.1,20.4,0,30.6
				c0,3.4,0.8,4.2,4.1,4.2c62.7,0,125.3,0,188,0c3.3,0,4.1-0.8,4.1-4.2c0-9.2,0.1-18.5-0.1-27.7c0-1.2-0.6-2.7-1.5-3.5
				c-11.4-11.5-22.9-22.9-34.3-34.4C313.6,270.2,313.1,269.8,312.5,269.2z"/>
		</g>
		<g class="st1">
			<path d="M268.9,236.5c-17.4-0.1-31.8-14.6-31.6-31.8c0.2-17.5,14.5-31.7,31.9-31.6c17.5,0.1,31.8,14.5,31.7,32
				C300.7,222.4,286.3,236.6,268.9,236.5z M283.4,205c0-8.3-6.4-14.6-14.8-14.6c-7.6,0-13.9,6.6-13.9,14.5c0,7.9,6.4,14.3,14.4,14.4
				C276.9,219.4,283.3,212.9,283.4,205z"/>
		</g>
	</g>
	<g class="st0">
		<g class="st1">
			<path d="M145,339.5c3.1,0,5.5,0,7.8,0c68.1,0,136.3,0,204.4,0c1.8,0,3.7-0.1,5.5,0.1c5.1,0.4,8.6,3.8,8.4,8.4
				c-0.1,4.9-2.9,7.8-7.7,8.6c-1.8,0.3-3.7,0.2-5.5,0.2c-72.4,0-144.7,0-217.1,0c-10.8,0-13.1-2.4-13.1-13.4c0-60.8,0-121.5,0-182.3
				c0-8.7,2.7-12.9,8.4-13c5.9-0.1,8.8,4.4,8.8,13.3c0,56.9,0,113.8,0,170.7C145,334.4,145,336.5,145,339.5z"/>
		</g>
		<g class="st1">
			<path d="M265.7,259.6c25.9-20.6,51.5-41,77.1-61.4c1.7-1.4,3.4-2.8,5.2-4.1c4.3-2.9,8.8-2.5,11.9,1.1c3.1,3.7,2.7,8.8-1.4,12.3
				c-8.2,6.8-16.6,13.4-25,20.1c-19.9,15.8-39.7,31.7-59.6,47.5c-6.1,4.8-8.6,4.9-15.3,0.5c-13.3-8.9-26.6-17.9-39.9-26.8
				c-0.7-0.5-1.5-0.9-2.6-1.5c-11.1,14.9-22.2,29.6-33.2,44.3c-4.4,5.9-8.8,11.8-13.3,17.7c-3.8,5-8.6,6-12.8,2.7
				c-4-3.1-4.3-8.3-0.6-13.2c16.6-22.3,33.3-44.5,50-66.7c4.6-6.1,8.2-6.7,14.6-2.5C235.6,239.3,250.4,249.3,265.7,259.6z"/>
		</g>
	</g>
	<g class="st0">
		<g class="st1">
			<path d="M332.6,152.1H172.8c-17.2,0-29.7,12.4-29.7,29.6c0,30,0,60,0,90c0,2.2,0.1,4.1,0.5,5.7c2.6,13.9,14.3,23.7,28.5,23.7
				c15.4,0,30.8,0,46.1,0h22c4,0,5.4,1.4,5.5,5.4v21.9c0,1.2,0,2.3,0,3.5c0,3.1-0.1,6.3,0.2,9.3c0.5,5.7,3.7,9.7,9.3,11.6
				c5.6,1.9,10.5,0.7,14.7-3.5c4.9-5,9.8-10.1,14.7-15.2c2.8-3,5.7-5.9,8.5-8.9c2.1-2.1,4.2-4.2,6.2-6.3c4.7-4.9,9.6-9.9,14.3-14.9
				c2-2.2,4.2-3.1,7.1-3c3,0.1,5.9,0.1,8.9,0.1l3.2,0c16.7,0,29.4-12.7,29.4-29.4v-90.2C362,164.8,349.3,152.1,332.6,152.1z
				 M345.6,271.6c0,7.9-5.1,13-13,13.1c-5.6,0.1-11.3-0.1-17,0.3c-4.6,0.3-8.8,2.3-12.5,6.2l-11.8,12.2
				c-7.2,7.4-14.3,14.9-21.5,22.3c-1.3,1.3-2.7,2.6-4.1,3.9c-0.7,0.6-1.3,1.2-2,1.8l-1.5,1.4v-26.5c0-12.7-8.9-21.6-21.5-21.6
				c-11.7,0-23.5,0-35.2,0h-32.8c-6.6,0-11.6-4-12.8-10.2c-0.1-0.9-0.2-1.9-0.2-2.8v-90c0-8,5.1-13.1,13.1-13.1
				c53.2,0,106.4,0,159.7,0c8.1,0,13.2,5,13.2,13.2V271.6z"/>
		</g>
		<g class="st1">
			<path d="M266.4,226.7c-0.1,7.3-6.2,13.2-13.4,13.2h-0.2c-3.6,0-7.1-1.5-9.6-4.2c-2.5-2.6-3.9-6-3.8-9.6
				c0.1-7.4,6.1-13.2,13.4-13.2h0.2c3.7,0,7.1,1.5,9.6,4.2C265.2,219.7,266.5,223.1,266.4,226.7z"/>
		</g>
		<g class="st1">
			<path d="M310.5,226.4c0,3.6-1.4,7.1-4,9.6c-2.6,2.6-5.9,3.9-9.6,3.9c-7.5,0-13.4-5.9-13.4-13.5c0-3.6,1.4-7,4-9.6
				c2.6-2.6,5.9-4,9.5-3.9C304.5,213,310.5,219,310.5,226.4z"/>
		</g>
		<g class="st1">
			<path d="M222.3,226.4c0,3.6-1.4,7-4,9.6c-2.6,2.6-5.9,4-9.6,4c-7.4,0-13.4-6-13.4-13.4c0-3.6,1.4-7.1,3.9-9.6
				c2.5-2.6,5.9-3.9,9.6-3.9C216.3,213,222.3,219,222.3,226.4z"/>
		</g>
	</g>
	<g class="st0">
		<g class="st1">
			<g>
				<path d="M358.3,167.5c0-1.6-0.3-3.4-0.9-4.9c-2.4-6.7-8.1-10.4-15.7-10.4H196.4c-8.9,0.4-15.3,7.1-15.3,16v6.8h13.3v-5.7
					c0-3.5,0.4-3.8,3.9-3.8h143.1c3.4,0,3.8,0.4,3.8,3.7v88.6c-0.1-0.1-0.1-0.1-0.1-0.1v19.9c0.1,0.3,0.1,0.5,0.1,0.7
					c0.1,7.1,0.1,14.2,0.1,21.3c0,2.6-0.6,3.2-3.2,3.2h-7.8v13.3c2.9,0,5.7,0,8.5,0c8.7-0.2,15.7-6.9,15.7-15.2
					C358.3,256.5,358.3,212,358.3,167.5z"/>
			</g>
		</g>
		<g class="st1">
			<g>
				<path d="M235.3,352.8c-24.1,0-48.1,0-72.2,0c-8.1,0-14.3-4.7-16-12.1c-0.3-1.3-0.4-2.6-0.4-3.9c0-44,0-88,0-132
					c0-8.9,6.4-15.6,15.3-16c0.4,0,0.9,0,1.3,0c48,0,96,0,144,0c7.6,0,13.2,3.7,15.7,10.3c0.6,1.5,0.9,3.3,0.9,4.9
					c0,44.5,0,89,0,133.5c0,8.3-7,15.1-15.7,15.2c-4,0.1-8,0-11.9,0C275.9,352.8,255.6,352.8,235.3,352.8z M159.9,293.3
					c0.9-0.8,1.5-1.4,2.1-1.9c12.2-11.2,24.4-22.3,36.6-33.4c4.1-3.7,7.5-3.6,11.4,0.2c13,13,26,26,39,39.1c0.5,0.5,0.8,1.3,1.2,2
					c8.9-9.6,17.3-18.6,25.7-27.6c4-4.2,7.4-4.3,11.5-0.2c7.2,7.2,14.4,14.3,21.5,21.5c0.4,0.4,0.9,0.9,1.6,1.5c0-1,0-1.6,0-2.1
					c0-28.8,0-57.7,0-86.5c0-3.3-0.4-3.7-3.8-3.7c-47.7,0-95.4,0-143,0c-3.5,0-3.9,0.4-3.9,3.8c0,28.3,0,56.7,0,85
					C159.9,291.6,159.9,292.2,159.9,293.3z M281.9,284.7c-0.6,0.6-1.1,1.1-1.5,1.6c-8.1,8.7-16.2,17.5-24.4,26.2
					c-0.9,1-2.2,1.8-3.5,2.2c-2.9,0.9-5.1-0.4-7.1-2.5c-13.2-13.2-26.5-26.5-39.7-39.7c-0.5-0.5-0.8-1.1-1.2-1.6
					c-0.6,0.4-0.8,0.5-1,0.7c-14.2,12.9-28.4,25.9-42.5,38.9c-0.5,0.5-0.9,1.5-0.9,2.2c-0.1,7.8,0,15.7,0,23.5
					c0,2.6,0.6,3.2,3.2,3.2c48.1,0,96.2,0,144.3,0c2.6,0,3.2-0.6,3.2-3.2c0-7.1,0-14.2,0-21.3c0-0.9-0.5-2.1-1.1-2.7
					c-8.7-8.8-17.5-17.6-26.3-26.4C282.8,285.5,282.4,285.2,281.9,284.7z"/>
			</g>
			<g>
				<path d="M248.4,259.6c-13.4-0.1-24.4-11.2-24.3-24.4c0.2-13.4,11.2-24.3,24.5-24.3c13.4,0,24.4,11.1,24.3,24.6
					C272.9,248.8,261.8,259.7,248.4,259.6z M259.6,235.4c0-6.4-4.9-11.2-11.4-11.2c-5.8,0-10.7,5.1-10.6,11.2c0,6.1,4.9,11,11,11
					C254.6,246.5,259.5,241.5,259.6,235.4z"/>
			</g>
		</g>
	</g>
	<g class="st0">
		<g class="st1">
			<path d="M362.4,184.4c-1.5-4.1-5.3-6.5-10.2-6.5c-19.1,0-38.1,0-57.2,0h-27c-27.5,0-55,0-82.5,0c0,0,0,0,0,0
				c-1.5,0-2.5-0.4-2.9-2.3c-0.9-4.7-1.9-9.7-3.2-15.4c-1.2-5.3-5.9-9.1-11.3-9.2c-10.9-0.1-20.7-0.1-30.2,0c-1.2,0-2.6,0.4-3.9,1.1
				c-2.9,1.6-4.3,5.1-3.4,8.5c0.9,3.2,3.8,5.5,7.2,5.5c7.4,0,16,0.1,24.8,0h0.1c1.8,0,2.7,0.7,3.1,2.6c0.7,3.5,1.4,7,2.2,10.5
				l7.8,36.8c5.9,27.9,11.8,55.8,17.7,83.8c1.5,7.2,5.8,10.7,13.1,10.7H330l0.5,0c0.4,0,0.9,0,1.4,0c2.2-0.1,4.3-1.2,5.6-3
				c1.3-1.8,1.8-4.1,1.3-6.3c-0.9-3.7-3.8-5.8-8.1-5.8l-119.5,0c-0.1,0-0.3,0-0.4,0c-0.4,0-0.8,0-1.3-0.1c-0.5-0.1-1.4-0.6-1.6-1.3
				c-0.5-2.4-1-4.7-1.5-7.2l-0.7-3.1h127.2c6.6,0,11.2-3.7,12.5-10.2c1.5-7.1,3-14.1,4.5-21.1l5-23.4c2.7-12.7,5.3-25.3,8-38
				C363.2,188.4,363.1,186.3,362.4,184.4z M338.5,231.9c-2.4,11.3-4.8,22.5-7.1,33.8c-0.4,1.7-1,2.8-3.3,2.8h0c-34,0-68,0-101.9,0
				h-23.8l-0.1-0.6l-15.8-74.7h160.3L338.5,231.9z"/>
		</g>
		<g class="st1">
			<path d="M327.1,338.1c0,8.8-7.2,16-15.9,16c0,0,0,0,0,0c-8.8,0-16-7.2-16-16c0-8.8,7.2-15.9,16-15.9c4.3,0,8.3,1.7,11.3,4.7
				C325.5,329.9,327.1,333.9,327.1,338.1z"/>
		</g>
		<g class="st1">
			<path d="M238,338.1c0,4.2-1.6,8.2-4.6,11.3c-3,3-7,4.7-11.3,4.7h0c-4.2,0-8.2-1.7-11.2-4.6c-3-3-4.7-7-4.7-11.3
				c0-4.3,1.7-8.3,4.7-11.3c3-3,7-4.7,11.2-4.7c0,0,0,0,0,0C230.8,322.2,238,329.3,238,338.1z"/>
		</g>
	</g>
	<g class="st0">
		<path class="st3" d="M252.3,303.2c1.1,0,2.2,0,3.4,0c1.4,0,2.8,0,4.2,0c8.4-0.2,15.1-6.6,15.1-14.7c0-40.5,0-81,0-121.5
			c0-1.5-0.3-3.2-0.9-4.7c-2.3-6.3-7.8-10-15-10H127.8c-0.4,0-0.7,0-1.1,0c-8.5,0.4-14.7,6.8-14.7,15.4c0,40,0,80.1,0,120.1
			c0,1.5,0.1,2.7,0.4,3.7c1.7,7.1,7.7,11.6,15.4,11.7c15.3,0,30.6,0,46,0l75.2,0L252.3,303.2z M261.1,247.3l-19.6-19.5
			c-2-2-3.9-3-5.8-3c0,0-0.1,0-0.1,0c-1.9,0-3.8,1.1-5.8,3.2c-5.3,5.6-10.5,11.2-15.9,17l-6.7,7.2c-0.2-0.3-0.4-0.7-0.7-1
			c-11-11.1-22.1-22.1-33.1-33.2l-2.4-2.4c-2-2-3.9-3-5.8-3c-1.8,0-3.7,0.9-5.7,2.7c-7.9,7.2-15.9,14.5-23.8,21.8l-10,9.2v-77.7
			c0-2.7,0-2.7,2.7-2.7h130.1c2.6,0,2.6,0,2.6,2.6L261.1,247.3C261.1,247.4,261.1,247.4,261.1,247.3z M125.8,266
			c0-0.5,0.3-1.1,0.6-1.4c10.9-10,21.9-20.1,32.9-30.1l5.8-5.3c0,0,0.1-0.1,0.1-0.1c0.2,0.3,0.4,0.6,0.7,0.9l16,16.1
			c6.7,6.7,13.4,13.4,20.1,20.1c1.5,1.5,4,3.5,7.3,2.5c1.3-0.4,2.6-1.2,3.6-2.3c5.7-6,11.3-12,16.9-18.1l6.2-6.6
			c0.2,0.2,0.3,0.3,0.5,0.5l4.9,4.9c6.4,6.4,12.7,12.7,19.1,19.1c0.4,0.4,0.8,1.3,0.8,1.9c0.1,5.2,0.1,10.5,0,15.7l0,3.6
			c0,1.9-0.2,2.1-2.1,2.1H127.8c-1.9,0-2-0.2-2.1-2.1l0-2.9C125.7,278.2,125.7,272.1,125.8,266z"/>
		<path class="st3" d="M205.6,172.5C205.6,172.5,205.5,172.5,205.6,172.5c-12.6,0-22.9,10.3-23.1,22.9c-0.1,6,2.2,11.7,6.5,16.1
			c4.4,4.5,10.2,7,16.4,7c0,0,0.1,0,0.1,0c6,0,11.8-2.4,16.1-6.7c4.4-4.3,6.8-10.1,6.9-16.1c0-6.1-2.4-11.9-6.7-16.3
			C217.5,175,211.7,172.5,205.6,172.5z M211.9,202.2c-1.7,1.7-4,2.6-6.3,2.6c0,0-0.1,0-0.1,0c-5.1,0-9.2-4.2-9.2-9.2
			c0-5,4-9.3,8.9-9.3c0,0,0,0,0,0c2.7,0,5.1,1,6.9,2.7c1.7,1.7,2.7,4.1,2.6,6.6C214.7,198.1,213.7,200.4,211.9,202.2z"/>
		<path class="st3" d="M393,216.5c0-1.6-0.3-3.3-0.9-4.8c-2.3-6.3-7.8-10-15-10h-90l0,4.9c0,2.7,0,5.4,0,8.1l0,0.8h89.7
			c2.6,0,2.6,0,2.6,2.6v78.7c0,0,0,0,0,0c-6.5-6.5-13.1-13-19.6-19.5c-2-2-3.9-3-5.7-3c0,0-0.1,0-0.1,0c-1.9,0-3.8,1.1-5.8,3.2
			c-3.8,4.1-7.7,8.2-11.6,12.4l-11.1,11.9c-0.2-0.4-0.4-0.7-0.7-1c-11.3-11.3-22.6-22.6-33.9-33.9l-1.6-1.6
			c-0.3-0.3-0.6-0.5-0.8-0.7l-1.4-1.2v19.3l33,33c1.5,1.5,3.9,3.5,7.3,2.5c1.3-0.4,2.6-1.2,3.6-2.2c5-5.3,10-10.6,14.9-16l7.3-7.9
			c0.2-0.3,0.5-0.6,0.8-0.9c0.2,0.2,0.3,0.3,0.5,0.5c2.6,2.6,5.3,5.3,7.9,7.9c5.4,5.4,10.7,10.7,16,16.1c0.4,0.4,0.8,1.3,0.8,1.9
			c0.1,6.5,0.1,13,0,19.4c0,1.9-0.2,2.1-2.1,2.1H245.9c-1.9,0-2.1-0.2-2.1-2.1l0-5.3c0-5.1,0-10.3,0-15.4l0-0.8h-13.7v22
			c0,1.5,0.1,2.7,0.4,3.7c1.7,7.1,7.7,11.6,15.4,11.6H367c1.2,0,2.4,0,3.6,0c1.2,0,2.4,0,3.6,0c1.2,0,2.4,0,3.6,0
			c8.5-0.2,15.1-6.6,15.1-14.7C393,297.5,393,257,393,216.5z"/>
		<path class="st3" d="M345.8,245.1c0.1-12.2-9.9-22.3-22.1-22.4c-12.1,0-22.1,9.9-22.3,22.1c-0.2,12,9.9,22.2,22.1,22.2
			C335.7,267.2,345.8,257.2,345.8,245.1z M313.6,245c0-5.5,4.4-10.1,9.7-10.1c5.9,0,10.4,4.4,10.4,10.2c0,5.6-4.5,10.1-10,10
			C318.1,255,313.6,250.5,313.6,245z"/>
	</g>
	<path id="Partnership_1_" class="st0" d="M418,181.4c-8.4-10.8-16.8-21.5-25.2-32.2c-8.9-11.3-22.6-13.7-34.9-6l-8.2,5.1
		c-5.1,3.2-10.1,6.3-15.2,9.4c-7.2,4.4-14.8,4.8-22.6,1.1c-3.4-1.6-6.7-3.2-10.1-4.9c-4.2-2.1-8.4-4.1-12.7-6.1
		c-12.1-5.6-23.9-5-34.9,2c-2.3,1.5-3.5,1.5-5.4,0.3c-1.2-0.8-2.5-1.4-3.8-2l-1.1-0.5c-11.1-5.3-22.7-5.9-34.6-1.6
		c-3.8,1.4-7.6,3-11.2,4.6c-1.6,0.7-3.1,1.4-4.7,2c-9,3.8-17.6,3.8-26.5,0c-4.8-2-9.5-4.1-14.3-6.1c-12.6-5.3-26-2.3-35,7.7
		c-10.2,11.3-20.4,22.7-30.5,34.1c-4.6,5.2-6.8,11.2-6.4,17.3c0.4,6.1,3.5,11.8,8.8,16.4c5,4.3,10,8.5,15,12.8l8.2,7
		c1.3,1.1,2.5,2.2,3.8,3.3l0.3,0.2c-1.1,1.1-2.1,2.2-3.2,3.3c-3.4,3.5-6.6,6.8-9.8,10.3c-8.6,9.7-8.1,23.2,1.2,32.1
		c2.4,2.3,5,4.2,7.8,6.1c0.9,0.6,1.7,1.2,2.6,1.8c-3.3,9.2-1.4,17.9,5.8,25.3c7.4,7.7,16,10.3,25.5,7.7c2.6,6.7,7.3,11.9,14.2,15.5
		c6.6,3.5,13.7,3.5,21.1,0c0.1,0.1,0.1,0.2,0.2,0.3c0.8,1.5,1.6,3,2.6,4.3c1.7,2.3,3.7,4.2,5.1,5.5c10.2,9.2,24.1,8.6,33.7-1.4
		c2.6-2.7,5.4-5.2,8.2-7.6c0.9-0.8,1.8-1.6,2.8-2.5c0,0,0,0,0.1,0.1c1.6,1.5,3.2,3,4.8,4.5c3.3,3.1,6.6,6.2,10,9.2
		c4.6,4.1,10.1,6.1,15.6,6.1c6.2,0,12.4-2.6,17.1-7.6c2.1-2.3,3.9-4.8,5.6-7.3c0.3-0.4,0.6-0.8,0.9-1.2c7.1,7.9,15.8,11.2,24.7,9.2
		c9.6-2.1,17.8-10.2,20.8-20.4c19.7-1,28-9.1,29.1-28.6c10.3-3.1,17.1-9.9,19.9-19.8c3.3-12.1-3.7-20.4-10.1-25.8l14.1-15.6
		c9.8-10.8,19.5-21.6,29.3-32.4C426.2,206.2,426.7,192.6,418,181.4z M306.4,250.3l-10.5,11.1l49,45.5c4.5,4.2,4.6,8.2,0.4,12.8
		c-2.4,2.6-4.7,4-6.9,4.2c-2.1,0.2-4.3-0.8-6.6-2.9l-42.6-39.4c-0.4-0.3-0.8-0.7-1.2-1.1l-2.1-1.8l-10.4,11l40.8,37.8
		c4.5,4.1,4.4,8.1-0.3,13.3c-2.1,2.3-4.2,3.5-6.4,3.6c-2,0.1-4.1-0.8-6.1-2.7c-8.6-7.9-17.2-15.8-25.8-23.8l-15.2-14.1l-10.5,11.3
		l20.5,18.9c4.3,4,4.5,8,0.6,12.3c-2.6,2.9-5.1,4.4-7.3,4.5c-2,0-4-0.8-6.1-2.7c-5.9-5.3-10.7-9.8-15.1-14.1
		c-0.2-0.2-0.4-0.9-0.4-1.1c2.4-7.2,1.4-15.2-2.7-21.8c-4.2-6.7-10.9-11.1-18.5-12l-2.4-0.3c-2.5-8.8-7-18.9-19.4-23
		c1.8-8.1-0.1-15.2-5.5-21.2c-4.3-4.7-10.3-10-19.3-10c-0.1,0-0.2,0-0.3,0c-2.4-11.6-9.5-19.3-20.6-22.3
		c-12.6-3.4-20.9,4.2-27.5,12.1l-1.1-0.9c-1.8-1.5-3.5-2.9-5.2-4.4c-7.1-6-14.1-12.1-21.2-18.1c-2.5-2.1-3.8-4.2-3.9-6.2
		c-0.1-2,0.8-4.1,2.9-6.4c10-11.3,20.1-22.6,30.2-33.9c4.4-4.9,10.9-6.3,17-3.8c3.5,1.4,6.9,2.9,10.4,4.4l4.2,1.8
		c12.8,5.4,25.8,5.4,38.7-0.1c1.5-0.6,3-1.3,4.5-1.9c3.3-1.5,6.7-2.9,10.1-4.2c8-3.1,15.6-2.8,23.1,0.8c-0.1,0.1-0.3,0.2-0.4,0.3
		c-1.6,1.1-3.3,2.3-4.9,3.4c-3.3,2.3-6.7,4.7-10,7.1c-10,7.4-12.3,20.2-5.5,31.1c4.5,7.2,10.7,11.7,17.9,13.2
		c6.8,1.4,14.1-0.2,20.1-4.4c1.2-0.9,2.6-1.6,3.9-2.4c1-0.6,2-1.1,3-1.7c4.4-2.8,9.4-3.3,15.2-1.6c1.1,0.3,2.1,0.8,2.9,1.4
		c4.8,3.6,9.6,7.2,14.4,10.7c12.1,8.9,24.6,18.2,36.4,27.8c8.7,7.1,17.1,15.1,25.2,22.8c3.3,3.1,6.5,6.2,9.9,9.3
		c2.2,2.1,3.4,4.2,3.5,6.3c0.1,2-0.8,4.2-2.8,6.3c-5.2,5.6-8.9,6-13.7,1.6c-9.9-9.1-19.8-18.2-29.6-27.4l-12.5-11.6
		c-0.5-0.5-1-0.9-1.6-1.4L306.4,250.3z M196,337.2c0.6-1.4,1.2-2.8,2-3.7c5.3-5.9,10.9-11.6,16.1-16.8c3.2-3.2,7.3-3.3,10.8-0.4
		c1.2,1,2.2,2,3.1,3c2.8,3.1,2.9,7.4,0.1,10.3c-5.4,5.9-11,11.7-16.6,17.3c-2.9,2.9-6.9,3.1-10.3,0.3c-4.2-3.4-5.3-5.4-5.9-8.3
		C195.6,338.3,195.8,337.8,196,337.2z M113.7,273c0.7-1.5,1.4-2.9,2.3-3.9c8.7-9.4,17.9-19,27.9-29.3c2-2,4.2-3,6.6-2.8
		c2.8,0.2,5.4,2,7.5,5c3.3,4.6,3.1,7.3-0.8,11.4c-8.7,9.2-18.5,19.6-28.3,29.4c-1.1,1.1-3.4,2-5.3,2.1c-4.3,0.1-9.9-5.2-10.8-10.2
		C113.2,274.1,113.4,273.6,113.7,273z M129.9,305.8c0.8-1.6,1.6-3.1,2.6-4.2c9.6-10.1,19.2-20.2,28.9-30.3l8.3-8.6
		c3.3-3.4,7.6-3.7,11.3-0.7c0.9,0.7,1.7,1.5,2.4,2.3c3.7,3.8,3.7,7.9,0.1,11.7c-12.4,13-24.8,25.9-37.2,38.8c-2.9,3-6,3.9-9.2,2.6
		c-3.7-1.5-7.2-5.9-8.1-9.9C129.3,307,129.6,306.4,129.9,305.8z M164.2,318.5l8.8-9.2c5.1-5.4,10.3-10.7,15.4-16.1c2-2,3.9-3,5.9-3
		c2.1,0,4.4,1.2,6.9,3.5c2.4,2.3,3.7,4.5,3.8,6.8c0.1,1.9-0.8,3.9-2.6,5.8c-9.8,10.4-17.9,18.8-25.4,26.3c-0.9,1-2.4,1.6-3.7,2.1
		c-0.4,0.2-0.7,0.3-1,0.5c-4.8-0.6-8-2.9-10.6-7.6C160.8,325.8,160,322.9,164.2,318.5z M405.2,206.5c-8.1,9-16.2,18-24.3,26.9
		l-18.3,20.2c-0.2,0.2-0.4,0.4-0.6,0.7c-2.6-2.4-5.2-4.8-7.7-7.1c-6.9-6.4-13.5-12.5-20.6-18.2c-15.1-11.9-30.6-23.4-46-33.9
		c-5.1-3.5-10.7-5.3-16.6-5.3c-5.3,0-10.9,1.5-16.5,4.5c-2.1,1.1-4.1,2.4-6.1,3.6c-1.3,0.8-2.6,1.6-3.9,2.4
		c-3.2,1.8-7.2,1.7-10.8-0.3c-3.5-2-5.6-5.4-5.7-9.1c0-2.6,1.1-4.7,3.5-6.3c2.9-2.1,5.8-4.1,8.8-6.2c7.3-5.2,14.9-10.6,22.5-15.7
		c5.7-3.8,12.1-4.2,18.6-1.3c4.7,2.1,9.3,4.4,13.9,6.6c3.3,1.6,6.6,3.3,10,4.8c12.7,6,25.2,5.3,37.1-1.8c4.8-2.9,9.6-5.9,14.4-8.9
		c3.1-1.9,6.2-3.9,9.3-5.8c5.6-3.5,10.5-2.6,14.5,2.6c8.3,10.6,16.6,21.3,25,31.9C409.8,196,409.6,201.6,405.2,206.5z"/>
	<g class="st0">
		<g class="st1">
			<path d="M317,342.8H188c-24.8,0-45-20.2-45-45v-90.5c0-24.8,20.2-45,45-45h129c24.8,0,45,20.2,45,45v90.5
				C362,322.6,341.8,342.8,317,342.8z M188,175.1c-17.7,0-32.2,14.4-32.2,32.2v90.5c0,17.7,14.4,32.2,32.2,32.2h129
				c17.7,0,32.2-14.4,32.2-32.2v-90.5c0-17.7-14.4-32.2-32.2-32.2H188z"/>
		</g>
		<g class="st1">
			<path class="st4" d="M199.2,227.5v29.3c0,8.8,3.3,13.2,9.2,13.2c6,0,9.4-4.2,9.4-13.2v-29.3h11.5V256c0,15.7-7.9,23.2-21.2,23.2
				c-12.8,0-20.4-7.1-20.4-23.3v-28.4H199.2z"/>
			<path class="st4" d="M242.7,266.5c3.1,1.6,7.9,3.2,12.8,3.2c5.3,0,8.1-2.2,8.1-5.5c0-3.2-2.4-5-8.5-7.2c-8.5-2.9-14-7.6-14-15
				c0-8.7,7.3-15.3,19.3-15.3c5.7,0,10,1.2,13,2.6l-2.6,9.3c-2-1-5.7-2.4-10.6-2.4c-5,0-7.4,2.3-7.4,4.9c0,3.2,2.9,4.7,9.4,7.2
				c9,3.3,13.2,8,13.2,15.2c0,8.5-6.6,15.8-20.5,15.8c-5.8,0-11.6-1.5-14.4-3.1L242.7,266.5z"/>
			<path class="st4" d="M286.1,228.1c3.5-0.6,8.5-1.1,15.6-1.1c7.1,0,12.2,1.4,15.6,4.1c3.2,2.6,5.4,6.8,5.4,11.8
				c0,5-1.7,9.2-4.7,12.1c-3.9,3.7-9.7,5.4-16.5,5.4c-1.5,0-2.9-0.1-3.9-0.2v18.2h-11.4V228.1z M297.5,251.2c1,0.2,2.2,0.3,3.9,0.3
				c6.1,0,9.9-3.1,9.9-8.3c0-4.7-3.2-7.5-9-7.5c-2.3,0-3.9,0.2-4.8,0.5V251.2z"/>
		</g>
	</g>
	<g class="st0">
		<g class="st1">
			<g>
				<path d="M403.6,186.5c0-1.7-0.3-3.5-1-5.2c-2.5-6.9-8.5-10.8-16.3-10.8h-40.3c4.8,1.6,8.4,5.1,10.2,10.1
					c0.6,1.6,0.9,3.2,0.9,4.8h28.7c2.8,0,2.8,0,2.8,2.8v85.6c0,0,0,0-0.1-0.1c-7.1-7.1-14.2-14.1-21.3-21.2
					c-2.2-2.2-4.3-3.2-6.3-3.2H361c-1.2,0-2.5,0.4-3.7,1.3c0,7.1,0,14.2,0,21.2l4-4.3c0.2,0.2,0.4,0.3,0.5,0.5l4.5,4.5
					c7.2,7.2,14.3,14.3,21.5,21.6c0.5,0.5,0.9,1.4,0.9,2.1c0.1,5.9,0.1,11.9,0,17.9v3.1c0,2.1-0.2,2.3-2.2,2.3h-29.2v2.5
					c0,5-2.3,9.5-6,12.5h31.5c1.5,0,3,0,4.5,0c9.2-0.2,16.4-7.2,16.4-15.9C403.7,274.5,403.7,230.5,403.6,186.5z"/>
			</g>
		</g>
		<g class="st1">
			<g>
				<path d="M142.8,325.4c-0.3-1.2-0.4-2.5-0.4-4.1v-1.8h-23.9c-2,0-2.2-0.2-2.2-2.3v-2.5c0-6.9,0-13.8,0-20.7
					c0-0.5,0.3-1.3,0.6-1.6c8.5-7.8,17-15.6,25.5-23.3c0-6.8,0-13.5,0-20.3c-5.1,4.6-10.2,9.3-15.2,13.9l-10.9,9.9v-84.4
					c0-2.9,0-2.9,2.9-2.9h23.3c0.5-7.1,4.8-12.7,11.1-15h-36.2c-9.3,0.4-16,7.4-16,16.7v18.6c0,37.3,0,74.6,0,111.9
					c0,1.6,0.1,2.9,0.4,4c1.8,7.7,8.4,12.7,16.7,12.7h29.9C145.7,332.2,143.7,329.2,142.8,325.4z"/>
			</g>
		</g>
		<g class="st1">
			<g>
				<path d="M340.5,186.5c0-1.7-0.3-3.5-1-5.2c-2.5-6.9-8.5-10.8-16.3-10.8H180.7c-0.4,0-0.8,0-1.1,0c-9.3,0.4-16,7.4-16,16.7v18.7
					c0,37.3,0,74.6,0,111.9c0,1.6,0.1,2.9,0.4,4c1.8,7.7,8.4,12.7,16.7,12.7c16.7,0,33.3,0,50,0l81.7,0l3.6,0c1.2,0,2.4,0,3.7,0
					c1.5,0,3,0,4.5,0c9.2-0.2,16.4-7.2,16.4-16C340.6,274.5,340.6,230.5,340.5,186.5z M325.7,273.8
					C325.6,273.8,325.6,273.8,325.7,273.8c-7.2-7.1-14.3-14.2-21.4-21.3c-2.2-2.2-4.2-3.2-6.3-3.2c0,0-0.1,0-0.1,0
					c-2.1,0-4.1,1.2-6.3,3.5c-5.4,5.8-10.8,11.6-16.4,17.5l-8.2,8.8c-0.2-0.4-0.4-0.7-0.8-1.1c-11.9-12-23.9-23.9-35.8-35.9
					l-2.8-2.8c-2.2-2.2-4.2-3.2-6.3-3.2c-2,0-4,1-6.2,3c-8.6,7.9-17.3,15.8-25.9,23.6l-10.9,10v-84.4c0-2.9,0-2.9,2.9-2.9h141.5
					c2.8,0,2.8,0,2.8,2.8V273.8z M178.5,294c0-0.5,0.3-1.2,0.6-1.5c12.5-11.5,25.1-23,37.7-34.4l4.4-4c0,0,0.1-0.1,0.1-0.1
					c0.2,0.3,0.5,0.7,0.8,1c5.9,6,11.9,11.9,17.8,17.9c7.1,7.1,14.3,14.3,21.4,21.4c1.7,1.7,4.3,3.8,8,2.7c1.4-0.4,2.8-1.3,3.9-2.5
					c6-6.4,12-12.9,18-19.3l7-7.5c0.2,0.2,0.4,0.3,0.5,0.5l4.5,4.5c7.2,7.2,14.4,14.4,21.5,21.6c0.5,0.5,0.8,1.4,0.9,2.1
					c0.1,5.9,0.1,11.9,0.1,17.9l0,3.2c0,2.1-0.2,2.3-2.2,2.3H180.7c-2,0-2.2-0.2-2.2-2.3l0-2.5C178.4,307.8,178.4,300.9,178.5,294z"
					/>
			</g>
			<g>
				<path d="M265.3,192.4C265.2,192.4,265.2,192.4,265.3,192.4c-13.7,0-24.9,11.2-25.1,24.9c-0.1,6.5,2.4,12.7,7.1,17.5
					c4.8,4.9,11.1,7.6,17.8,7.6c0.1,0,0.1,0,0.2,0c6.6,0,12.8-2.6,17.6-7.3c4.8-4.7,7.4-10.9,7.4-17.5c0-6.7-2.6-13-7.3-17.8
					C278.2,195.1,271.9,192.4,265.3,192.4z M272.2,224.7c-1.9,1.8-4.3,2.8-6.9,2.8c0,0-0.1,0-0.1,0c-5.5-0.1-10-4.5-10-10
					c0-5.5,4.4-10.1,9.6-10.1c0,0,0,0,0,0c2.9,0,5.5,1.1,7.5,3c1.9,1.9,2.9,4.4,2.9,7.2C275.2,220.2,274.1,222.8,272.2,224.7z"/>
			</g>
		</g>
	</g>
	<g class="st0">
		<path class="st1" d="M197.3,236.2c0-0.5,0-1,0-1.4c0.1-7.3,0.3-14.6,0.2-21.9c-0.1-8,8-15.7,15.7-15.6c7.2,0.1,14.4-0.1,21.6-0.2
			c0.5,0,0.9,0,1.4,0c-3.9-16.3,0.2-29.4,15.3-37.9c9.3-5.3,23.5-4.5,32.2,2.2c9,6.9,16.1,17.7,11.7,35.3c0.5,0.1,1,0.2,1.4,0.2
			c7.7,0.1,15.5,0.1,23.2,0.2c2.4,0,4.7,0.1,7.1,0.2c6.1,0.4,10.6,3.3,13.6,8.7c1.2,2.1,1.7,4.3,1.7,6.8c0,11.7,0.1,23.4,0.2,35
			c0,3.6-4.7,6.7-8,5.2c-1.2-0.6-2.3-1.3-3.4-2.1c-9-6.3-20.4-4.6-26.7,4.2c-4.2,5.9-4.4,12.4-1.4,18.8c3,6.5,8.4,9.8,15.5,10.3
			c4.4,0.3,8.4-0.7,12-3.4c0.8-0.6,1.7-1.2,2.6-1.8c3.8-2.5,9.2,0.3,9.1,4.9c-0.1,7.7,0.1,15.5,0.1,23.2c0,6.8-0.2,13.5-0.1,20.3
			c0,2.4-0.6,4.4-1.8,6.2c-2.3,3.7-5.6,6.5-9.7,8.1c-0.4,0.2-0.9,0.2-1.4,0.2c-15.5,0.1-30.9,0.2-46.4,0.3c-2.7,0-5.4-3.5-5-6.6
			c0.2-1.8,1.1-3.2,2.2-4.6c2.1-2.8,3.4-5.9,3.9-9.4c1.2-9.8-5.7-19.1-15.5-20.5c-7.9-1.1-14.4,1.4-18.6,8.3
			c-4.2,6.9-4.1,14,0.4,20.8c0.6,0.9,1.1,1.8,1.8,2.6c2.4,3.2,0.2,9.2-4.7,9.2c-8.9-0.1-17.7,0-26.6,0c-2.8,0-5.5-0.1-8.3,0
			c-2.2,0.1-4.1-0.5-6-1.5c-3-1.6-5.4-3.6-7.1-6.6c-1.3-2.3-2.1-4.9-2.1-7.6c-0.1-9.9-0.1-19.8-0.2-29.8c0-0.5,0-0.9,0-1.5
			c-16.7,4-30.2-0.4-38.2-16.1c-5.6-11-4.6-22.3,3.2-32.2C171.3,235.4,183.3,232.4,197.3,236.2z M330.1,236c0.1-0.7,0.2-1.5,0.2-2.3
			c0-5.5,0-11.1,0-16.6c0-1.6-0.2-3.1-0.4-4.6c-0.3-1.7-1.1-2.4-2.8-2.5c-2.8-0.1-5.7-0.2-8.5-0.3c-11.7-0.2-23.3-0.3-35-0.4
			c-4.2,0-6.8-5.8-4.7-8.8c0.8-1.2,1.6-2.4,2.4-3.6c4.1-6,4.1-14.5,0-20.4c-4.5-6.5-12.2-9.6-19.5-8.1c-7.9,1.7-15.1,9.4-14.4,18
			c0.1,1,0.1,2.1,0.1,3.2c0.1,2.3,0.7,4.4,2,6.4c0.9,1.4,1.9,2.7,2.9,4.1c1.5,2.2,1.1,5.5-0.8,7.4c-1.5,1.5-3.4,2-5.4,2
			c-10.9,0.1-21.9,0.1-32.8,0.2c-1.7,0-3.5,1.8-3.5,3.5c0,9.8,0,19.5-0.1,29.3c0,2-0.1,4-0.4,5.9c-0.5,3.5-5.4,6.5-9,4
			c-0.8-0.6-1.6-1.1-2.4-1.7c-12-8.5-28.1-1.3-29.7,13.2c-1.3,11.9,9.9,23.2,23.7,19.6c3-0.8,5.4-2.6,7.8-4.3
			c2.1-1.4,4.4-1.5,6.5-0.5c2.1,1,3.1,3,3.2,5.3c0.1,2.2,0.2,4.4,0.2,6.7c0,9.3,0,18.5,0.1,27.8c0,2.6,0.1,5.3,0.3,7.9
			c0.2,2.5,0.9,3.2,3.5,3.2c5.1,0.2,10.3,0.3,15.4,0.4c2.3,0,4.7,0,7.1,0c-0.3-1.4-0.6-2.5-0.8-3.7c-2-10.2-0.2-19.4,7-27.3
			c7.7-8.5,17.2-12.3,28.5-10.2c17.6,3.2,29.8,19.7,24.4,39.8c-0.1,0.4-0.2,0.7-0.3,1.3c4.1,0,8,0,11.9,0c5.8,0,11.7,0,17.5-0.2
			c4.8-0.1,5.6-1,5.7-5.8c0.1-9.4,0.1-18.8,0.2-28.3c0-0.2-0.1-0.4-0.1-0.7c-15.4,4.2-28.2,0.3-36.8-13.3c-7.1-11.2-6.7-23,1-33.9
			C303.3,235.6,315.6,232.7,330.1,236z"/>
	</g>
	<g class="st0">
		<g class="st1">
			<path d="M250.3,340.5l-0.2,0c-5.5-0.1-11-0.2-16.5-0.3c-22.8-0.3-44.4-0.6-66.4-3c-8.8-0.9-17.4-2.3-25.2-8.3
				c-8.4-6.5-13.4-14.4-14.7-23.5c-1.7-11.3-3.3-22.3-4-33.6c-1.6-24.8-0.8-48.7,2.3-71.1c1.2-8.5,3.1-18.3,10.7-26.5
				c6-6.5,13.1-10.5,21.2-12c14.7-2.8,29.5-3.3,43.8-3.8l0.4,0c43.1-1.5,81.3-1.1,116.6,1.1c7.6,0.5,14.9,1.4,21.8,2.6
				c16.4,3,27.6,14,30.8,30c2,10.1,3.3,21.2,4.1,34c1.6,24.7,0.8,48.5-2.3,70.8c-1.1,7.9-2.7,16.3-8.4,23.8
				c-6.3,8.1-14.3,13.2-23.9,14.9c-15.5,2.8-31,3.3-46.1,3.8l-2,0.1c-10,0.3-20,0.5-29.6,0.7L250.3,340.5z M251,176.6
				c-15.5,0-31.7,0.3-48.7,0.9l-0.4,0c-14.2,0.5-27.6,1-40.9,3.5c-4.1,0.8-7.5,2.8-10.8,6.3c-3.4,3.7-4.7,8.7-5.7,16.1
				c-3,21.4-3.7,43.4-2.2,67.2c0.7,10.5,2.2,21.1,3.8,32c0.6,4.1,3,7.7,7.5,11.2c3.9,3,9.1,3.8,15.5,4.4c21.1,2.3,42.3,2.6,64.6,2.9
				c5.4,0.1,10.9,0.2,16.4,0.3l12-0.2c9.5-0.2,19.4-0.3,29.3-0.7l2.1-0.1c15-0.5,29.2-0.9,43.2-3.5c5-0.9,8.8-3.4,12.2-7.8
				c2.9-3.8,3.8-8.9,4.6-14.8c3-21.3,3.7-43.2,2.2-66.9c-0.8-11.9-2-22.3-3.8-31.6c-1.6-8.4-6.7-13.2-15.5-14.9
				c-6.1-1.1-12.7-1.9-19.5-2.4C296.2,177.3,274.3,176.6,251,176.6z"/>
		</g>
		<g class="st1">
			<path d="M225.7,284.2c20.5-11.8,40.5-23.4,61.1-35.3c-20.6-11.9-40.7-23.5-61.1-35.3C225.7,237.4,225.7,260.5,225.7,284.2z"/>
		</g>
	</g>
	<g>
		<g>
			<path d="M254.6,345.7c-23.6,0-47.2,0-70.8,0c-17.3,0-30.4-13.1-30.4-30.4c-0.1-45.8-0.1-91.7,0-137.5c0-17.2,12.8-30.2,29.7-30.2
				c45-0.2,91.8-0.2,139.2,0c16.4,0,29.3,13.3,29.4,30.2c0,16.3,0,32.6,0,49l0,20l0,20c0,16.2,0,32.4,0,48.6
				c0,17.4-13.1,30.5-30.3,30.5C299.1,345.7,276.8,345.7,254.6,345.7z M253.9,164.7c-24,0-47.6,0-70.7,0.1c-7.4,0-12.5,5.4-12.5,13
				c-0.1,45.8-0.1,91.7,0,137.5c0,7.7,5.4,13.2,13.2,13.2c45.8,0,91.7,0,137.5,0c7.7,0,13.1-5.5,13.1-13.3c0-16.2,0-32.4,0-48.5
				l0-20l0-20c0-16.3,0-32.6,0-48.9c0-7.4-5.2-12.9-12.2-12.9C299.3,164.7,276.4,164.7,253.9,164.7z"/>
		</g>
		<g>
			<path d="M207.5,233.7c1.4-0.9,3-1.9,4.6-2.8c3.4-2,5.1-1.8,7.1,1.6c1.8,3.2,3.4,6.6,4.4,10.1c3,9.8,5.3,19.8,8.4,29.5
				c1.5,4.7,3.7,9.2,6.3,13.3c3.4,5.2,8.1,6.7,13.8,4.4c4.2-1.6,8.4-3.8,11.7-6.7c14.1-12.3,25.1-27,33.6-43.7
				c3.1-6.2,4.4-12.7,4-19.6c-0.4-7.7-4.7-13.3-11-14.3c-14.5-2.2-27.7,7.3-30.5,22c2.6-0.2,5.2-0.6,7.8-0.6c2.6,0,5,1.1,5.3,4
				c0.3,2.4,0.4,5-0.4,7.2c-2.5,7.5-6.7,14.1-12,19.9c-2.6,2.9-4.9,2.6-6.6-1c-1.6-3.6-3-7.5-3.8-11.3c-2.1-9.5-3.4-19.1-5.7-28.5
				c-2.5-10.8-10.9-14-19.9-7.6c-6.1,4.3-11.6,9.4-17.3,14.3c-5.2,4.5-5.2,4.5-0.5,9.6C207,233.5,207.1,233.5,207.5,233.7z"/>
		</g>
	</g>
</g>
<g id="Layer_5" class="st0">
	<rect x="0.1" y="0.1" class="st5" width="112.5" height="504"/>
	<rect x="391.6" y="0.1" class="st5" width="112.5" height="504"/>
	
		<rect x="192.8" y="-195.6" transform="matrix(-1.836970e-16 1 -1 -1.836970e-16 305.4395 -192.7402)" class="st6" width="112.5" height="504"/>
	
		<rect x="192.8" y="196.8" transform="matrix(-1.836970e-16 1 -1 -1.836970e-16 697.9199 199.7402)" class="st7" width="112.5" height="504"/>
</g>
</svg>
