<svg version="1.1" xmlns="http://www.w3.org/2000/svg" xmlns:xlink="http://www.w3.org/1999/xlink" x="0px" y="0px"
	 viewBox="0 0 505 505" style="enable-background:new 0 0 505 505;" xml:space="preserve" xlink:href="data:image/png;base64">
<g id="Layer_4">
	<g class="st0">
		<g class="st1">
			<path d="M317,342.8H188c-24.8,0-45-20.2-45-45v-90.5c0-24.8,20.2-45,45-45h129c24.8,0,45,20.2,45,45v90.5
				C362,322.6,341.8,342.8,317,342.8z M188,175.1c-17.7,0-32.2,14.4-32.2,32.2v90.5c0,17.7,14.4,32.2,32.2,32.2h129
				c17.7,0,32.2-14.4,32.2-32.2v-90.5c0-17.7-14.4-32.2-32.2-32.2H188z"/>
		</g>
		<g class="st1">
			<path class="st4" d="M199.2,227.5v29.3c0,8.8,3.3,13.2,9.2,13.2c6,0,9.4-4.2,9.4-13.2v-29.3h11.5V256c0,15.7-7.9,23.2-21.2,23.2
				c-12.8,0-20.4-7.1-20.4-23.3v-28.4H199.2z" fill="#ffffff"/>
			<path class="st4" d="M242.7,266.5c3.1,1.6,7.9,3.2,12.8,3.2c5.3,0,8.1-2.2,8.1-5.5c0-3.2-2.4-5-8.5-7.2c-8.5-2.9-14-7.6-14-15
				c0-8.7,7.3-15.3,19.3-15.3c5.7,0,10,1.2,13,2.6l-2.6,9.3c-2-1-5.7-2.4-10.6-2.4c-5,0-7.4,2.3-7.4,4.9c0,3.2,2.9,4.7,9.4,7.2
				c9,3.3,13.2,8,13.2,15.2c0,8.5-6.6,15.8-20.5,15.8c-5.8,0-11.6-1.5-14.4-3.1L242.7,266.5z"/>
			<path class="st4" d="M286.1,228.1c3.5-0.6,8.5-1.1,15.6-1.1c7.1,0,12.2,1.4,15.6,4.1c3.2,2.6,5.4,6.8,5.4,11.8
				c0,5-1.7,9.2-4.7,12.1c-3.9,3.7-9.7,5.4-16.5,5.4c-1.5,0-2.9-0.1-3.9-0.2v18.2h-11.4V228.1z M297.5,251.2c1,0.2,2.2,0.3,3.9,0.3
				c6.1,0,9.9-3.1,9.9-8.3c0-4.7-3.2-7.5-9-7.5c-2.3,0-3.9,0.2-4.8,0.5V251.2z"/>
		</g>
	</g>
	<g class="st0">
		<g class="st1">
			<g>
				<path fill="#ffffff" d="M403.6,186.5c0-1.7-0.3-3.5-1-5.2c-2.5-6.9-8.5-10.8-16.3-10.8h-40.3c4.8,1.6,8.4,5.1,10.2,10.1
					c0.6,1.6,0.9,3.2,0.9,4.8h28.7c2.8,0,2.8,0,2.8,2.8v85.6c0,0,0,0-0.1-0.1c-7.1-7.1-14.2-14.1-21.3-21.2
					c-2.2-2.2-4.3-3.2-6.3-3.2H361c-1.2,0-2.5,0.4-3.7,1.3c0,7.1,0,14.2,0,21.2l4-4.3c0.2,0.2,0.4,0.3,0.5,0.5l4.5,4.5
					c7.2,7.2,14.3,14.3,21.5,21.6c0.5,0.5,0.9,1.4,0.9,2.1c0.1,5.9,0.1,11.9,0,17.9v3.1c0,2.1-0.2,2.3-2.2,2.3h-29.2v2.5
					c0,5-2.3,9.5-6,12.5h31.5c1.5,0,3,0,4.5,0c9.2-0.2,16.4-7.2,16.4-15.9C403.7,274.5,403.7,230.5,403.6,186.5z"/>
			</g>
		</g>
		<g class="st1">
			<g>
				<path fill="#ffffff" d="M142.8,325.4c-0.3-1.2-0.4-2.5-0.4-4.1v-1.8h-23.9c-2,0-2.2-0.2-2.2-2.3v-2.5c0-6.9,0-13.8,0-20.7
					c0-0.5,0.3-1.3,0.6-1.6c8.5-7.8,17-15.6,25.5-23.3c0-6.8,0-13.5,0-20.3c-5.1,4.6-10.2,9.3-15.2,13.9l-10.9,9.9v-84.4
					c0-2.9,0-2.9,2.9-2.9h23.3c0.5-7.1,4.8-12.7,11.1-15h-36.2c-9.3,0.4-16,7.4-16,16.7v18.6c0,37.3,0,74.6,0,111.9
					c0,1.6,0.1,2.9,0.4,4c1.8,7.7,8.4,12.7,16.7,12.7h29.9C145.7,332.2,143.7,329.2,142.8,325.4z"/>
			</g>
		</g>
		<g class="st1">
			<g>
				<path fill="#ffffff" d="M340.5,186.5c0-1.7-0.3-3.5-1-5.2c-2.5-6.9-8.5-10.8-16.3-10.8H180.7c-0.4,0-0.8,0-1.1,0c-9.3,0.4-16,7.4-16,16.7v18.7
					c0,37.3,0,74.6,0,111.9c0,1.6,0.1,2.9,0.4,4c1.8,7.7,8.4,12.7,16.7,12.7c16.7,0,33.3,0,50,0l81.7,0l3.6,0c1.2,0,2.4,0,3.7,0
					c1.5,0,3,0,4.5,0c9.2-0.2,16.4-7.2,16.4-16C340.6,274.5,340.6,230.5,340.5,186.5z M325.7,273.8
					C325.6,273.8,325.6,273.8,325.7,273.8c-7.2-7.1-14.3-14.2-21.4-21.3c-2.2-2.2-4.2-3.2-6.3-3.2c0,0-0.1,0-0.1,0
					c-2.1,0-4.1,1.2-6.3,3.5c-5.4,5.8-10.8,11.6-16.4,17.5l-8.2,8.8c-0.2-0.4-0.4-0.7-0.8-1.1c-11.9-12-23.9-23.9-35.8-35.9
					l-2.8-2.8c-2.2-2.2-4.2-3.2-6.3-3.2c-2,0-4,1-6.2,3c-8.6,7.9-17.3,15.8-25.9,23.6l-10.9,10v-84.4c0-2.9,0-2.9,2.9-2.9h141.5
					c2.8,0,2.8,0,2.8,2.8V273.8z M178.5,294c0-0.5,0.3-1.2,0.6-1.5c12.5-11.5,25.1-23,37.7-34.4l4.4-4c0,0,0.1-0.1,0.1-0.1
					c0.2,0.3,0.5,0.7,0.8,1c5.9,6,11.9,11.9,17.8,17.9c7.1,7.1,14.3,14.3,21.4,21.4c1.7,1.7,4.3,3.8,8,2.7c1.4-0.4,2.8-1.3,3.9-2.5
					c6-6.4,12-12.9,18-19.3l7-7.5c0.2,0.2,0.4,0.3,0.5,0.5l4.5,4.5c7.2,7.2,14.4,14.4,21.5,21.6c0.5,0.5,0.8,1.4,0.9,2.1
					c0.1,5.9,0.1,11.9,0.1,17.9l0,3.2c0,2.1-0.2,2.3-2.2,2.3H180.7c-2,0-2.2-0.2-2.2-2.3l0-2.5C178.4,307.8,178.4,300.9,178.5,294z"
					/>
			</g>
			<g>
				<path fill="#ffffff" d="M265.3,192.4C265.2,192.4,265.2,192.4,265.3,192.4c-13.7,0-24.9,11.2-25.1,24.9c-0.1,6.5,2.4,12.7,7.1,17.5
					c4.8,4.9,11.1,7.6,17.8,7.6c0.1,0,0.1,0,0.2,0c6.6,0,12.8-2.6,17.6-7.3c4.8-4.7,7.4-10.9,7.4-17.5c0-6.7-2.6-13-7.3-17.8
					C278.2,195.1,271.9,192.4,265.3,192.4z M272.2,224.7c-1.9,1.8-4.3,2.8-6.9,2.8c0,0-0.1,0-0.1,0c-5.5-0.1-10-4.5-10-10
					c0-5.5,4.4-10.1,9.6-10.1c0,0,0,0,0,0c2.9,0,5.5,1.1,7.5,3c1.9,1.9,2.9,4.4,2.9,7.2C275.2,220.2,274.1,222.8,272.2,224.7z"/>
			</g>
		</g>
	</g>
	<g class="st0">
		<path fill="#ffffff" class="st1" d="M197.3,236.2c0-0.5,0-1,0-1.4c0.1-7.3,0.3-14.6,0.2-21.9c-0.1-8,8-15.7,15.7-15.6c7.2,0.1,14.4-0.1,21.6-0.2
			c0.5,0,0.9,0,1.4,0c-3.9-16.3,0.2-29.4,15.3-37.9c9.3-5.3,23.5-4.5,32.2,2.2c9,6.9,16.1,17.7,11.7,35.3c0.5,0.1,1,0.2,1.4,0.2
			c7.7,0.1,15.5,0.1,23.2,0.2c2.4,0,4.7,0.1,7.1,0.2c6.1,0.4,10.6,3.3,13.6,8.7c1.2,2.1,1.7,4.3,1.7,6.8c0,11.7,0.1,23.4,0.2,35
			c0,3.6-4.7,6.7-8,5.2c-1.2-0.6-2.3-1.3-3.4-2.1c-9-6.3-20.4-4.6-26.7,4.2c-4.2,5.9-4.4,12.4-1.4,18.8c3,6.5,8.4,9.8,15.5,10.3
			c4.4,0.3,8.4-0.7,12-3.4c0.8-0.6,1.7-1.2,2.6-1.8c3.8-2.5,9.2,0.3,9.1,4.9c-0.1,7.7,0.1,15.5,0.1,23.2c0,6.8-0.2,13.5-0.1,20.3
			c0,2.4-0.6,4.4-1.8,6.2c-2.3,3.7-5.6,6.5-9.7,8.1c-0.4,0.2-0.9,0.2-1.4,0.2c-15.5,0.1-30.9,0.2-46.4,0.3c-2.7,0-5.4-3.5-5-6.6
			c0.2-1.8,1.1-3.2,2.2-4.6c2.1-2.8,3.4-5.9,3.9-9.4c1.2-9.8-5.7-19.1-15.5-20.5c-7.9-1.1-14.4,1.4-18.6,8.3
			c-4.2,6.9-4.1,14,0.4,20.8c0.6,0.9,1.1,1.8,1.8,2.6c2.4,3.2,0.2,9.2-4.7,9.2c-8.9-0.1-17.7,0-26.6,0c-2.8,0-5.5-0.1-8.3,0
			c-2.2,0.1-4.1-0.5-6-1.5c-3-1.6-5.4-3.6-7.1-6.6c-1.3-2.3-2.1-4.9-2.1-7.6c-0.1-9.9-0.1-19.8-0.2-29.8c0-0.5,0-0.9,0-1.5
			c-16.7,4-30.2-0.4-38.2-16.1c-5.6-11-4.6-22.3,3.2-32.2C171.3,235.4,183.3,232.4,197.3,236.2z M330.1,236c0.1-0.7,0.2-1.5,0.2-2.3
			c0-5.5,0-11.1,0-16.6c0-1.6-0.2-3.1-0.4-4.6c-0.3-1.7-1.1-2.4-2.8-2.5c-2.8-0.1-5.7-0.2-8.5-0.3c-11.7-0.2-23.3-0.3-35-0.4
			c-4.2,0-6.8-5.8-4.7-8.8c0.8-1.2,1.6-2.4,2.4-3.6c4.1-6,4.1-14.5,0-20.4c-4.5-6.5-12.2-9.6-19.5-8.1c-7.9,1.7-15.1,9.4-14.4,18
			c0.1,1,0.1,2.1,0.1,3.2c0.1,2.3,0.7,4.4,2,6.4c0.9,1.4,1.9,2.7,2.9,4.1c1.5,2.2,1.1,5.5-0.8,7.4c-1.5,1.5-3.4,2-5.4,2
			c-10.9,0.1-21.9,0.1-32.8,0.2c-1.7,0-3.5,1.8-3.5,3.5c0,9.8,0,19.5-0.1,29.3c0,2-0.1,4-0.4,5.9c-0.5,3.5-5.4,6.5-9,4
			c-0.8-0.6-1.6-1.1-2.4-1.7c-12-8.5-28.1-1.3-29.7,13.2c-1.3,11.9,9.9,23.2,23.7,19.6c3-0.8,5.4-2.6,7.8-4.3
			c2.1-1.4,4.4-1.5,6.5-0.5c2.1,1,3.1,3,3.2,5.3c0.1,2.2,0.2,4.4,0.2,6.7c0,9.3,0,18.5,0.1,27.8c0,2.6,0.1,5.3,0.3,7.9
			c0.2,2.5,0.9,3.2,3.5,3.2c5.1,0.2,10.3,0.3,15.4,0.4c2.3,0,4.7,0,7.1,0c-0.3-1.4-0.6-2.5-0.8-3.7c-2-10.2-0.2-19.4,7-27.3
			c7.7-8.5,17.2-12.3,28.5-10.2c17.6,3.2,29.8,19.7,24.4,39.8c-0.1,0.4-0.2,0.7-0.3,1.3c4.1,0,8,0,11.9,0c5.8,0,11.7,0,17.5-0.2
			c4.8-0.1,5.6-1,5.7-5.8c0.1-9.4,0.1-18.8,0.2-28.3c0-0.2-0.1-0.4-0.1-0.7c-15.4,4.2-28.2,0.3-36.8-13.3c-7.1-11.2-6.7-23,1-33.9
			C303.3,235.6,315.6,232.7,330.1,236z"/>
	</g>
	<g class="st0">
		<g class="st1">
			<path fill="#ffffff" d="M250.3,340.5l-0.2,0c-5.5-0.1-11-0.2-16.5-0.3c-22.8-0.3-44.4-0.6-66.4-3c-8.8-0.9-17.4-2.3-25.2-8.3
				c-8.4-6.5-13.4-14.4-14.7-23.5c-1.7-11.3-3.3-22.3-4-33.6c-1.6-24.8-0.8-48.7,2.3-71.1c1.2-8.5,3.1-18.3,10.7-26.5
				c6-6.5,13.1-10.5,21.2-12c14.7-2.8,29.5-3.3,43.8-3.8l0.4,0c43.1-1.5,81.3-1.1,116.6,1.1c7.6,0.5,14.9,1.4,21.8,2.6
				c16.4,3,27.6,14,30.8,30c2,10.1,3.3,21.2,4.1,34c1.6,24.7,0.8,48.5-2.3,70.8c-1.1,7.9-2.7,16.3-8.4,23.8
				c-6.3,8.1-14.3,13.2-23.9,14.9c-15.5,2.8-31,3.3-46.1,3.8l-2,0.1c-10,0.3-20,0.5-29.6,0.7L250.3,340.5z M251,176.6
				c-15.5,0-31.7,0.3-48.7,0.9l-0.4,0c-14.2,0.5-27.6,1-40.9,3.5c-4.1,0.8-7.5,2.8-10.8,6.3c-3.4,3.7-4.7,8.7-5.7,16.1
				c-3,21.4-3.7,43.4-2.2,67.2c0.7,10.5,2.2,21.1,3.8,32c0.6,4.1,3,7.7,7.5,11.2c3.9,3,9.1,3.8,15.5,4.4c21.1,2.3,42.3,2.6,64.6,2.9
				c5.4,0.1,10.9,0.2,16.4,0.3l12-0.2c9.5-0.2,19.4-0.3,29.3-0.7l2.1-0.1c15-0.5,29.2-0.9,43.2-3.5c5-0.9,8.8-3.4,12.2-7.8
				c2.9-3.8,3.8-8.9,4.6-14.8c3-21.3,3.7-43.2,2.2-66.9c-0.8-11.9-2-22.3-3.8-31.6c-1.6-8.4-6.7-13.2-15.5-14.9
				c-6.1-1.1-12.7-1.9-19.5-2.4C296.2,177.3,274.3,176.6,251,176.6z"/>
		</g>
		<g class="st1">
			<path fill="#ffffff" d="M225.7,284.2c20.5-11.8,40.5-23.4,61.1-35.3c-20.6-11.9-40.7-23.5-61.1-35.3C225.7,237.4,225.7,260.5,225.7,284.2z"/>
		</g>
	</g>
	<g>
		<g>
			<path fill="#ffffff" d="M254.6,345.7c-23.6,0-47.2,0-70.8,0c-17.3,0-30.4-13.1-30.4-30.4c-0.1-45.8-0.1-91.7,0-137.5c0-17.2,12.8-30.2,29.7-30.2
				c45-0.2,91.8-0.2,139.2,0c16.4,0,29.3,13.3,29.4,30.2c0,16.3,0,32.6,0,49l0,20l0,20c0,16.2,0,32.4,0,48.6
				c0,17.4-13.1,30.5-30.3,30.5C299.1,345.7,276.8,345.7,254.6,345.7z M253.9,164.7c-24,0-47.6,0-70.7,0.1c-7.4,0-12.5,5.4-12.5,13
				c-0.1,45.8-0.1,91.7,0,137.5c0,7.7,5.4,13.2,13.2,13.2c45.8,0,91.7,0,137.5,0c7.7,0,13.1-5.5,13.1-13.3c0-16.2,0-32.4,0-48.5
				l0-20l0-20c0-16.3,0-32.6,0-48.9c0-7.4-5.2-12.9-12.2-12.9C299.3,164.7,276.4,164.7,253.9,164.7z"/>
		</g>
		<g>
			<path fill="#ffffff" d="M207.5,233.7c1.4-0.9,3-1.9,4.6-2.8c3.4-2,5.1-1.8,7.1,1.6c1.8,3.2,3.4,6.6,4.4,10.1c3,9.8,5.3,19.8,8.4,29.5
				c1.5,4.7,3.7,9.2,6.3,13.3c3.4,5.2,8.1,6.7,13.8,4.4c4.2-1.6,8.4-3.8,11.7-6.7c14.1-12.3,25.1-27,33.6-43.7
				c3.1-6.2,4.4-12.7,4-19.6c-0.4-7.7-4.7-13.3-11-14.3c-14.5-2.2-27.7,7.3-30.5,22c2.6-0.2,5.2-0.6,7.8-0.6c2.6,0,5,1.1,5.3,4
				c0.3,2.4,0.4,5-0.4,7.2c-2.5,7.5-6.7,14.1-12,19.9c-2.6,2.9-4.9,2.6-6.6-1c-1.6-3.6-3-7.5-3.8-11.3c-2.1-9.5-3.4-19.1-5.7-28.5
				c-2.5-10.8-10.9-14-19.9-7.6c-6.1,4.3-11.6,9.4-17.3,14.3c-5.2,4.5-5.2,4.5-0.5,9.6C207,233.5,207.1,233.5,207.5,233.7z"/>
		</g>
	</g>
</g>
</svg>
